<svg width="1000" height="350" viewBox="0 0 1000 350" fill="none" xmlns="http://www.w3.org/2000/svg">
<path d="M1000 0H0V350H1000V0Z" fill="white"/>
<path d="M447.76 137.26L448.71 139.17L455.84 135.65L454.9 133.74L447.76 137.26Z" fill="#FF7E27"/>
<path d="M449.33 132.19L454.28 134.64L455.22 132.72L450.22 130.28L449.33 132.19ZM447.28 139.32L457.18 142.2L457.78 140.2L447.88 137.31L447.28 139.32Z" fill="#FF7E27"/>
<path d="M452.37 117.1C451.551 117.098 450.749 117.339 450.067 117.793C449.385 118.247 448.853 118.893 448.538 119.649C448.223 120.405 448.14 121.238 448.298 122.042C448.457 122.845 448.85 123.584 449.429 124.164C450.008 124.744 450.745 125.139 451.549 125.3C452.352 125.46 453.185 125.379 453.942 125.066C454.699 124.753 455.346 124.222 455.802 123.541C456.257 122.86 456.5 122.059 456.5 121.24C456.5 120.144 456.065 119.092 455.291 118.316C454.517 117.54 453.466 117.103 452.37 117.1ZM452.37 122.54C452.199 122.546 452.029 122.518 451.869 122.458C451.709 122.399 451.562 122.308 451.438 122.191C451.313 122.075 451.212 121.935 451.141 121.779C451.07 121.624 451.031 121.456 451.025 121.285C451.019 121.114 451.047 120.944 451.107 120.784C451.167 120.624 451.257 120.478 451.374 120.353C451.49 120.228 451.63 120.127 451.786 120.056C451.941 119.985 452.109 119.946 452.28 119.94H452.36C452.706 119.953 453.032 120.102 453.268 120.355C453.504 120.608 453.631 120.944 453.62 121.29C453.61 121.62 453.474 121.934 453.239 122.166C453.005 122.399 452.69 122.533 452.36 122.54H452.37Z" fill="#FF7E27"/>
<path d="M454.88 124.64C454.724 124.232 454.451 123.88 454.095 123.627C453.739 123.375 453.316 123.233 452.88 123.22H451.88C451.443 123.23 451.019 123.371 450.662 123.624C450.306 123.877 450.034 124.231 449.88 124.64L443.74 144C443.659 144.166 443.626 144.352 443.645 144.536C443.663 144.72 443.732 144.895 443.844 145.042C443.956 145.189 444.106 145.302 444.278 145.369C444.451 145.436 444.638 145.454 444.82 145.42H446C446.22 145.416 446.434 145.346 446.613 145.217C446.791 145.088 446.927 144.908 447 144.7L450.16 133.88C450.92 131.3 451.44 129.13 452.27 126.59H452.4C453.2 129.13 453.71 131.3 454.47 133.88L457.67 144.7C457.741 144.909 457.875 145.091 458.055 145.22C458.234 145.35 458.449 145.419 458.67 145.42H460C460.183 145.458 460.373 145.444 460.549 145.379C460.724 145.314 460.878 145.201 460.993 145.053C461.107 144.905 461.178 144.728 461.197 144.542C461.216 144.356 461.182 144.168 461.1 144L454.88 124.64Z" fill="#FF7E27"/>
<path d="M396.65 138.57C397.032 139.14 397.538 139.617 398.13 139.963C398.723 140.309 399.386 140.517 400.07 140.57C401.91 140.57 402.85 139.77 402.85 137.29V129.15H395.85V125.75H406.94V137.62C406.94 141.15 405.2 144.07 400.23 144.07C399.077 144.085 397.938 143.82 396.91 143.297C395.882 142.775 394.997 142.011 394.33 141.07L396.65 138.57ZM420.16 139.46H414.72L413.62 143.73H409.48L415.08 125.73H419.93L425.54 143.73H421.23L420.16 139.46ZM419.33 136.28L418.91 134.63C418.44 132.83 417.91 130.71 417.48 128.83H417.37C416.93 130.74 416.43 132.83 415.96 134.63L415.55 136.28H419.33ZM426.2 125.74H430.51L432.66 134.13C433.21 136.13 433.57 137.91 434.09 139.9H434.2C434.76 137.9 435.14 136.09 435.67 134.13L437.79 125.75H441.93L436.52 143.75H431.64L426.2 125.75V125.74Z" fill="#FF7E27"/>
<path d="M466.6 138.68C467.88 139.804 469.5 140.466 471.2 140.56C473.08 140.56 473.91 139.9 473.91 138.82C473.91 137.74 472.86 137.33 471.12 136.67L468.8 135.67C466.8 134.92 464.97 133.38 464.97 130.76C464.97 127.76 467.67 125.4 471.56 125.4C473.791 125.398 475.938 126.249 477.56 127.78L475.49 130.34C474.387 129.426 473.002 128.921 471.57 128.91C470 128.91 469.09 129.51 469.09 130.53C469.09 131.55 470.3 132.03 472.04 132.66L474.22 133.6C476.59 134.48 478.08 135.94 478.08 138.48C478.08 141.48 475.57 144.05 471.08 144.05C468.56 144.051 466.127 143.13 464.24 141.46L466.6 138.68ZM489.53 125.41C491.535 125.447 493.445 126.269 494.85 127.7L492.62 130.21C491.798 129.392 490.689 128.929 489.53 128.92C486.99 128.92 485.11 131.1 485.11 134.71C485.11 138.32 486.99 140.56 489.69 140.56C490.308 140.543 490.914 140.391 491.467 140.114C492.02 139.838 492.505 139.444 492.89 138.96L495.13 141.42C494.439 142.257 493.569 142.929 492.584 143.385C491.6 143.842 490.525 144.073 489.44 144.06C484.81 144.06 480.95 140.89 480.95 134.85C480.95 128.81 484.72 125.41 489.53 125.41ZM507.53 143.73L504.08 137.25H502V143.73H497.95V125.73H504.32C508.13 125.73 511.27 127.06 511.27 131.33C511.337 132.42 511.066 133.503 510.493 134.433C509.92 135.362 509.074 136.091 508.07 136.52L512.13 143.72L507.53 143.73ZM502 134H504C506.15 134 507.28 133.09 507.28 131.33C507.28 129.57 506.11 129 504 129H502V134ZM514.62 140.29H518.81V129.17H514.62V125.74H527.09V129.17H522.89V140.31H527.09V143.73H514.59L514.62 140.29ZM531.17 125.72H537.74C541.63 125.72 544.74 127.16 544.74 131.52C544.74 135.88 541.51 137.61 537.74 137.61H535.2V143.71H531.14L531.17 125.72ZM537.49 134.39C539.73 134.39 540.77 133.39 540.77 131.52C540.77 129.65 539.64 128.95 537.49 128.95H535.2V134.39H537.49ZM551.92 129.15H546.54V125.72H561.39V129.15H556V143.71H551.91V129.17L551.92 129.15Z" fill="#FF7E27"/>
<path d="M567.65 139C568.146 138.994 568.632 139.136 569.047 139.407C569.462 139.678 569.787 140.066 569.981 140.523C570.175 140.979 570.229 141.482 570.136 141.969C570.042 142.456 569.807 142.905 569.458 143.257C569.11 143.61 568.665 143.851 568.179 143.95C567.693 144.049 567.189 144.001 566.73 143.813C566.272 143.624 565.88 143.304 565.603 142.892C565.327 142.481 565.18 141.996 565.18 141.5C565.168 141.171 565.223 140.843 565.342 140.536C565.461 140.229 565.642 139.95 565.874 139.716C566.105 139.481 566.382 139.297 566.688 139.174C566.993 139.051 567.321 138.992 567.65 139Z" fill="#FF7E27"/>
<path d="M576 143.74H588.24V140.38H584.12V129.43H588.24V126.07H576V129.43H580.11V140.38H576V143.74Z" fill="#FF7E27"/>
<path d="M592.53 143.74H596.35V137.48C596.35 135.39 595.97 133.03 595.78 131.08H595.89L597.4 134.93L601.14 143.74H605.21V126.07H601.39V132.33C601.39 134.39 601.77 136.88 601.96 138.75H601.85L600.33 134.88L596.59 126.07H592.53V143.74ZM610.47 143.74H614.47V136.88H621V133.52H614.47V129.43H622.14V126.07H610.46V143.74H610.47ZM631.14 144.06C635.35 144.06 638.24 140.59 638.24 134.82C638.24 129.05 635.35 125.75 631.14 125.75C626.93 125.75 624.05 129.05 624.05 134.82C624.05 140.59 626.94 144.06 631.14 144.06ZM631.14 140.62C629.3 140.62 628.14 138.37 628.14 134.82C628.14 131.27 629.3 129.19 631.14 129.19C632.98 129.19 634.14 131.3 634.14 134.82C634.14 138.34 633 140.62 631.14 140.62Z" fill="#FF7E27"/>
<path d="M461 120.15L460.28 119.63L463.57 118.36L463.01 117.57L470.35 116.93L470.41 117.1L467.41 118.28L467.76 118.92L463.76 119.92L464.37 120.68L458.89 121.42L458.81 121.27L460.96 120.17" fill="#FF7E27"/>
<path d="M460.74 112.33L461.34 112.82L456.18 116.44L456.06 116.32L457.9 113.81L456.9 113.87L458.95 111.52L458.42 110.87L464.75 106.09L464.87 106.22L462.41 109.59H463.18L460.7 112.33" fill="#FF7E27"/>
<path d="M444.09 112.33L443.49 112.82L448.64 116.44L448.77 116.32L446.93 113.81L447.93 113.87L445.88 111.52L446.41 110.87L440 106.09L439.88 106.22L442.34 109.59H441.56L444.05 112.33" fill="#FF7E27"/>
<path d="M443.82 120.15L444.54 119.63L441.25 118.36L441.81 117.57L434.46 116.93V117.1L437.46 118.28L437.11 118.92L441.11 119.92L440.5 120.68L445.98 121.42L446.06 121.27L443.91 120.17" fill="#FF7E27"/>
<path d="M400.83 201.8V192.18H395.26V186.71H411.62V192.18H406.25V201.8H411.62V207.32H406.25V218.07C407.41 217.72 408.49 217.4 409.47 217.07C410.45 216.74 411.3 216.48 411.98 216.2L412.8 221.78C411.707 222.193 410.373 222.643 408.8 223.13C407.227 223.617 405.627 224.093 404 224.56C402.36 225 400.79 225.41 399.27 225.79C397.75 226.17 396.52 226.44 395.56 226.61L394.28 220.93L397.28 220.32C398.41 220.08 399.6 219.8 400.86 219.5V207.32H395.54V201.8H400.83ZM407 227.32C413.14 224.02 417.197 220.687 419.17 217.32C420.24 215.406 421.05 213.358 421.58 211.23C422.224 208.567 422.559 205.839 422.58 203.1L422.78 193.1H428L427.8 203.9C427.8 205.3 427.68 206.62 427.54 207.9C427.4 209.18 427.22 210.36 426.98 211.56H429.59V223C429.59 223.88 429.74 224.44 430.05 224.66C430.498 224.922 431.011 225.054 431.53 225.04H434.14C434.92 225.04 435.42 224.84 435.62 224.53C435.882 224.022 436.022 223.461 436.03 222.89C436.03 222.59 436.1 222.19 436.13 221.72C436.16 221.25 436.2 220.72 436.23 220.23C436.26 219.74 436.29 219.23 436.31 218.7C436.33 218.17 436.31 217.76 436.31 217.42L441.31 218.75C441.24 219.75 441.16 220.8 441.08 221.92C441 223.04 440.9 224.1 440.8 225.09C440.731 226.597 440.165 228.039 439.19 229.19C437.982 230.194 436.439 230.705 434.87 230.62C433.13 230.62 431.4 230.62 429.7 230.62C428.222 230.668 426.77 230.217 425.58 229.34C424.68 228.55 424.23 227.09 424.23 224.94V219.11L423.56 220.23C422.141 222.559 420.393 224.671 418.37 226.5C415.94 228.691 413.312 230.653 410.52 232.36L407 227.32ZM438 185.43V214.89H432.58V190.89H418.58V214.89H413.21V185.43H438Z" fill="#333333"/>
<path d="M445.28 208.4C446.44 206.73 447.59 204.89 448.73 202.9C449.87 200.91 450.99 198.78 452.08 196.53C453.17 194.28 454.2 191.99 455.15 189.65C456.1 187.31 456.91 185.09 457.55 182.98L463.03 184.98C462.28 187.06 461.54 188.98 460.83 190.84C460.12 192.7 459.36 194.45 458.58 196.18V231.02H452.85V207.02C452.37 207.84 451.85 208.66 451.34 209.47C450.83 210.28 450.27 211.11 449.73 211.93L445.28 208.4ZM469.28 198.94C469.213 198.08 469.153 197.21 469.1 196.33C469.05 195.44 468.99 194.54 468.92 193.62C468.78 191.98 468.68 190.34 468.61 188.71C468.54 187.08 468.48 185.4 468.41 183.71H474.24C474.24 186.48 474.43 189.85 474.7 193.84C474.77 195.44 474.87 196.96 475.01 198.39L491.37 196.86L491.78 202.43L475.61 204C476.08 207.914 476.879 211.781 478 215.56C478.648 217.897 479.614 220.135 480.87 222.21C481.288 222.909 481.822 223.531 482.45 224.05C482.834 224.339 483.3 224.499 483.78 224.51C483.992 224.499 484.197 224.431 484.373 224.313C484.549 224.195 484.69 224.032 484.78 223.84C485.234 222.884 485.57 221.877 485.78 220.84C485.95 220.19 486.14 219.42 486.37 218.54C486.6 217.66 486.77 216.87 486.9 216.18L492.07 218.95C491.93 219.42 491.79 219.95 491.63 220.48C491.47 221.01 491.33 221.55 491.17 222.07C491.01 222.59 490.87 223.07 490.74 223.52C490.61 223.97 490.48 224.37 490.38 224.67C489.876 226.556 488.891 228.279 487.52 229.67C486.467 230.576 485.119 231.066 483.73 231.05C482.338 231.029 480.984 230.594 479.84 229.8C478.283 228.646 476.95 227.216 475.91 225.58C474.276 222.987 473.051 220.157 472.28 217.19C471.141 213.014 470.335 208.754 469.87 204.45L460.15 205.37L459.69 199.75L469.28 198.94ZM479.97 184.94C480.58 185.35 481.27 185.85 482.04 186.45C482.81 187.05 483.63 187.74 484.52 188.52L486.92 190.64C487.64 191.28 488.24 191.83 488.71 192.31L485.13 196.55C484.66 196.01 484.13 195.39 483.42 194.71C482.71 194.03 481.98 193.3 481.09 192.51C479.734 191.2 478.301 189.971 476.8 188.83L479.97 184.94Z" fill="#333333"/>
<path d="M522.21 229.52C519.598 229.655 517.008 228.985 514.79 227.6C512.956 226.335 511.662 224.431 511.16 222.26L516.32 219.8C516.562 221.076 517.219 222.237 518.19 223.1C519.2 223.844 520.437 224.215 521.69 224.15C522.423 224.21 523.16 224.111 523.85 223.859C524.541 223.606 525.168 223.208 525.69 222.69C526.658 221.486 527.133 219.961 527.02 218.42V187.12H533.77V218C533.77 221.69 532.77 224.53 530.77 226.54C528.77 228.55 525.85 229.52 522.21 229.52Z" fill="#333333"/>
<path d="M569 221.75C569 224.85 569.07 227.22 569.21 228.86H563.58C563.48 228.17 563.4 226.49 563.33 223.79C562.291 225.547 560.822 227.009 559.06 228.04C557.228 229.059 555.156 229.57 553.06 229.52C550.723 229.543 548.436 228.845 546.51 227.52C544.462 226.093 542.843 224.132 541.83 221.85C540.702 219.205 540.12 216.36 540.12 213.485C540.12 210.61 540.702 207.765 541.83 205.12C542.843 202.835 544.461 200.871 546.51 199.44C548.438 198.12 550.724 197.422 553.06 197.44C555.156 197.395 557.226 197.906 559.06 198.92C560.82 199.953 562.289 201.415 563.33 203.17C563.4 200.54 563.48 198.86 563.58 198.11H569.21C569.07 199.737 569 202.107 569 205.22V221.75ZM562.71 213.46C562.754 211.487 562.414 209.524 561.71 207.68C561.129 206.147 560.14 204.802 558.85 203.79C557.625 202.872 556.13 202.387 554.6 202.41C553.089 202.392 551.614 202.877 550.41 203.79C549.116 204.804 548.118 206.148 547.52 207.68C546.12 211.406 546.12 215.514 547.52 219.24C548.115 220.774 549.113 222.118 550.41 223.13C551.614 224.043 553.089 224.528 554.6 224.51C556.13 224.533 557.625 224.048 558.85 223.13C560.14 222.118 561.129 220.773 561.71 219.24C562.414 217.396 562.754 215.433 562.71 213.46Z" fill="#333333"/>
<path d="M603.53 198.07L592.33 228.86H585.22L573.92 198.07H580.92L588.92 223.38L596.92 198.07H603.53Z" fill="#333333"/>
<path d="M636.16 221.75C636.16 224.85 636.23 227.22 636.37 228.86H630.74C630.64 228.17 630.55 226.49 630.49 223.79C629.451 225.55 627.977 227.013 626.21 228.04C624.379 229.062 622.307 229.573 620.21 229.52C617.873 229.543 615.586 228.845 613.66 227.52C611.611 226.093 609.993 224.132 608.98 221.85C607.845 219.207 607.26 216.361 607.26 213.485C607.26 210.609 607.845 207.763 608.98 205.12C609.993 202.835 611.611 200.871 613.66 199.44C615.588 198.12 617.874 197.422 620.21 197.44C622.306 197.391 624.377 197.902 626.21 198.92C627.975 199.949 629.448 201.412 630.49 203.17C630.55 200.54 630.64 198.86 630.74 198.11H636.37C636.23 199.737 636.16 202.107 636.16 205.22V221.75ZM629.87 213.46C629.914 211.487 629.574 209.524 628.87 207.68C628.286 206.146 627.294 204.801 626 203.79C624.776 202.893 623.298 202.409 621.78 202.409C620.262 202.409 618.784 202.893 617.56 203.79C616.268 204.807 615.271 206.15 614.67 207.68C613.283 211.408 613.283 215.511 614.67 219.24C615.268 220.772 616.266 222.115 617.56 223.13C618.784 224.027 620.262 224.51 621.78 224.51C623.298 224.51 624.776 224.027 626 223.13C627.296 222.122 628.29 220.776 628.87 219.24C629.574 217.396 629.914 215.433 629.87 213.46Z" fill="#333333"/>
<path d="M643.43 198.22C643.386 196.057 643.962 193.927 645.09 192.08C646.261 190.258 647.94 188.818 649.92 187.94C652.254 186.907 654.788 186.402 657.34 186.46C660.438 186.345 663.506 187.107 666.19 188.66C668.521 190.096 670.249 192.332 671.05 194.95L665.62 197.5C665.091 195.915 664.072 194.539 662.71 193.57C661.144 192.61 659.324 192.146 657.49 192.24C655.552 192.1 653.623 192.622 652.02 193.72C651.066 194.63 650.449 195.835 650.267 197.141C650.086 198.446 650.351 199.775 651.02 200.91C651.687 201.78 652.579 202.451 653.6 202.85C655.21 203.5 656.887 203.97 658.6 204.25C663.313 205.137 666.707 206.603 668.78 208.65C670.853 210.697 671.893 213.51 671.9 217.09C671.933 219.368 671.285 221.603 670.04 223.51C668.74 225.45 666.92 226.985 664.79 227.94C662.381 229.026 659.762 229.566 657.12 229.52C653.682 229.642 650.278 228.793 647.3 227.07C644.712 225.486 642.813 222.988 641.98 220.07L647.45 217.51C647.999 219.424 649.216 221.077 650.88 222.17C652.748 223.283 654.897 223.832 657.07 223.75C659.205 223.895 661.325 223.298 663.07 222.06C663.773 221.481 664.329 220.745 664.694 219.911C665.059 219.077 665.222 218.169 665.17 217.26C665.206 216.395 665.037 215.535 664.677 214.747C664.317 213.96 663.777 213.269 663.1 212.73C661.72 211.623 659.323 210.73 655.91 210.05C651.65 209.23 648.523 207.857 646.53 205.93C645.501 204.935 644.693 203.734 644.158 202.405C643.624 201.077 643.376 199.651 643.43 198.22Z" fill="#333333"/>
<path d="M690.79 197.4C693.464 197.286 696.11 197.983 698.38 199.4C700.24 200.597 701.598 202.432 702.2 204.56L696.88 207.07C696.09 204.14 694.1 202.67 690.88 202.67C689.733 202.641 688.596 202.89 687.567 203.397C686.537 203.904 685.646 204.653 684.97 205.58C683.514 207.945 682.743 210.668 682.743 213.445C682.743 216.222 683.514 218.945 684.97 221.31C685.641 222.245 686.53 223.001 687.56 223.513C688.59 224.026 689.73 224.279 690.88 224.25C694.09 224.25 696.08 222.81 696.88 219.91L702.2 222.36C701.601 224.492 700.242 226.332 698.38 227.53C696.11 228.948 693.464 229.645 690.79 229.53C688.186 229.581 685.622 228.888 683.4 227.53C681.209 226.159 679.445 224.202 678.31 221.88C677.099 219.254 676.472 216.397 676.472 213.505C676.472 210.613 677.099 207.756 678.31 205.13C679.429 202.782 681.202 200.807 683.415 199.441C685.629 198.075 688.19 197.377 690.79 197.43V197.4Z" fill="#333333"/>
<path d="M723.93 197.66V203.28C723.269 203.169 722.6 203.119 721.93 203.13C720.881 203.083 719.834 203.26 718.859 203.648C717.883 204.035 717.001 204.626 716.27 205.38C714.763 207.156 714.003 209.446 714.15 211.77V228.86H707.91V205.18C707.91 202.48 707.827 200.11 707.66 198.07H713C713.202 199.766 713.302 201.472 713.3 203.18C714.113 201.436 715.39 199.949 716.99 198.88C718.529 197.894 720.322 197.38 722.15 197.4C722.755 197.357 723.362 197.446 723.93 197.66Z" fill="#333333"/>
<path d="M733 186.4C733.507 186.37 734.015 186.443 734.493 186.615C734.97 186.786 735.408 187.054 735.78 187.4C736.447 188.186 736.814 189.184 736.814 190.215C736.814 191.246 736.447 192.244 735.78 193.03C735.405 193.38 734.962 193.65 734.479 193.822C733.996 193.994 733.482 194.065 732.97 194.03C732.454 194.064 731.936 193.993 731.448 193.821C730.959 193.649 730.511 193.38 730.13 193.03C729.775 192.661 729.498 192.223 729.317 191.743C729.137 191.263 729.056 190.752 729.08 190.24C729.055 189.719 729.137 189.198 729.321 188.709C729.505 188.221 729.787 187.775 730.15 187.4C730.534 187.051 730.984 186.782 731.473 186.61C731.963 186.439 732.482 186.367 733 186.4ZM736.12 198.07V228.86H729.83V198.07H736.12Z" fill="#333333"/>
<path d="M772.88 213.46C772.934 216.342 772.35 219.2 771.17 221.83C770.154 224.11 768.536 226.07 766.49 227.5C764.548 228.829 762.243 229.527 759.89 229.5C757.994 229.535 756.118 229.113 754.42 228.27C752.794 227.441 751.391 226.234 750.33 224.75V240.19H744.08V205.19C744.08 202.49 743.997 200.12 743.83 198.08H749.35C749.591 199.736 749.712 201.407 749.71 203.08C750.727 201.344 752.182 199.906 753.93 198.91C755.767 197.906 757.837 197.402 759.93 197.45C762.283 197.428 764.586 198.125 766.53 199.45C768.576 200.884 770.194 202.847 771.21 205.13C772.371 207.75 772.941 210.594 772.88 213.46ZM766.54 213.46C766.584 211.487 766.244 209.524 765.54 207.68C764.953 206.147 763.961 204.803 762.67 203.79C761.449 202.872 759.957 202.386 758.43 202.41C756.908 202.382 755.421 202.868 754.21 203.79C752.931 204.808 751.95 206.151 751.37 207.68C750.01 211.413 750.01 215.507 751.37 219.24C751.946 220.771 752.928 222.115 754.21 223.13C755.421 224.052 756.908 224.538 758.43 224.51C759.957 224.533 761.449 224.048 762.67 223.13C763.964 222.119 764.956 220.774 765.54 219.24C766.244 217.396 766.584 215.433 766.54 213.46Z" fill="#333333"/>
<path d="M787.82 203.08V220.08C787.82 222.84 789.183 224.22 791.91 224.22C792.949 224.25 793.986 224.112 794.98 223.81V228.81C793.563 229.29 792.076 229.53 790.58 229.52C789.361 229.621 788.135 229.454 786.988 229.032C785.84 228.61 784.798 227.942 783.936 227.075C783.073 226.209 782.41 225.164 781.992 224.015C781.575 222.865 781.414 221.638 781.52 220.42V203.08H777.08V198.08H781.52V190.6H787.82V198.07H795V203.07L787.82 203.08Z" fill="#333333"/>
<path d="M822.75 188.91V183.59H827.75V188.91H832.75V191.91C833.9 189.91 834.98 187.91 835.97 185.77L840.62 188.17C838.99 191.487 837.129 194.685 835.05 197.74H838.05V200.65C838.5 199.65 838.93 198.65 839.36 197.65C839.79 196.65 840.22 195.5 840.66 194.3C842.075 190.814 843.193 187.215 844 183.54L849.47 184.77C849.197 185.89 848.917 186.99 848.63 188.07C848.34 189.14 848.02 190.19 847.63 191.21H860.72V196.43H857.45C856.363 204.43 854.487 210.91 851.82 215.87L851.36 216.68C852.815 218.52 854.407 220.248 856.12 221.85C858.022 223.63 860.026 225.3 862.12 226.85L858.12 232.02C854.233 229.11 850.744 225.704 847.74 221.89C844.446 225.68 840.759 229.11 836.74 232.12L832.5 227.36C834.904 225.775 837.203 224.035 839.38 222.15C841.25 220.537 842.985 218.774 844.57 216.88C843.748 215.309 843.03 213.685 842.42 212.02C841.807 210.353 841.26 208.597 840.78 206.75L840 208L836.77 205.54V210.15C835.68 211.15 834.61 212.15 833.55 212.93C832.49 213.71 831.44 214.56 830.38 215.31V216C832.09 215.76 833.64 215.52 835.04 215.28C836.44 215.04 837.7 214.81 838.82 214.57L839.03 219.37C837.87 219.65 836.57 219.91 835.14 220.17C833.71 220.43 832.14 220.69 830.38 220.96V225.51C830.412 226.483 830.273 227.455 829.97 228.38C829.752 229.011 829.385 229.581 828.9 230.04C828.448 230.431 827.915 230.718 827.34 230.88C826.728 231.053 826.102 231.173 825.47 231.24C824.65 231.34 823.76 231.42 822.79 231.47C821.82 231.52 820.85 231.53 819.9 231.47L818.82 225.89C819.37 225.96 820.04 226 820.82 226.02C821.6 226.04 822.3 226.02 822.82 226.02C823.203 226.045 823.587 226.045 823.97 226.02C824.219 226.009 824.457 225.909 824.64 225.74C824.851 225.549 824.98 225.284 825 225C825 224.69 825 224.27 825 223.72V221.63C823.09 221.86 821.37 222.05 819.83 222.19C818.29 222.33 816.94 222.43 815.74 222.5L815.23 217.5C816.53 217.5 817.98 217.38 819.6 217.25C821.22 217.12 823.02 216.92 825 216.69V213.82C825.72 213.31 826.46 212.74 827.23 212.11C828 211.48 828.77 210.8 829.55 210.11H824.23C823.14 211.11 821.98 212.11 820.76 213.11C819.54 214.11 818.23 215.11 816.87 216.11L813.59 212L816.46 209.95V205.35H821.88C822.36 204.91 822.82 204.46 823.26 204.02C823.7 203.58 824.15 203.12 824.59 202.64H814.82V197.73H822.75V193.59H816.75V188.88L822.75 188.91ZM828.75 197.76C829.77 196.427 830.74 195.047 831.66 193.62H827.72V197.76H828.75ZM837.03 202.67H831.25L830.64 203.44L829 205.38H836.57L835.91 204.87L837.03 202.67ZM845.83 196.43C845.63 196.98 845.41 197.5 845.19 198.02C844.97 198.54 844.74 199.02 844.5 199.55C844.845 201.684 845.323 203.795 845.93 205.87C846.482 207.756 847.185 209.596 848.03 211.37C850.125 206.626 851.474 201.586 852.03 196.43H845.83Z" fill="#333333"/>
<path d="M866.79 187.58C869.429 187.447 872.049 187.052 874.61 186.4C876.25 186.03 877.67 185.67 878.86 185.33C879.832 185.074 880.774 184.715 881.67 184.26L883.31 189.52C881.365 190.188 879.385 190.752 877.38 191.21V197.15H883.05V202.62H877.38V204.15C878.09 204.94 878.8 205.74 879.5 206.56L881.57 208.96C882.903 210.6 883.927 211.963 884.64 213.05L880.75 216.68C880.41 216.14 880.01 215.53 879.55 214.87C879.09 214.21 878.55 213.45 877.89 212.59L877.38 211.88V231.06H872.26V214.23C871.214 216.763 870.035 219.24 868.73 221.65L864.73 218.42C866.234 215.8 867.599 213.103 868.82 210.34C870.02 207.65 871.02 205.07 871.82 202.62H866.09V197.15H872.23V192.34C870.731 192.656 869.21 192.86 867.68 192.95L866.79 187.58ZM894 223.9V219.5H884.49V214.13H894V209.73H883.72V204.36H910.21V209.73H899.47V214.13H909V219.5H899.48V223.9H911.8V229.52H881V223.9H894ZM909 185.69V201.19H884.54V185.69H909ZM890 196.33H903.4V190.65H890V196.33Z" fill="#333333"/>
<path d="M287 76.5H90V273.5H287V76.5Z" fill="#FF7E27"/>
<path d="M183.94 245.74C178.693 245.74 174.513 244.657 171.4 242.49C168.301 240.36 166.108 237.151 165.25 233.49L174 229.3C174.412 231.456 175.523 233.417 177.16 234.88C178.873 236.136 180.968 236.762 183.09 236.65C186.09 236.65 188.34 235.83 189.84 234.19C191.34 232.55 192.09 230.14 192.09 226.96V174H203.5V226.18C203.5 232.407 201.783 237.223 198.35 240.63C194.917 244.037 190.113 245.74 183.94 245.74Z" fill="white"/>
<path d="M216.14 192.78C216.079 189.114 217.071 185.508 219 182.39C220.98 179.304 223.825 176.87 227.18 175.39C231.124 173.641 235.406 172.784 239.72 172.88C245.72 172.88 250.72 174.12 254.72 176.6C258.663 179.033 261.586 182.819 262.94 187.25L253.76 191.57C252.859 188.887 251.133 186.556 248.83 184.91C246.643 183.41 243.7 182.66 240 182.66C235.913 182.66 232.827 183.497 230.74 185.17C229.697 186.041 228.872 187.144 228.332 188.391C227.792 189.638 227.552 190.994 227.63 192.35C227.55 194.115 228.018 195.862 228.97 197.35C230.096 198.828 231.608 199.967 233.34 200.64C236.046 201.733 238.863 202.531 241.74 203.02C249.7 204.52 255.44 207 258.96 210.46C262.48 213.92 264.24 218.68 264.24 224.74C264.261 228.592 263.133 232.363 261 235.57C258.801 238.846 255.728 241.441 252.13 243.06C248.048 244.902 243.608 245.818 239.13 245.74C232.463 245.74 226.923 244.353 222.51 241.58C218.132 238.897 214.92 234.668 213.51 229.73L222.77 225.4C223.697 228.637 225.755 231.433 228.57 233.28C231.73 235.192 235.38 236.137 239.07 236C243.45 236 246.823 235.047 249.19 233.14C250.379 232.159 251.32 230.912 251.937 229.499C252.553 228.087 252.829 226.549 252.74 225.01C252.799 223.548 252.513 222.093 251.905 220.762C251.297 219.431 250.384 218.263 249.24 217.35C246.9 215.477 242.847 213.963 237.08 212.81C229.867 211.417 224.573 209.083 221.2 205.81C217.827 202.537 216.14 198.193 216.14 192.78Z" fill="white"/>
</svg>
