<svg width="1000" height="350" viewBox="0 0 1000 350" fill="none" xmlns="http://www.w3.org/2000/svg">
<path d="M1000 0H0V350H1000V0Z" fill="white"/>
<path d="M348.18 200.48C344.18 204.08 135.29 205.48 131.96 200.48C128.63 195.48 128 94 132 87.63C136 81.26 344.47 82.28 348.22 87.63C351.97 92.98 352.21 196.89 348.18 200.48Z" fill="#EFEFEF"/>
<path d="M140.66 102.75C163.533 102.87 186.4 102.947 209.26 102.98C240.26 102.98 271.26 102.96 302.26 102.92C312.37 102.92 322.49 102.92 332.61 102.74C332.77 102.72 332.917 102.643 333.023 102.522C333.13 102.401 333.189 102.246 333.189 102.085C333.189 101.924 333.13 101.769 333.023 101.648C332.917 101.527 332.77 101.45 332.61 101.43C309.75 100.92 286.86 101.19 264 101.16C233 101.16 202 101.1 171 101.26L140.64 101.42C140.478 101.44 140.328 101.519 140.22 101.641C140.112 101.764 140.052 101.921 140.052 102.085C140.052 102.249 140.112 102.406 140.22 102.529C140.328 102.651 140.478 102.73 140.64 102.75H140.66Z" fill="white"/>
<path d="M148.06 97.28C149.628 97.28 150.9 96.0085 150.9 94.44C150.9 92.8715 149.628 91.6 148.06 91.6C146.491 91.6 145.22 92.8715 145.22 94.44C145.22 96.0085 146.491 97.28 148.06 97.28Z" fill="white"/>
<path d="M158.78 97.28C160.348 97.28 161.62 96.0085 161.62 94.44C161.62 92.8715 160.348 91.6 158.78 91.6C157.212 91.6 155.94 92.8715 155.94 94.44C155.94 96.0085 157.212 97.28 158.78 97.28Z" fill="white"/>
<path d="M169.28 97.28C170.848 97.28 172.12 96.0085 172.12 94.44C172.12 92.8715 170.848 91.6 169.28 91.6C167.712 91.6 166.44 92.8715 166.44 94.44C166.44 96.0085 167.712 97.28 169.28 97.28Z" fill="white"/>
<path d="M471.76 249.18C467.81 252.59 262.66 253.94 259.39 249.18C256.12 244.42 255.46 148.25 259.39 142.18C263.32 136.11 468.07 137.12 471.76 142.18C475.45 147.24 475.72 245.77 471.76 249.18Z" fill="#EFEFEF" stroke="white" stroke-width="6" stroke-miterlimit="10"/>
<path d="M267.94 156.57C290.393 156.683 312.84 156.76 335.28 156.8C365.72 156.8 396.153 156.78 426.58 156.74C436.58 156.74 446.5 156.74 456.45 156.55C456.622 156.55 456.788 156.482 456.91 156.36C457.032 156.238 457.1 156.072 457.1 155.9C457.1 155.728 457.032 155.562 456.91 155.44C456.788 155.319 456.622 155.25 456.45 155.25C434.02 154.73 411.54 155.01 389.1 154.98C358.667 154.933 328.237 154.967 297.81 155.08L267.93 155.24C267.08 155.24 267.11 156.56 267.93 156.57H267.94Z" fill="white"/>
<path d="M275.21 151.34C276.751 151.34 278 150.136 278 148.65C278 147.164 276.751 145.96 275.21 145.96C273.669 145.96 272.42 147.164 272.42 148.65C272.42 150.136 273.669 151.34 275.21 151.34Z" fill="white"/>
<path d="M285.74 151.34C287.281 151.34 288.53 150.136 288.53 148.65C288.53 147.164 287.281 145.96 285.74 145.96C284.199 145.96 282.95 147.164 282.95 148.65C282.95 150.136 284.199 151.34 285.74 151.34Z" fill="white"/>
<path d="M296.04 151.34C297.581 151.34 298.83 150.136 298.83 148.65C298.83 147.164 297.581 145.96 296.04 145.96C294.499 145.96 293.25 147.164 293.25 148.65C293.25 150.136 294.499 151.34 296.04 151.34Z" fill="white"/>
<path d="M338 125.78C338 125.78 339 140.32 339.08 141.43C339.16 142.54 339.71 155.43 346.8 158.22C351.008 159.868 355.502 160.663 360.02 160.56L361.14 163.69C360.347 164.052 359.639 164.578 359.063 165.233C358.488 165.887 358.057 166.657 357.8 167.49C357.01 170.27 353.5 178.36 359.42 177.28C365.34 176.2 375.61 170.12 375.61 170.12L381.78 165.81C381.78 165.81 381.6 160.02 381.24 157.46C380.88 154.9 380.12 145.83 380.14 145.46C380.16 145.09 380.95 137.46 380.95 137.46C380.95 137.46 384.25 132.99 383.95 130.82C383.65 128.65 381.95 126.03 381.8 124.82C381.65 123.61 359.35 113.32 358.67 113.09C357.99 112.86 338.2 116.67 338.2 116.67L338 125.78Z" fill="white"/>
<path d="M371 127.6C369.18 123.88 367.31 122.29 366.9 119.99C366.49 117.69 376.5 119.6 377.9 119.68C379.3 119.76 374 133.08 372.02 132.68C371.805 130.964 371.464 129.266 371 127.6Z" fill="#333333"/>
<path d="M338.22 134.19C338.22 134.19 332.79 132.73 331.13 122.73C330.456 119.105 330.675 115.371 331.767 111.85C332.86 108.329 334.793 105.127 337.4 102.52C344.47 95.02 358.33 92.98 365.66 96.67C367.76 97.73 368.66 98.53 369.99 98.76C371.66 99.05 372.62 97.76 375.06 98.7C386.06 103.05 386.85 117.34 386 120.32C384.49 125.59 382.54 126.42 382.54 126.42C382.54 126.42 382.14 123.1 376.54 123.51C374.54 123.65 375.22 124.11 373.62 124.32C372.02 124.53 373.62 126.01 371.31 126.84C369.8 127.38 363.89 121.84 363.15 122.06C362.41 122.28 362.35 125.52 360.1 123.51C358.96 122.51 362.98 125.91 360.1 125.91C358.37 125.91 356.74 124.61 355.94 124.77C355.35 124.9 355.88 127.14 355.29 127.18C353.53 127.28 350.49 125.56 349.84 125.18C347.32 123.71 347.56 123.18 346.84 123.5C344.78 124.38 345.77 126.35 343.47 126.19C337.53 125.78 340.84 124.89 339.96 127.59C338.82 131 341.08 134.62 338.22 134.19Z" fill="#333333"/>
<path d="M345.32 120.68C345.763 120.498 346.255 120.476 346.713 120.616C347.17 120.757 347.565 121.051 347.83 121.45C349.11 123.33 351.08 126.51 349.91 126.45C348.24 126.45 344.1 122.67 343.47 122.04C343.11 121.72 344.26 121.13 345.32 120.68Z" fill="#333333"/>
<path d="M336 265.54L318.45 200.72C318.45 200.72 325.45 190.36 332.28 182.39C345.57 166.95 359.04 164.39 359.04 164.39C359.04 164.39 353.33 176.82 359.44 177.32C368.83 178.09 381.8 164.03 381.8 164.03C394.31 167.87 403.15 180.03 408.87 205.79C412.97 224.26 416.87 243.06 416.09 254.94C415.58 262.5 409.21 265.56 401.64 265.58H336" fill="#FF842C"/>
<path d="M190.89 192C190.89 195.17 216.68 271.34 216.68 271.34L338.24 271.41C338.24 271.41 320.47 192.86 316.53 190.25C314.84 189.13 266.25 190.25 229.92 190.45C210.64 190.52 190.87 187.69 190.89 192Z" fill="#333333"/>
<path d="M332.98 265.26L408.8 265.64V270.3L336.01 271.29L332.98 265.26Z" fill="#333333"/>
<path d="M354.19 167.78C364.29 167.99 374.5 168.45 384.59 167.78C384.96 167.78 384.94 166.98 384.59 166.96C374.49 166.29 364.29 166.74 354.18 166.96C353.81 166.96 353.82 167.79 354.18 167.79L354.19 167.78Z" fill="white"/>
<path d="M337.76 179.73C357.46 179.93 377.32 180.59 397 179.73C397.103 179.73 397.203 179.689 397.276 179.616C397.349 179.543 397.39 179.443 397.39 179.34C397.39 179.237 397.349 179.137 397.276 179.064C397.203 178.991 397.103 178.95 397 178.95C377.32 178.09 357.46 178.75 337.76 178.95C337.654 178.95 337.552 178.992 337.477 179.067C337.402 179.142 337.36 179.244 337.36 179.35C337.36 179.456 337.402 179.558 337.477 179.633C337.552 179.708 337.654 179.75 337.76 179.75V179.73Z" fill="white"/>
<path d="M329.09 193.43C354.98 193.62 377.43 194.28 403.32 193.43C403.423 193.43 403.523 193.389 403.596 193.316C403.669 193.243 403.71 193.143 403.71 193.04C403.71 192.937 403.669 192.837 403.596 192.764C403.523 192.691 403.423 192.65 403.32 192.65C377.43 191.78 354.98 192.44 329.09 192.65C328.58 192.65 328.6 193.44 329.09 193.45V193.43Z" fill="white"/>
<path d="M325.6 207.12C354.8 207.29 362 207.3 391.21 207.23C396.9 207.23 401.48 207.23 407.21 207.11C407.313 207.11 407.413 207.069 407.486 206.996C407.559 206.923 407.6 206.823 407.6 206.72C407.6 206.617 407.559 206.517 407.486 206.444C407.413 206.371 407.313 206.33 407.21 206.33C378.04 205.61 371.9 206.06 342.73 206.23L325.63 206.32C325.524 206.32 325.422 206.362 325.347 206.437C325.272 206.512 325.23 206.614 325.23 206.72C325.23 206.826 325.272 206.928 325.347 207.003C325.422 207.078 325.524 207.12 325.63 207.12H325.6Z" fill="white"/>
<path d="M330.75 220.82C360.84 220.98 363.75 220.99 393.86 220.92C399.79 220.92 403.18 220.92 409.11 220.81C409.213 220.81 409.313 220.769 409.386 220.696C409.459 220.623 409.5 220.523 409.5 220.42C409.5 220.317 409.459 220.217 409.386 220.144C409.313 220.071 409.213 220.03 409.11 220.03C379.11 219.3 378.62 219.75 348.56 219.92L330.75 220.02C330.24 220.02 330.26 220.81 330.75 220.82Z" fill="white"/>
<path d="M332 234.51C362.69 234.67 364.93 234.69 395.62 234.61C401.55 234.61 405.72 234.61 411.62 234.5C411.723 234.5 411.823 234.459 411.896 234.386C411.969 234.313 412.01 234.213 412.01 234.11C412.01 234.007 411.969 233.907 411.896 233.834C411.823 233.761 411.723 233.72 411.62 233.72C380.96 232.99 365.87 233.45 335.21 233.62C329.28 233.62 337.9 233.68 331.97 233.71C331.864 233.71 331.762 233.752 331.687 233.827C331.612 233.902 331.57 234.004 331.57 234.11C331.57 234.216 331.612 234.318 331.687 234.393C331.762 234.468 331.864 234.51 331.97 234.51H332Z" fill="white"/>
<path d="M335.14 248.2C361.2 248.37 355.71 248.38 381.77 248.31C387.04 248.31 392.31 248.31 397.58 248.19C397.683 248.19 397.783 248.149 397.856 248.076C397.929 248.003 397.97 247.903 397.97 247.8C397.97 247.697 397.929 247.597 397.856 247.524C397.783 247.451 397.683 247.41 397.58 247.41C371.58 246.69 376.98 247.14 350.95 247.31L335.14 247.41C335.046 247.425 334.96 247.473 334.899 247.545C334.837 247.618 334.803 247.71 334.803 247.805C334.803 247.9 334.837 247.992 334.899 248.065C334.96 248.137 335.046 248.185 335.14 248.2Z" fill="white"/>
<path d="M340.41 261.9C374.63 262.06 372.04 262.07 406.26 262C412.64 262 419.02 262 425.39 261.89C425.493 261.89 425.593 261.849 425.666 261.776C425.739 261.703 425.78 261.603 425.78 261.5C425.78 261.397 425.739 261.297 425.666 261.224C425.593 261.151 425.493 261.11 425.39 261.11C391.2 260.38 393.74 260.84 359.54 261.01L340.41 261.1C340.304 261.1 340.202 261.142 340.127 261.217C340.052 261.292 340.01 261.394 340.01 261.5C340.01 261.606 340.052 261.708 340.127 261.783C340.202 261.858 340.304 261.9 340.41 261.9Z" fill="white"/>
<path d="M435.63 221C432.91 219.17 426.88 218.75 425.24 221.66C425.081 221.948 424.967 222.258 424.9 222.58C424.752 222.891 424.686 223.236 424.71 223.58C425.19 229.44 425.17 233.17 425.37 239.05C425.43 240.63 425.14 242.54 427.84 242.58C430.54 242.62 431.75 241.97 433.52 241.58C434.276 241.514 434.993 241.221 435.58 240.74C437.27 239.08 436.63 235.45 436.58 233.39C436.58 229.96 437.46 226.92 437.87 223.57C438.12 221.84 437.28 222.12 435.63 221Z" fill="#FF842C"/>
<path d="M344 142.26H341.8C341.272 142.297 340.778 142.532 340.416 142.919C340.055 143.306 339.854 143.816 339.854 144.345C339.854 144.874 340.055 145.384 340.416 145.771C340.778 146.158 341.272 146.393 341.8 146.43H344C344.286 146.45 344.573 146.411 344.843 146.315C345.113 146.219 345.361 146.069 345.57 145.873C345.78 145.678 345.947 145.441 346.061 145.178C346.176 144.915 346.234 144.632 346.234 144.345C346.234 144.058 346.176 143.775 346.061 143.512C345.947 143.249 345.78 143.012 345.57 142.817C345.361 142.621 345.113 142.471 344.843 142.375C344.573 142.279 344.286 142.24 344 142.26Z" fill="#FF842C"/>
<path d="M363.24 140.75C361.685 140.305 360.029 140.365 358.51 140.92C357.986 141.081 357.544 141.435 357.272 141.911C357.001 142.386 356.922 142.948 357.05 143.48C357.202 144.011 357.556 144.462 358.037 144.735C358.517 145.008 359.086 145.082 359.62 144.94C360.405 144.568 361.302 144.508 362.13 144.77C364.72 145.5 365.82 141.48 363.24 140.75Z" fill="#FF842C"/>
<path d="M193.06 191.63C213.55 192.17 234.06 192.11 254.56 192.06C275.06 192.01 295.56 192.24 316.04 191.52C316.192 191.501 316.332 191.427 316.433 191.312C316.535 191.196 316.591 191.048 316.591 190.895C316.591 190.742 316.535 190.594 316.433 190.478C316.332 190.363 316.192 190.289 316.04 190.27C295.56 189.55 275.04 189.78 254.54 189.73C234.04 189.68 213.54 189.61 193.05 190.16C192.87 190.181 192.704 190.268 192.583 190.403C192.462 190.539 192.396 190.714 192.396 190.895C192.396 191.076 192.462 191.251 192.583 191.387C192.704 191.522 192.87 191.609 193.05 191.63H193.06Z" fill="#333333"/>
<path d="M238.18 197.9C240.432 198.337 242.731 198.485 245.02 198.34C247.23 198.34 249.68 198.51 251.79 197.78C251.917 197.739 252.028 197.659 252.107 197.551C252.185 197.444 252.228 197.314 252.228 197.18C252.228 197.047 252.185 196.917 252.107 196.809C252.028 196.701 251.917 196.621 251.79 196.58C249.67 195.84 247.2 196.04 244.99 196.02C242.71 195.874 240.421 196.025 238.18 196.47C238.028 196.518 237.895 196.613 237.801 196.742C237.707 196.871 237.656 197.026 237.656 197.185C237.656 197.344 237.707 197.5 237.801 197.628C237.895 197.757 238.028 197.852 238.18 197.9Z" fill="white"/>
<path d="M204.45 197.9C207.637 198.336 210.857 198.484 214.07 198.34C217.24 198.34 220.54 198.51 223.64 197.78C223.767 197.739 223.878 197.659 223.957 197.551C224.035 197.444 224.078 197.314 224.078 197.18C224.078 197.047 224.035 196.916 223.957 196.809C223.878 196.701 223.767 196.621 223.64 196.58C220.54 195.84 217.21 196.04 214.05 196.02C210.843 195.879 207.63 196.03 204.45 196.47C203.73 196.6 203.8 197.78 204.45 197.9Z" fill="white"/>
<path d="M123.9 261.36C135.83 261.87 147.79 261.83 159.74 261.79C159.894 261.786 160.045 261.752 160.185 261.689C160.326 261.627 160.453 261.537 160.559 261.426C160.664 261.315 160.747 261.183 160.802 261.04C160.858 260.896 160.884 260.744 160.88 260.59C160.876 260.436 160.842 260.285 160.779 260.144C160.717 260.004 160.628 259.877 160.516 259.771C160.405 259.666 160.274 259.583 160.13 259.528C159.987 259.472 159.834 259.446 159.68 259.45H155.68C155.392 259.483 155.127 259.623 154.937 259.842C154.747 260.061 154.646 260.343 154.654 260.632C154.661 260.922 154.777 261.198 154.978 261.407C155.179 261.616 155.451 261.742 155.74 261.76C167.67 261.76 179.64 261.91 191.56 261.23C191.724 261.23 191.882 261.165 191.998 261.048C192.115 260.932 192.18 260.774 192.18 260.61C192.18 260.445 192.115 260.288 191.998 260.172C191.882 260.055 191.724 259.99 191.56 259.99C179.63 259.3 167.66 259.5 155.71 259.45C155.422 259.483 155.157 259.623 154.967 259.842C154.777 260.061 154.676 260.343 154.684 260.632C154.691 260.922 154.807 261.198 155.008 261.407C155.209 261.616 155.481 261.742 155.77 261.76H159.77C159.924 261.756 160.075 261.722 160.215 261.659C160.356 261.597 160.483 261.507 160.589 261.396C160.694 261.285 160.777 261.153 160.832 261.01C160.888 260.866 160.914 260.714 160.91 260.56C160.906 260.406 160.872 260.255 160.809 260.114C160.747 259.974 160.658 259.847 160.546 259.741C160.435 259.636 160.304 259.553 160.16 259.498C160.017 259.442 159.864 259.416 159.71 259.42C147.77 259.37 135.82 259.34 123.89 259.85C123.694 259.85 123.506 259.928 123.367 260.067C123.228 260.205 123.15 260.394 123.15 260.59C123.15 260.786 123.228 260.974 123.367 261.113C123.506 261.252 123.694 261.33 123.89 261.33L123.9 261.36Z" fill="#333333"/>
<path d="M144.82 260.41C143.21 253.15 141 246.03 138.82 238.92C136.64 231.81 134 224.8 131.9 217.71C131.852 217.552 131.744 217.42 131.598 217.342C131.453 217.264 131.283 217.247 131.125 217.295C130.967 217.343 130.835 217.451 130.757 217.597C130.679 217.742 130.662 217.912 130.71 218.07C132.84 225.16 134.5 232.47 136.6 239.59C138.7 246.71 140.76 253.89 143.41 260.83C143.481 260.998 143.611 261.134 143.776 261.212C143.941 261.29 144.129 261.304 144.303 261.252C144.478 261.2 144.627 261.085 144.723 260.93C144.818 260.774 144.853 260.589 144.82 260.41Z" fill="#333333"/>
<path d="M315.29 193.05C318.82 206.19 322.29 219.33 325.95 232.45C327.72 238.9 329.56 245.32 331.38 251.76C333.24 258.36 334.71 265.29 337.38 271.63C337.75 272.5 339.38 272.45 339.2 271.34C338.2 264.9 336.01 258.61 334.2 252.34C332.31 245.68 330.46 239.02 328.54 232.34C324.71 219.05 320.76 205.8 316.83 192.54C316.764 192.338 316.622 192.17 316.434 192.072C316.246 191.974 316.028 191.953 315.825 192.015C315.622 192.076 315.451 192.215 315.349 192.401C315.247 192.587 315.222 192.806 315.28 193.01L315.29 193.05Z" fill="#333333"/>
<path d="M212.36 178.91C193.387 178.61 174.42 178.453 155.46 178.44C153.01 178.44 149.27 178.8 147.46 178.8C147.231 178.824 147.019 178.931 146.866 179.102C146.712 179.273 146.626 179.495 146.626 179.725C146.626 179.955 146.712 180.177 146.866 180.348C147.019 180.518 147.231 180.626 147.46 180.65C146.69 180.65 148.52 180.8 149.02 180.84C150.5 180.94 152.02 180.99 153.49 181.01C158.68 181.06 163.88 181.01 169.07 181.01C180.75 181.01 192.43 180.93 204.07 180.68C206.83 180.62 209.59 180.59 212.34 180.54C212.555 180.54 212.761 180.455 212.913 180.303C213.065 180.151 213.15 179.945 213.15 179.73C213.15 179.515 213.065 179.309 212.913 179.157C212.761 179.005 212.555 178.92 212.34 178.92L212.36 178.91Z" fill="#333333"/>
<path d="M212.36 173.7C193.387 173.387 174.42 173.227 155.46 173.22C153.01 173.22 149.27 173.58 147.46 173.58C147.231 173.604 147.019 173.712 146.866 173.882C146.712 174.053 146.626 174.275 146.626 174.505C146.626 174.735 146.712 174.957 146.866 175.128C147.019 175.298 147.231 175.406 147.46 175.43C146.69 175.43 148.52 175.59 149.02 175.62C150.5 175.73 152.02 175.78 153.49 175.8C158.68 175.8 163.88 175.8 169.07 175.8C180.75 175.8 192.43 175.72 204.07 175.47C206.83 175.41 209.59 175.37 212.34 175.33C212.555 175.33 212.761 175.245 212.913 175.093C213.065 174.941 213.15 174.735 213.15 174.52C213.15 174.305 213.065 174.099 212.913 173.947C212.761 173.795 212.555 173.71 212.34 173.71L212.36 173.7Z" fill="#333333"/>
<path d="M191.57 195.4C195.26 207.4 198.91 219.52 202.66 231.57C204.56 237.65 206.42 243.75 208.37 249.83C210.26 255.73 211.86 261.83 214.3 267.57C214.371 267.749 214.506 267.896 214.68 267.98C214.853 268.064 215.052 268.08 215.237 268.025C215.422 267.97 215.579 267.847 215.678 267.681C215.777 267.516 215.809 267.319 215.77 267.13C214.51 261.06 212.32 255.13 210.5 249.18C208.64 243.08 206.7 237.01 204.79 230.92C201.01 218.92 197.13 206.92 193.26 194.92C193.191 194.696 193.036 194.508 192.829 194.399C192.621 194.289 192.379 194.266 192.155 194.335C191.931 194.404 191.743 194.559 191.634 194.766C191.524 194.974 191.501 195.216 191.57 195.44V195.4Z" fill="#333333"/>
<path d="M124.76 271.46C124.84 269.91 126.06 259.8 123.86 259.85C121.66 259.9 122.86 269.93 123 271.5C123 271.733 123.093 271.957 123.258 272.122C123.423 272.287 123.647 272.38 123.88 272.38C124.113 272.38 124.337 272.287 124.502 272.122C124.667 271.957 124.76 271.733 124.76 271.5V271.46Z" fill="#333333"/>
<path d="M193.29 271.46C193.37 269.91 194.6 259.8 192.39 259.85C190.18 259.9 191.45 269.93 191.53 271.5C191.53 271.733 191.623 271.957 191.788 272.122C191.953 272.287 192.177 272.38 192.41 272.38C192.643 272.38 192.867 272.287 193.032 272.122C193.197 271.957 193.29 271.733 193.29 271.5V271.46Z" fill="#333333"/>
<path d="M91 272.35C126.793 272.51 162.583 272.623 198.37 272.69C236.583 272.737 274.793 272.7 313 272.58C321.18 272.58 330.66 272.33 338.27 272.39C339.59 272.39 339.54 270.34 338.21 270.33C315.95 270.16 291.86 270.08 269.01 270.04C227.23 269.98 185.45 269.86 143.67 270.04C126.103 270.14 108.53 270.23 90.95 270.31C90.6848 270.31 90.4304 270.415 90.2429 270.603C90.0554 270.79 89.95 271.045 89.95 271.31C89.95 271.575 90.0554 271.83 90.2429 272.017C90.4304 272.205 90.6848 272.31 90.95 272.31L91 272.35Z" fill="#333333"/>
<path d="M73.33 272.33C76.17 272.69 79.51 273.21 82.33 272.33C82.5952 272.33 82.8496 272.225 83.0371 272.037C83.2246 271.85 83.33 271.595 83.33 271.33C83.33 271.065 83.2246 270.81 83.0371 270.623C82.8496 270.435 82.5952 270.33 82.33 270.33C79.65 269.49 76.38 269.98 73.64 270.33C72.64 270.46 72.21 272.14 73.42 272.33H73.33Z" fill="#333333"/>
<path d="M493 272.26C495.05 272.42 497.08 272.52 499.15 272.53C500.5 272.53 500.45 270.44 499.09 270.43H498.19C496.82 270.43 496.88 272.54 498.24 272.55C500.838 272.696 503.444 272.585 506.02 272.22C506.177 272.171 506.314 272.073 506.411 271.941C506.508 271.809 506.56 271.649 506.56 271.485C506.56 271.321 506.508 271.161 506.411 271.029C506.314 270.897 506.177 270.799 506.02 270.75C503.437 270.388 500.824 270.281 498.22 270.43C497.939 270.437 497.672 270.555 497.478 270.758C497.284 270.962 497.178 271.234 497.185 271.515C497.192 271.796 497.31 272.063 497.513 272.257C497.717 272.451 497.989 272.557 498.27 272.55H499.18C499.458 272.542 499.722 272.424 499.914 272.221C500.105 272.019 500.208 271.749 500.2 271.47C500.192 271.192 500.074 270.928 499.871 270.736C499.669 270.545 499.398 270.442 499.12 270.45C497.07 270.45 495.04 270.56 492.99 270.72C492.783 270.72 492.585 270.802 492.438 270.948C492.292 271.095 492.21 271.293 492.21 271.5C492.21 271.707 492.292 271.905 492.438 272.052C492.585 272.198 492.783 272.28 492.99 272.28L493 272.26Z" fill="#333333"/>
<path d="M329.94 272.15H332.33C332.51 272.15 332.683 272.078 332.811 271.951C332.938 271.823 333.01 271.65 333.01 271.47C333.01 271.29 332.938 271.117 332.811 270.989C332.683 270.862 332.51 270.79 332.33 270.79H324.72L312.63 270.73H309.83C308.83 270.73 308.83 272.3 309.83 272.31C316.41 272.31 322.99 272.39 329.56 272.4C355.47 272.47 381.37 272.4 407.28 272.4C434.01 272.4 460.79 272.7 487.52 272.13C487.692 272.13 487.858 272.062 487.98 271.94C488.102 271.818 488.17 271.652 488.17 271.48C488.17 271.308 488.102 271.142 487.98 271.02C487.858 270.899 487.692 270.83 487.52 270.83C446.57 269.95 405.52 270.56 364.58 270.58C348.22 270.58 331.86 270.58 315.51 270.67H309.82C309.611 270.67 309.41 270.753 309.261 270.901C309.113 271.05 309.03 271.25 309.03 271.46C309.03 271.67 309.113 271.87 309.261 272.019C309.41 272.167 309.611 272.25 309.82 272.25H317.41L329.5 272.19H332.31C332.49 272.19 332.663 272.118 332.791 271.991C332.918 271.863 332.99 271.69 332.99 271.51C332.99 271.33 332.918 271.157 332.791 271.029C332.663 270.902 332.49 270.83 332.31 270.83H329.91C329.06 270.83 329.09 272.15 329.91 272.16L329.94 272.15Z" fill="#333333"/>
<path d="M336 266.21C348.9 266.37 361.8 266.45 374.7 266.45C387.56 266.45 400.56 266.91 413.39 266.19C413.562 266.19 413.728 266.121 413.85 266C413.972 265.878 414.04 265.712 414.04 265.54C414.04 265.368 413.972 265.202 413.85 265.08C413.728 264.958 413.562 264.89 413.39 264.89C400.55 264.17 387.55 264.62 374.69 264.63C361.83 264.64 348.89 264.71 336 264.88C335.838 264.9 335.688 264.979 335.58 265.101C335.472 265.224 335.412 265.381 335.412 265.545C335.412 265.708 335.472 265.866 335.58 265.989C335.688 266.111 335.838 266.19 336 266.21Z" fill="#333333"/>
<path d="M337.31 127.44C338.83 138.98 335.69 155.51 349.31 160.89C357.5 164.13 370.31 160.89 374.14 152.28C374.42 151.64 373.62 150.94 373.14 151.52C367.02 158.24 357.14 162.94 348.38 158.05C337.74 152.12 340.85 137.13 339.12 127.15C338.95 126.15 337.2 126.42 337.34 127.44H337.31Z" fill="#333333"/>
<path d="M374.3 124.73C378.83 123.35 383.54 126.56 382.96 131.51C382.38 136.46 378.08 137.06 374.07 136.91C373.16 136.91 372.99 138.11 373.67 138.53C378.67 141.62 384.77 136.4 384.9 131.2C384.911 129.862 384.601 128.541 383.996 127.347C383.392 126.154 382.511 125.122 381.426 124.339C380.341 123.556 379.084 123.044 377.761 122.845C376.438 122.647 375.087 122.769 373.82 123.2C373.631 123.28 373.477 123.426 373.39 123.612C373.303 123.798 373.287 124.01 373.347 124.207C373.407 124.403 373.537 124.571 373.713 124.677C373.889 124.782 374.098 124.819 374.3 124.78V124.73Z" fill="#333333"/>
<path d="M357.25 129.49C357.116 131.739 357.38 133.993 358.03 136.15C358.29 136.84 359.46 136.96 359.59 136.15C359.833 133.834 359.654 131.492 359.06 129.24C358.83 128.18 357.28 128.53 357.25 129.53V129.49Z" fill="#333333"/>
<path d="M341.65 130.31C341.447 131.371 341.363 132.451 341.4 133.53C341.258 134.603 341.33 135.694 341.61 136.74C341.83 137.28 342.73 137.56 343.02 136.89C343.339 135.862 343.444 134.78 343.33 133.71C343.384 132.558 343.307 131.404 343.1 130.27C343.052 130.116 342.955 129.981 342.825 129.885C342.694 129.79 342.537 129.738 342.375 129.738C342.213 129.738 342.056 129.79 341.925 129.885C341.795 129.981 341.699 130.116 341.65 130.27V130.31Z" fill="#333333"/>
<path d="M348.63 133.13C348.52 136.9 343.7 141.75 346.98 145.4C348.71 147.32 352.89 146.96 352.8 143.85C352.8 143.11 351.69 142.54 351.18 143.23C350.25 144.49 348.73 144.6 348.04 142.95C347.35 141.3 348.04 139.95 348.64 138.49C349.465 136.812 349.899 134.97 349.91 133.1C349.91 132.93 349.843 132.767 349.723 132.647C349.603 132.527 349.44 132.46 349.27 132.46C349.1 132.46 348.938 132.527 348.817 132.647C348.697 132.767 348.63 132.93 348.63 133.1V133.13Z" fill="#333333"/>
<path d="M353.92 152.23C354.611 152.385 355.327 152.386 356.018 152.234C356.709 152.082 357.358 151.78 357.92 151.35C358.97 150.56 359.92 149.15 359.56 147.77C359.515 147.643 359.436 147.53 359.329 147.447C359.223 147.363 359.096 147.311 358.961 147.298C358.827 147.284 358.691 147.309 358.571 147.37C358.45 147.43 358.349 147.524 358.28 147.64C357.966 148.476 357.51 149.251 356.93 149.93C356.579 150.26 356.159 150.506 355.701 150.652C355.242 150.797 354.756 150.838 354.28 150.77C353.28 150.61 352.96 152.01 353.91 152.23H353.92Z" fill="#333333"/>
<path d="M346.05 140.42C352.34 134.64 346.05 121.04 337.36 125.61C333.27 127.77 331.67 134.29 333.96 138.2C336.37 142.3 342.48 144.09 345.96 140.29C346.093 140.187 346.179 140.035 346.199 139.868C346.22 139.701 346.173 139.533 346.07 139.4C345.967 139.267 345.815 139.181 345.648 139.161C345.481 139.14 345.313 139.187 345.18 139.29C341.74 140.95 336.87 140.14 335.36 136.17C334.2 133.09 335.62 127.9 338.98 126.7C346.19 124.12 349.69 135 344.92 139.26C344.11 140 345.29 141.13 346.05 140.42Z" fill="#333333"/>
<path d="M364.17 139.52C371.78 133.25 364.03 120.29 354.88 124.85C350.53 127.02 348.09 133.7 350.98 137.85C353.87 142 360.39 143 363.98 139.38C364.39 138.96 363.98 138.09 363.35 138.38C360.02 139.87 355.54 140.05 352.94 137.01C350.17 133.77 352.36 127.79 356.03 126.15C363.57 122.8 369.22 133.38 363.1 138.29C363.019 138.36 362.953 138.446 362.905 138.542C362.858 138.637 362.829 138.742 362.822 138.848C362.814 138.955 362.828 139.062 362.862 139.164C362.896 139.265 362.95 139.359 363.02 139.44C363.09 139.521 363.176 139.587 363.272 139.635C363.367 139.682 363.472 139.711 363.578 139.718C363.685 139.726 363.792 139.712 363.894 139.678C363.995 139.644 364.089 139.59 364.17 139.52Z" fill="#333333"/>
<path d="M157.31 138.6C161.21 135.669 164.21 131.704 165.968 127.154C167.727 122.604 168.175 117.652 167.26 112.86C166.343 108.104 164.088 103.709 160.76 100.191C157.431 96.6733 153.168 94.1784 148.47 93C138.96 90.68 127.33 92.93 121.18 101C114.18 110.26 113.08 125.53 120.72 134.66C129.82 145.54 146.37 147.28 157.33 138.33C157.88 137.88 157.14 137 156.55 137.33C146.55 143.73 133.37 143.51 124.4 135.33C115.66 127.39 115.69 113.22 121.66 103.53C126.66 95.35 136.79 92.59 145.92 93.95C150.297 94.6076 154.403 96.4758 157.775 99.3437C161.146 102.212 163.649 105.965 165 110.18C166.537 115.014 166.539 120.206 165.004 125.041C163.469 129.877 160.474 134.117 156.43 137.18C155.64 137.86 156.48 139.25 157.31 138.6Z" fill="#333333"/>
<path d="M371.36 100.38C372.038 99.8802 372.661 99.3104 373.22 98.68C373.99 97.89 374.94 97.8 375.93 97.39C376.143 97.3069 376.321 97.1534 376.434 96.9551C376.548 96.7568 376.59 96.5256 376.553 96.3C376.517 96.0744 376.405 95.868 376.235 95.7152C376.065 95.5624 375.848 95.4723 375.62 95.46C374.974 95.428 374.328 95.5257 373.72 95.7472C373.112 95.9688 372.554 96.3097 372.08 96.75C371.508 97.4002 370.897 98.0147 370.25 98.59C369.13 99.35 370.25 101.13 371.36 100.38Z" fill="#333333"/>
<path d="M359.14 160.84C359.31 161.23 359.43 161.65 359.59 162.04C359.69 162.26 359.59 161.91 359.59 162.04C359.585 162.103 359.585 162.167 359.59 162.23C359.621 162.65 359.741 163.058 359.943 163.427C360.144 163.796 360.423 164.118 360.76 164.37C361.32 164.76 361.91 164.17 361.96 163.64C361.958 163.178 361.859 162.721 361.67 162.3L361.58 162.01C361.58 162.16 361.58 162.2 361.58 162.01C361.449 161.305 361.195 160.628 360.83 160.01C360.35 159.06 358.68 159.79 359.11 160.79L359.14 160.84Z" fill="#333333"/>
<path d="M376.86 130C377.149 130.135 377.389 130.355 377.55 130.63C377.711 130.905 377.784 131.222 377.76 131.54C377.69 132.28 377.14 132.54 376.71 133.04C376.624 133.137 376.568 133.258 376.548 133.386C376.528 133.515 376.545 133.646 376.598 133.765C376.651 133.884 376.736 133.986 376.845 134.057C376.953 134.129 377.08 134.168 377.21 134.17C377.815 134.048 378.364 133.731 378.77 133.266C379.177 132.802 379.419 132.216 379.46 131.6C379.516 130.958 379.383 130.315 379.077 129.748C378.771 129.181 378.307 128.716 377.74 128.41C377.531 128.309 377.29 128.291 377.068 128.362C376.846 128.432 376.66 128.585 376.547 128.788C376.435 128.992 376.404 129.231 376.462 129.456C376.521 129.682 376.663 129.876 376.86 130Z" fill="#333333"/>
<path d="M380.28 139.78C379.21 143.885 378.969 148.161 379.57 152.36C380.01 156.17 380.01 160.56 381.07 164.21C381.116 164.371 381.213 164.512 381.347 164.612C381.48 164.713 381.643 164.767 381.81 164.767C381.977 164.767 382.14 164.713 382.273 164.612C382.407 164.512 382.504 164.371 382.55 164.21C383.4 160.83 382.18 156.84 381.7 153.46C380.97 149.053 380.93 144.559 381.58 140.14C381.624 139.968 381.597 139.785 381.506 139.632C381.415 139.479 381.267 139.369 381.095 139.325C380.923 139.281 380.74 139.308 380.587 139.399C380.434 139.49 380.324 139.638 380.28 139.81V139.78Z" fill="#333333"/>
<path d="M358.23 163.89C356.87 167.12 353.85 173.45 356.85 176.68C359.05 179.05 363.08 177.77 365.62 176.8C369.874 175.1 373.878 172.829 377.52 170.05C379.1 168.88 383.11 166.36 382.92 163.96C382.81 162.54 380.57 162.59 380.69 164.02C380.78 165.11 376.93 167.8 376.02 168.52C373.267 170.722 370.291 172.629 367.14 174.21C365.14 175.21 361.06 177.21 358.79 175.89C355.6 173.96 358.93 167.06 359.88 164.8C360.34 163.69 358.7 162.8 358.23 163.89Z" fill="#333333"/>
<path d="M357.84 110.63C354.61 115.84 354.84 122.43 360.68 125.83C361.29 126.19 362.11 125.4 361.68 124.83C360.13 122.73 358.09 121.14 357.4 118.49C356.71 115.84 357.56 113.49 358.7 111.12C358.751 111.01 358.758 110.884 358.72 110.769C358.682 110.653 358.601 110.556 358.495 110.498C358.388 110.44 358.263 110.424 358.145 110.454C358.028 110.484 357.926 110.558 357.86 110.66L357.84 110.63Z" fill="#333333"/>
<path d="M360.79 110.91C358.73 115.58 359.48 123.38 365.05 125.38C365.128 125.395 365.209 125.384 365.281 125.35C365.353 125.316 365.413 125.261 365.452 125.191C365.49 125.121 365.506 125.041 365.497 124.962C365.488 124.883 365.454 124.809 365.4 124.75C361.05 121.36 359.17 116.45 361.24 111.08C361.33 110.83 360.9 110.66 360.79 110.91Z" fill="#333333"/>
<path d="M361 141.5C361.185 142.315 361.471 143.105 361.85 143.85C362.12 144.31 362.9 143.98 362.71 143.47C362.374 142.697 361.944 141.968 361.43 141.3C361.398 141.252 361.35 141.218 361.295 141.202C361.24 141.187 361.181 141.192 361.129 141.216C361.078 141.24 361.036 141.282 361.012 141.334C360.988 141.386 360.984 141.445 361 141.5Z" fill="#333333"/>
<path d="M339.1 112.86C336.59 117.08 336.1 126.32 342.1 128.13C342.68 128.31 343.3 127.54 342.9 127.03C341.47 125.19 339.9 123.96 339.25 121.58C338.451 118.838 338.689 115.897 339.92 113.32C339.971 113.21 339.978 113.084 339.94 112.969C339.902 112.853 339.821 112.756 339.715 112.698C339.608 112.64 339.483 112.624 339.365 112.654C339.248 112.684 339.146 112.758 339.08 112.86H339.1Z" fill="#333333"/>
<path d="M365.67 95.12C366.88 95.12 368 96.48 368.54 97.39C368.982 98.136 369.139 99.0173 368.98 99.87C368.875 100.253 368.875 100.657 368.98 101.04C369.015 101.146 369.074 101.242 369.151 101.323C369.229 101.403 369.323 101.465 369.427 101.505C369.532 101.544 369.644 101.559 369.755 101.55C369.866 101.54 369.974 101.506 370.07 101.45C371.73 100.45 370.76 97.35 369.81 96.22C368.86 95.09 367.07 93.86 365.48 94.22C364.94 94.33 365.1 95.16 365.63 95.15L365.67 95.12Z" fill="#333333"/>
<path d="M366.55 131C368.43 129.85 370.34 128.74 372.18 127.53C373.69 126.53 376.18 125.42 377.18 123.87C377.244 123.754 377.275 123.624 377.272 123.491C377.269 123.359 377.231 123.231 377.162 123.118C377.093 123.005 376.995 122.913 376.879 122.85C376.763 122.787 376.632 122.756 376.5 122.76C374.65 123.05 372.64 124.76 371.1 125.76C369.24 126.94 367.44 128.22 365.61 129.46C365.404 129.593 365.26 129.801 365.208 130.041C365.157 130.28 365.202 130.529 365.335 130.735C365.468 130.941 365.676 131.085 365.916 131.137C366.155 131.188 366.404 131.143 366.61 131.01L366.55 131Z" fill="#333333"/>
<path d="M347.78 133.37C348.28 133.46 348.78 133.58 349.31 133.63C350.03 133.771 350.778 133.643 351.41 133.27C351.563 133.11 351.649 132.897 351.649 132.675C351.649 132.453 351.563 132.24 351.41 132.08C351.04 131.64 349.94 131.55 349.41 131.53C348.88 131.51 348.46 131.53 347.98 131.53C346.98 131.53 346.75 133.15 347.79 133.33L347.78 133.37Z" fill="#333333"/>
<path d="M267.7 152.52C265.04 154.19 217.12 154.59 215.96 152.52C214.8 150.45 214.88 125.52 215.96 123.4C217.04 121.28 265.88 121.66 267.7 123.4C269.52 125.14 270.36 150.86 267.7 152.52Z" fill="#FF842C"/>
<path d="M243.94 154.84L243.87 160.52L245.26 159.68C243.95 158.68 242.64 157.74 241.32 156.79C240.43 156.15 239.51 155.57 238.58 154.99C238.26 154.79 237.94 154.57 237.58 154.39C237.47 154.33 236.95 154.05 237.18 154.21C236.45 153.7 235.79 154.92 236.51 155.43C235.99 155.06 236.51 155.5 236.65 155.65C236.79 155.8 237.24 156.13 237.53 156.37C238.41 157.08 239.28 157.78 240.2 158.44C241.57 159.44 242.95 160.36 244.33 161.31C244.93 161.74 245.72 161.12 245.71 160.47L245.65 154.8C245.65 154.569 245.558 154.348 245.395 154.185C245.232 154.022 245.011 153.93 244.78 153.93C244.549 153.93 244.328 154.022 244.165 154.185C244.002 154.348 243.91 154.569 243.91 154.8L243.94 154.84Z" fill="#333333"/>
<path d="M234.87 131.65C233.09 133.55 231.25 135.41 229.54 137.37C229.378 137.538 229.288 137.762 229.288 137.995C229.288 138.228 229.378 138.452 229.54 138.62C230.88 140.04 232.34 142.32 234.15 143.1C234.68 143.32 235.47 142.89 235.21 142.24C234.45 140.31 232.21 138.78 230.76 137.34V138.59C232.41 136.59 233.93 134.41 235.5 132.31C235.86 131.83 235.24 131.19 234.81 131.65H234.87Z" fill="#333333"/>
<path d="M247.8 132.23C249.35 134.31 250.8 136.43 252.48 138.45L252.59 137.37C251.21 138.74 248.97 140.26 248.24 142.09C248.03 142.6 248.43 143.44 249.1 143.16C251.01 142.33 252.47 140.09 253.88 138.59C254.042 138.422 254.132 138.198 254.132 137.965C254.132 137.732 254.042 137.508 253.88 137.34C252.18 135.34 250.35 133.53 248.57 131.63C248.21 131.24 247.51 131.79 247.84 132.23H247.8Z" fill="#333333"/>
<path d="M242.82 128.76C241.82 131.98 240.82 135.19 239.82 138.42C239.21 140.42 238.59 142.51 237.97 144.55C237.73 145.32 237.16 146.4 237.39 147.22C237.433 147.351 237.51 147.469 237.611 147.562C237.713 147.655 237.837 147.721 237.971 147.753C238.105 147.785 238.245 147.783 238.378 147.745C238.511 147.708 238.632 147.637 238.73 147.54C239.35 147 239.46 145.71 239.67 144.97C240.26 142.92 240.87 140.88 241.47 138.83C242.41 135.6 243.31 132.35 244.23 129.11C244.48 128.21 243.1 127.88 242.82 128.76Z" fill="#333333"/>
<path d="M358.6 142.65L358.88 143.41C358.979 143.753 359.106 144.088 359.26 144.41C359.331 144.525 359.441 144.609 359.57 144.648C359.699 144.687 359.838 144.677 359.96 144.62C360.081 144.562 360.179 144.463 360.235 144.341C360.292 144.218 360.304 144.08 360.27 143.95C360.181 143.632 360.067 143.321 359.93 143.02L359.68 142.29C359.45 141.6 358.35 141.93 358.6 142.61V142.65Z" fill="#333333"/>
<path d="M341.12 144L341.4 144.76C341.499 145.103 341.626 145.438 341.78 145.76C341.851 145.875 341.961 145.959 342.09 145.998C342.219 146.037 342.358 146.027 342.48 145.97C342.6 145.91 342.696 145.811 342.753 145.69C342.809 145.568 342.822 145.43 342.79 145.3C342.696 144.983 342.582 144.673 342.45 144.37L342.2 143.64C341.97 142.95 340.87 143.28 341.12 143.96V144Z" fill="#333333"/>
<path d="M343.34 143.45L343.52 143.92C343.52 144.04 343.61 144.15 343.65 144.27C343.672 144.393 343.716 144.512 343.78 144.62C343.844 144.724 343.94 144.804 344.054 144.848C344.168 144.891 344.293 144.896 344.41 144.86C344.526 144.825 344.628 144.754 344.7 144.657C344.772 144.559 344.811 144.441 344.81 144.32C344.767 144.071 344.69 143.828 344.58 143.6L344.42 143.12C344.398 143.049 344.363 142.983 344.316 142.926C344.269 142.869 344.211 142.821 344.145 142.786C344.08 142.752 344.008 142.73 343.934 142.723C343.86 142.716 343.786 142.723 343.715 142.745C343.644 142.767 343.578 142.802 343.521 142.849C343.464 142.896 343.416 142.954 343.382 143.02C343.347 143.085 343.325 143.157 343.318 143.231C343.311 143.305 343.318 143.379 343.34 143.45Z" fill="#333333"/>
<path d="M377.38 195.16C378.11 202.33 379.1 209.47 379.93 216.63C380.26 219.53 380.55 222.43 380.69 225.35C380.85 228.8 380.48 232.44 381 235.84C381.12 236.65 382.43 237.01 382.59 236.02C383.59 230.02 382.33 223.08 381.71 217.02C380.94 209.68 379.87 202.39 378.91 195.07C378.79 194.07 377.28 194.07 377.38 195.07V195.16Z" fill="#333333"/>
<path d="M338.27 243.72C346.74 242.87 355.27 242.72 363.78 242.41C368.31 242.25 372.83 242.08 377.35 241.86C380.59 241.7 384.48 241.81 387.58 240.8C387.761 240.741 387.914 240.619 388.013 240.456C388.112 240.294 388.15 240.101 388.12 239.913C388.09 239.726 387.994 239.555 387.849 239.431C387.704 239.308 387.52 239.24 387.33 239.24C383.85 238.87 379.92 239.48 376.43 239.64C372.03 239.84 367.63 239.98 363.24 240.15C354.9 240.47 346.52 240.66 338.24 241.52C336.85 241.66 336.89 243.86 338.3 243.72H338.27Z" fill="#333333"/>
<path d="M337.63 184.7C334.714 189.564 332.251 194.686 330.27 200C328.27 205.55 325.6 212 325.34 217.95C325.348 218.143 325.418 218.328 325.54 218.477C325.661 218.627 325.829 218.733 326.016 218.779C326.203 218.825 326.4 218.809 326.578 218.734C326.755 218.658 326.903 218.527 327 218.36C329.6 213.23 330.41 206.94 332.22 201.47C334.052 195.968 336.268 190.602 338.85 185.41C338.916 185.251 338.921 185.072 338.864 184.91C338.807 184.747 338.692 184.611 338.541 184.527C338.389 184.444 338.213 184.42 338.045 184.459C337.877 184.499 337.729 184.599 337.63 184.74V184.7Z" fill="#333333"/>
<path d="M270.24 231.09C270.86 236.34 268.19 240.6 264.24 240.6C260.29 240.6 256.55 236.34 255.82 231.09C255.09 225.84 257.82 221.58 261.82 221.58C265.82 221.58 269.61 225.84 270.24 231.09Z" fill="white"/>
<path d="M461.21 260.22H408.8V270.3H461.21V260.22Z" fill="white"/>
<path d="M404 261C413.24 261.54 422.53 261.47 431.78 261.42C441.03 261.37 450.32 261.61 459.54 260.88C459.704 260.88 459.862 260.815 459.978 260.698C460.095 260.582 460.16 260.424 460.16 260.26C460.16 260.096 460.095 259.938 459.978 259.822C459.862 259.705 459.704 259.64 459.54 259.64C450.31 258.92 441.01 259.15 431.75 259.1C422.49 259.05 413.23 258.98 403.99 259.52C403.794 259.52 403.606 259.598 403.467 259.737C403.328 259.876 403.25 260.064 403.25 260.26C403.25 260.456 403.328 260.645 403.467 260.783C403.606 260.922 403.794 261 403.99 261H404Z" fill="#333333"/>
<path d="M408.08 260C407.695 261.837 407.544 263.715 407.63 265.59C407.63 267.1 409.95 267.04 409.97 265.54C409.97 265.09 409.97 264.65 409.97 264.2C409.962 263.895 409.833 263.606 409.612 263.396C409.391 263.186 409.095 263.072 408.79 263.08C408.485 263.088 408.196 263.217 407.986 263.438C407.776 263.659 407.662 263.955 407.67 264.26C407.72 266.09 407.56 268.06 408.22 269.79C408.261 269.917 408.341 270.028 408.449 270.107C408.556 270.185 408.686 270.228 408.82 270.228C408.954 270.228 409.084 270.185 409.191 270.107C409.299 270.028 409.379 269.917 409.42 269.79C410.09 268.06 409.92 266.07 409.97 264.23C409.97 262.75 407.71 262.81 407.67 264.29C407.67 264.73 407.67 265.18 407.67 265.62C407.677 265.93 407.806 266.225 408.03 266.44C408.254 266.655 408.555 266.772 408.865 266.765C409.175 266.758 409.47 266.629 409.685 266.405C409.9 266.181 410.017 265.88 410.01 265.57C410.093 263.701 409.939 261.83 409.55 260C409.502 259.848 409.407 259.715 409.278 259.621C409.15 259.527 408.994 259.476 408.835 259.476C408.676 259.476 408.52 259.527 408.392 259.621C408.263 259.715 408.168 259.848 408.12 260H408.08Z" fill="#333333"/>
<path d="M460.49 260.69C460.1 262.526 459.949 264.405 460.04 266.28C460.04 267.78 462.36 267.72 462.38 266.22C462.38 265.78 462.38 265.33 462.38 264.89C462.372 264.585 462.243 264.296 462.022 264.086C461.801 263.876 461.505 263.762 461.2 263.77C460.895 263.778 460.606 263.907 460.396 264.128C460.186 264.349 460.072 264.645 460.08 264.95C460.13 266.78 459.97 268.75 460.63 270.48C460.671 270.607 460.751 270.718 460.859 270.797C460.966 270.875 461.096 270.918 461.23 270.918C461.363 270.918 461.494 270.875 461.601 270.797C461.709 270.718 461.789 270.607 461.83 270.48C462.49 268.75 462.33 266.75 462.38 264.92C462.38 263.44 460.12 263.5 460.08 264.98C460.08 265.42 460.08 265.87 460.08 266.31C460.088 266.62 460.219 266.915 460.444 267.129C460.669 267.342 460.97 267.458 461.28 267.45C461.59 267.442 461.885 267.311 462.099 267.086C462.312 266.861 462.428 266.56 462.42 266.25C462.505 264.384 462.347 262.515 461.95 260.69C461.905 260.537 461.811 260.402 461.683 260.306C461.555 260.21 461.4 260.159 461.24 260.159C461.08 260.159 460.925 260.21 460.797 260.306C460.669 260.402 460.575 260.537 460.53 260.69H460.49Z" fill="#333333"/>
<path d="M404.05 271.83C413.58 272.05 423.1 272.22 432.63 272.23C438.26 272.23 443.89 272.16 449.51 272.12C452.57 272.12 456.13 272.58 459.12 271.85C459.385 271.85 459.64 271.745 459.827 271.557C460.015 271.37 460.12 271.115 460.12 270.85C460.12 270.585 460.015 270.33 459.827 270.143C459.64 269.955 459.385 269.85 459.12 269.85C456.12 269.12 452.54 269.61 449.49 269.58C443.86 269.58 438.23 269.46 432.61 269.47C423.08 269.47 413.56 269.66 404.04 269.81C403.775 269.817 403.523 269.928 403.34 270.121C403.157 270.313 403.058 270.57 403.065 270.835C403.072 271.1 403.183 271.352 403.376 271.535C403.568 271.718 403.825 271.817 404.09 271.81L404.05 271.83Z" fill="#333333"/>
<path d="M401.63 258.81H454.04V244.72H401.63V258.81Z" fill="white"/>
<path d="M458.8 244C449.56 243.46 440.27 243.53 431.02 243.57C421.77 243.61 412.48 243.39 403.26 244.11C403.108 244.129 402.968 244.203 402.867 244.318C402.765 244.434 402.709 244.582 402.709 244.735C402.709 244.888 402.765 245.036 402.867 245.152C402.968 245.267 403.108 245.341 403.26 245.36C412.49 246.08 421.79 245.85 431.05 245.9C440.31 245.95 449.57 246.02 458.81 245.47C458.99 245.449 459.156 245.362 459.277 245.227C459.398 245.091 459.464 244.916 459.464 244.735C459.464 244.554 459.398 244.379 459.277 244.243C459.156 244.108 458.99 244.021 458.81 244H458.8Z" fill="#333333"/>
<path d="M453.32 244.55C452.935 247.108 452.784 249.695 452.87 252.28L455.21 252.22C455.21 251.6 455.21 250.98 455.21 250.36C455.21 250.055 455.089 249.762 454.873 249.547C454.658 249.331 454.365 249.21 454.06 249.21C453.755 249.21 453.462 249.331 453.247 249.547C453.031 249.762 452.91 250.055 452.91 250.36C452.791 252.933 452.976 255.51 453.46 258.04C453.501 258.167 453.581 258.278 453.689 258.357C453.796 258.435 453.926 258.478 454.06 258.478C454.194 258.478 454.324 258.435 454.431 258.357C454.539 258.278 454.619 258.167 454.66 258.04C455.32 255.55 455.16 252.89 455.21 250.34H452.91C452.91 250.97 452.91 251.59 452.91 252.21C452.918 252.52 453.049 252.815 453.274 253.029C453.499 253.242 453.8 253.358 454.11 253.35C454.42 253.342 454.715 253.211 454.929 252.986C455.142 252.761 455.258 252.46 455.25 252.15C455.327 249.571 455.173 246.991 454.79 244.44C454.65 243.72 453.5 243.79 453.36 244.44L453.32 244.55Z" fill="#333333"/>
<path d="M400.92 245.45C400.532 248.011 400.378 250.601 400.46 253.19L402.8 253.13C402.8 252.51 402.8 251.88 402.8 251.26C402.792 250.955 402.663 250.666 402.442 250.456C402.221 250.246 401.925 250.132 401.62 250.14C401.315 250.148 401.026 250.277 400.816 250.498C400.606 250.719 400.492 251.015 400.5 251.32C400.361 253.891 400.529 256.469 401 259C401.038 259.129 401.116 259.242 401.223 259.322C401.331 259.402 401.461 259.446 401.595 259.446C401.729 259.446 401.859 259.402 401.967 259.322C402.074 259.242 402.152 259.129 402.19 259C402.86 256.51 402.69 253.85 402.74 251.29L400.44 251.35C400.44 251.97 400.44 252.59 400.44 253.22C400.448 253.53 400.579 253.825 400.804 254.039C401.029 254.252 401.33 254.368 401.64 254.36C401.95 254.352 402.245 254.221 402.459 253.996C402.672 253.771 402.788 253.47 402.78 253.16C402.857 250.581 402.703 248.001 402.32 245.45C402.275 245.297 402.181 245.162 402.053 245.066C401.925 244.97 401.77 244.919 401.61 244.919C401.45 244.919 401.295 244.97 401.167 245.066C401.039 245.162 400.945 245.297 400.9 245.45H400.92Z" fill="#333333"/>
<path d="M458.79 258.56C449.26 258.41 439.74 258.23 430.21 258.22C424.58 258.22 418.95 258.3 413.33 258.35C410.27 258.35 406.71 257.89 403.72 258.62C403.455 258.62 403.2 258.725 403.013 258.913C402.825 259.1 402.72 259.355 402.72 259.62C402.72 259.885 402.825 260.14 403.013 260.327C403.2 260.515 403.455 260.62 403.72 260.62C406.72 261.35 410.3 260.86 413.35 260.88C418.98 260.88 424.61 261 430.23 260.99C439.76 260.99 449.28 260.81 458.8 260.57C459.065 260.57 459.32 260.465 459.507 260.277C459.695 260.09 459.8 259.835 459.8 259.57C459.8 259.305 459.695 259.05 459.507 258.863C459.32 258.675 459.065 258.57 458.8 258.57L458.79 258.56Z" fill="#333333"/>
<path d="M129.12 228.85C134.85 221.09 140.12 212.98 145.35 204.85C150.58 196.72 155.64 188.19 161 180C161.44 179.33 160.34 178.74 159.91 179.4C154.79 187.21 148.8 195.4 143.5 203.45C138.2 211.5 132.78 219.61 127.94 228C127.53 228.7 128.61 229.55 129.12 228.86V228.85Z" fill="#333333"/>
<path d="M123.81 266.24C120.55 267.07 122.73 269.32 123.81 269.49C124.89 269.66 175.29 269.8 176.22 269.49C177.15 269.18 178.98 267.38 176.22 266.89C173.46 266.4 127.65 265.27 123.81 266.24Z" fill="#FF842C"/>
<path d="M335.7 110.46C334.678 112.561 334.051 114.832 333.85 117.16C333.75 118.37 333.38 121.07 334.85 121.69C334.973 121.75 335.111 121.772 335.247 121.753C335.383 121.733 335.509 121.673 335.61 121.58C336.56 120.78 335.99 119.03 335.91 117.98C335.606 115.661 336.044 113.305 337.16 111.25C337.68 110.33 336.16 109.53 335.74 110.46H335.7Z" fill="white"/>
<path d="M339.57 104.24C339.01 104.71 338.49 105.24 337.95 105.73C337.605 105.992 337.317 106.321 337.104 106.697C336.891 107.074 336.757 107.49 336.71 107.92C336.716 108.095 336.767 108.265 336.859 108.413C336.952 108.562 337.081 108.683 337.235 108.766C337.388 108.849 337.561 108.89 337.736 108.886C337.91 108.881 338.081 108.831 338.23 108.74C338.91 108.38 339.11 107.55 339.38 106.88C339.589 106.278 340.022 105.78 340.59 105.49C341.59 104.91 340.51 103.49 339.59 104.24H339.57Z" fill="white"/>
<path d="M140 100.83C140 104.13 139.89 107.44 139.88 110.75C139.88 112.75 139.88 114.86 139.88 116.91C139.88 117.71 139.61 118.97 140.08 119.69C140.151 119.808 140.252 119.906 140.372 119.973C140.492 120.041 140.627 120.077 140.765 120.077C140.903 120.077 141.038 120.041 141.158 119.973C141.278 119.906 141.379 119.808 141.45 119.69C141.88 119.03 141.64 117.86 141.63 117.13C141.63 115 141.63 112.87 141.63 110.74C141.63 107.43 141.56 104.13 141.51 100.82C141.489 100.642 141.404 100.479 141.27 100.36C141.136 100.241 140.964 100.175 140.785 100.175C140.606 100.175 140.434 100.241 140.3 100.36C140.166 100.479 140.081 100.642 140.06 100.82L140 100.83Z" fill="#FF842C"/>
<path d="M155.61 118.55C152.84 118.55 150.06 118.43 147.28 118.42C145.75 118.42 141.39 117.58 140.16 118.72C140.013 118.871 139.93 119.074 139.93 119.285C139.93 119.496 140.013 119.699 140.16 119.85C141.37 120.96 145.82 120.13 147.3 120.12C150.08 120.12 152.85 120.05 155.63 119.99C155.821 119.99 156.004 119.914 156.139 119.779C156.274 119.644 156.35 119.461 156.35 119.27C156.35 119.079 156.274 118.896 156.139 118.761C156.004 118.626 155.821 118.55 155.63 118.55H155.61Z" fill="#FF842C"/>
<path d="M419.14 217.56C420.24 226.75 420.8 236.03 422.51 245.13C422.74 246.31 424.51 245.75 424.29 244.59C422.79 235.59 421.8 226.59 420.56 217.53C420.44 216.64 419.03 216.65 419.14 217.53V217.56Z" fill="#333333"/>
<path d="M420.67 212.15C427.32 212.29 434.05 213.39 440.67 212.98C440.886 212.957 441.086 212.855 441.231 212.693C441.376 212.532 441.456 212.322 441.456 212.105C441.456 211.888 441.376 211.678 441.231 211.517C441.086 211.355 440.886 211.253 440.67 211.23C434.05 210.75 427.29 210.61 420.67 210.67C420.474 210.67 420.286 210.748 420.147 210.887C420.008 211.026 419.93 211.214 419.93 211.41C419.93 211.606 420.008 211.795 420.147 211.933C420.286 212.072 420.474 212.15 420.67 212.15Z" fill="#333333"/>
<path d="M441.24 218.78C440.24 227.08 439.45 235.39 438.62 243.71C438.5 244.89 440.37 244.85 440.47 243.66C441.15 235.41 441.84 227.17 442.37 218.91C442.37 218.27 441.32 218.14 441.24 218.78Z" fill="#333333"/>
<path d="M425.92 226.42C429.57 226.42 433.78 227.06 437.36 226.32C437.486 226.283 437.597 226.206 437.676 226.1C437.755 225.995 437.797 225.867 437.797 225.735C437.797 225.603 437.755 225.475 437.676 225.37C437.597 225.264 437.486 225.187 437.36 225.15C433.8 224.32 429.56 224.85 425.91 224.8C424.91 224.8 424.91 226.41 425.91 226.42H425.92Z" fill="#333333"/>
<path d="M426.46 233.88C429.46 233.88 432.72 234.16 435.72 233.6C436.25 233.51 436.2 232.66 435.72 232.6C432.72 232.04 429.48 232.34 426.44 232.33C426.245 232.352 426.064 232.445 425.933 232.592C425.802 232.738 425.729 232.928 425.729 233.125C425.729 233.322 425.802 233.511 425.933 233.658C426.064 233.805 426.245 233.898 426.44 233.92L426.46 233.88Z" fill="#333333"/>
<path d="M428.34 238.88C430.34 238.88 432.27 238.88 434.24 238.74C434.374 238.722 434.498 238.656 434.587 238.554C434.676 238.452 434.725 238.321 434.725 238.185C434.725 238.049 434.676 237.918 434.587 237.816C434.498 237.714 434.374 237.648 434.24 237.63C432.24 237.49 430.3 237.51 428.33 237.5C427.44 237.5 427.47 238.89 428.33 238.88H428.34Z" fill="#333333"/>
<path d="M419.92 211.09C418.77 212.85 418.37 215.31 417.92 217.33C417.76 218.11 418.92 218.68 419.29 217.87C420.11 215.87 421.16 213.6 421.18 211.41C421.176 211.259 421.122 211.114 421.028 210.997C420.933 210.88 420.803 210.797 420.656 210.761C420.51 210.724 420.356 210.737 420.218 210.796C420.079 210.856 419.964 210.959 419.89 211.09H419.92Z" fill="#333333"/>
<path d="M418.73 218C426.922 218.673 435.143 218.917 443.36 218.73C443.55 218.708 443.726 218.617 443.854 218.474C443.981 218.331 444.052 218.147 444.052 217.955C444.052 217.763 443.981 217.578 443.854 217.436C443.726 217.293 443.55 217.202 443.36 217.18C435.14 217.18 426.93 217.08 418.73 216.42C417.73 216.33 417.73 217.9 418.73 218Z" fill="#333333"/>
<path d="M441.53 212.58C441.72 214.45 441.79 216.38 442.12 218.23C442.26 219.01 443.57 218.8 443.51 218.01C443.37 216.19 442.98 214.36 442.71 212.55C442.6 211.82 441.45 211.81 441.53 212.55V212.58Z" fill="#333333"/>
<path d="M421.67 196.85C423.36 201.75 425.22 206.59 426.91 211.48C427.39 212.88 429.6 212.22 429.11 210.82C427.4 205.93 425.52 201.1 423.81 196.2C423.33 194.86 421.2 195.49 421.67 196.85Z" fill="#333333"/>
<path d="M123.76 89.59C118.493 92.6183 114.215 97.105 111.44 102.509C108.665 107.914 107.512 114.005 108.12 120.05C108.21 120.94 109.59 120.93 109.53 120.05C109.134 114.219 110.265 108.385 112.811 103.124C115.357 97.8632 119.231 93.357 124.05 90.05C124.08 90.031 124.106 90.0061 124.127 89.977C124.148 89.9478 124.162 89.9149 124.17 89.8801C124.178 89.8453 124.179 89.8092 124.173 89.774C124.167 89.7389 124.154 89.7052 124.135 89.675C124.116 89.6448 124.091 89.6186 124.062 89.598C124.033 89.5774 124 89.5627 123.965 89.5548C123.93 89.5469 123.894 89.546 123.859 89.552C123.824 89.558 123.79 89.5709 123.76 89.59Z" fill="#333333"/>
<path d="M170.32 126.7C168.17 133.99 163.38 139.55 156.94 143.45C156.31 143.83 156.89 144.72 157.52 144.45C160.918 142.669 163.905 140.197 166.289 137.191C168.672 134.186 170.4 130.714 171.36 127C171.55 126.33 170.51 126.07 170.36 126.74L170.32 126.7Z" fill="#333333"/>
<path d="M265.67 120C267.48 120.09 269.29 120.18 271.1 120.25L270.54 119.72C270.42 123.05 269.91 126.61 270.31 129.93C270.42 130.77 271.83 131.11 271.94 130.11C272.32 126.71 271.79 123.11 271.64 119.69C271.632 119.544 271.569 119.407 271.463 119.306C271.357 119.206 271.216 119.15 271.07 119.15C269.26 119.05 267.45 118.97 265.64 118.89C264.93 118.89 264.96 119.97 265.64 120H265.67Z" fill="#333333"/>
<path d="M210.43 150.07C210.43 152.123 210.43 154.18 210.43 156.24C210.44 156.458 210.535 156.663 210.693 156.812C210.852 156.961 211.062 157.043 211.28 157.04C214.354 157.085 217.429 156.965 220.49 156.68C220.655 156.66 220.807 156.58 220.917 156.456C221.027 156.331 221.088 156.171 221.088 156.005C221.088 155.839 221.027 155.679 220.917 155.554C220.807 155.43 220.655 155.35 220.49 155.33C217.418 155.185 214.34 155.205 211.27 155.39L212.12 156.2V150.03C212.098 149.827 212.001 149.639 211.849 149.503C211.697 149.366 211.499 149.291 211.295 149.291C211.091 149.291 210.893 149.366 210.741 149.503C210.589 149.639 210.492 149.827 210.47 150.03L210.43 150.07Z" fill="#333333"/>
<path d="M415.45 250.9C424.54 251.29 433.71 252.13 442.79 251.29C442.998 251.267 443.191 251.169 443.331 251.013C443.471 250.857 443.548 250.655 443.548 250.445C443.548 250.236 443.471 250.033 443.331 249.877C443.191 249.722 442.998 249.623 442.79 249.6C433.71 248.76 424.55 249.6 415.47 249.99C415.361 250.006 415.261 250.061 415.189 250.145C415.117 250.228 415.078 250.335 415.078 250.445C415.078 250.555 415.117 250.662 415.189 250.745C415.261 250.829 415.361 250.884 415.47 250.9H415.45Z" fill="#FF842C"/>
<path d="M408.94 254.73C413.8 254.91 418.67 255.23 423.54 255.04C423.736 255.04 423.924 254.962 424.063 254.823C424.202 254.685 424.28 254.496 424.28 254.3C424.28 254.104 424.202 253.916 424.063 253.777C423.924 253.638 423.736 253.56 423.54 253.56C418.69 253.21 413.81 253.36 408.95 253.38C408.07 253.38 408.12 254.69 408.95 254.73H408.94Z" fill="#FF842C"/>
<path d="M426 265.31C432.34 265.45 439 266.31 445.26 265.37C445.91 265.27 446.2 264.18 445.4 264.08C439.02 263.28 432.4 264.23 425.98 264.49C425.871 264.49 425.767 264.533 425.69 264.61C425.613 264.687 425.57 264.791 425.57 264.9C425.57 265.009 425.613 265.113 425.69 265.19C425.767 265.267 425.871 265.31 425.98 265.31H426Z" fill="#FF842C"/>
<path d="M156.05 239.76C162.48 239.94 168.9 239.93 175.32 239.97C181.74 240.01 188.37 240.71 194.58 239.76C195.3 239.65 195.58 238.49 194.74 238.35C188.67 237.4 182.09 238.05 175.96 238.07C169.31 238.07 162.67 238.07 156.02 238.21C155.83 238.232 155.654 238.323 155.526 238.466C155.399 238.608 155.328 238.793 155.328 238.985C155.328 239.177 155.399 239.361 155.526 239.504C155.654 239.647 155.83 239.738 156.02 239.76H156.05Z" fill="#333333"/>
<path d="M155.19 239.24C156.7 246.35 157.34 253.94 159.58 260.85C159.86 261.68 161.27 261.54 161.17 260.6C160.35 253.31 158.46 245.9 156.88 238.73C156.64 237.62 154.95 238.13 155.19 239.24Z" fill="#333333"/>
<path d="M194.26 239.27C195.82 250 197.12 260.96 199.46 271.54C199.513 271.689 199.617 271.815 199.754 271.896C199.89 271.977 200.051 272.007 200.207 271.982C200.364 271.958 200.507 271.879 200.611 271.76C200.716 271.64 200.776 271.488 200.78 271.33C199.95 260.59 197.37 249.88 195.78 239.24C195.64 238.24 194.14 238.31 194.28 239.24L194.26 239.27Z" fill="#333333"/>
<path d="M155.14 238.76C152.55 245.53 149.14 252.56 147.7 259.67C147.52 260.57 148.85 261.2 149.26 260.29C152.35 253.57 154.33 246.14 156.93 239.21C157.35 238.1 155.56 237.67 155.14 238.76Z" fill="#333333"/>
<path d="M165 247.44C172.36 247.52 179.94 248.06 187.26 247.21C188.01 247.13 188.26 245.87 187.42 245.77C180.02 244.95 172.42 245.49 164.95 245.6C164.706 245.6 164.472 245.697 164.299 245.869C164.127 246.042 164.03 246.276 164.03 246.52C164.03 246.764 164.127 246.998 164.299 247.171C164.472 247.343 164.706 247.44 164.95 247.44H165Z" fill="#333333"/>
<path d="M166.14 253.29C171.6 253.29 177.14 253.5 182.59 252.92C182.765 252.899 182.926 252.815 183.044 252.683C183.161 252.551 183.225 252.381 183.225 252.205C183.225 252.029 183.161 251.859 183.044 251.727C182.926 251.595 182.765 251.511 182.59 251.49C177.15 251.02 171.59 251.4 166.13 251.49C165.891 251.49 165.662 251.585 165.494 251.754C165.325 251.922 165.23 252.151 165.23 252.39C165.23 252.629 165.325 252.858 165.494 253.026C165.662 253.195 165.891 253.29 166.13 253.29H166.14Z" fill="#333333"/>
<path d="M161.35 238.2C161.35 236.81 162.65 237.49 163.08 237.87C163.518 238.338 163.795 238.934 163.87 239.57C163.99 240.164 163.99 240.776 163.87 241.37C163.74 242.11 162.55 243.71 161.97 242.21C161.62 241.3 160.14 241.78 160.53 242.65C160.652 242.937 160.84 243.191 161.078 243.392C161.317 243.593 161.598 243.736 161.902 243.809C162.205 243.882 162.521 243.883 162.824 243.812C163.128 243.741 163.411 243.6 163.65 243.4C164.88 242.49 165.13 240.47 165.03 239.05C165.03 238.324 164.789 237.618 164.346 237.043C163.903 236.468 163.282 236.055 162.58 235.87C162.234 235.801 161.877 235.811 161.535 235.898C161.193 235.986 160.875 236.148 160.605 236.375C160.334 236.601 160.118 236.885 159.972 237.207C159.826 237.528 159.753 237.877 159.76 238.23C159.76 238.44 159.843 238.641 159.991 238.789C160.139 238.937 160.34 239.02 160.55 239.02C160.759 239.02 160.96 238.937 161.109 238.789C161.257 238.641 161.34 238.44 161.34 238.23L161.35 238.2Z" fill="#333333"/>
<path d="M168.17 238.7C168.39 238 168.79 236.59 169.88 237.44C170.35 237.82 170.42 239.01 170.43 239.56C170.44 240.11 170.28 242.32 169.08 241.85C168.71 241.7 168.54 241.17 168.25 240.9C168.16 240.82 168.054 240.761 167.938 240.727C167.823 240.694 167.701 240.686 167.582 240.705C167.464 240.725 167.351 240.77 167.252 240.838C167.153 240.906 167.07 240.996 167.01 241.1L166.89 241.3C166.802 241.452 166.756 241.624 166.756 241.8C166.756 241.976 166.802 242.148 166.89 242.3C167.041 242.577 167.253 242.817 167.509 243.002C167.765 243.187 168.06 243.312 168.371 243.367C168.682 243.423 169.001 243.408 169.306 243.324C169.61 243.239 169.892 243.088 170.13 242.88C171.35 241.88 171.4 240.12 171.53 238.67C171.66 237.22 171.12 235.48 169.37 235.41C167.62 235.34 167.05 237.07 166.79 238.41C166.77 238.58 166.812 238.751 166.91 238.892C167.007 239.032 167.153 239.132 167.319 239.173C167.485 239.213 167.66 239.192 167.812 239.112C167.963 239.032 168.08 238.9 168.14 238.74L168.17 238.7Z" fill="#333333"/>
<path d="M174.66 238.93C174.738 238.326 174.969 237.751 175.33 237.26C176.21 236.35 176.53 237.84 176.58 238.44C176.68 239.083 176.68 239.737 176.58 240.38C176.45 240.97 176.24 241.49 175.58 241.38C175.14 241.3 175.12 241.19 174.84 240.89C174.736 240.796 174.61 240.731 174.474 240.699C174.338 240.668 174.196 240.672 174.061 240.711C173.927 240.75 173.805 240.823 173.707 240.923C173.608 241.022 173.537 241.145 173.5 241.28C173.07 242.83 174.95 243.65 176.21 243.13C177.89 242.42 178.31 240.02 178.28 238.41C178.25 236.8 177.71 235.19 175.95 235.2C174.19 235.21 173.32 236.99 172.95 238.52C172.92 238.738 172.972 238.96 173.096 239.142C173.22 239.324 173.407 239.453 173.621 239.506C173.835 239.558 174.06 239.529 174.254 239.424C174.448 239.32 174.596 239.147 174.67 238.94L174.66 238.93Z" fill="#333333"/>
<path d="M181.71 237.76C181.632 237.625 181.594 237.471 181.602 237.315C181.61 237.159 181.662 237.009 181.753 236.882C181.843 236.756 181.969 236.658 182.114 236.601C182.259 236.544 182.417 236.529 182.57 236.56C183.4 236.72 183.67 237.8 183.65 238.5C183.65 239.59 182.65 242.14 181.21 240.9C181.131 240.828 181.033 240.781 180.927 240.764C180.822 240.747 180.714 240.761 180.616 240.805C180.519 240.848 180.436 240.919 180.378 241.009C180.32 241.099 180.289 241.203 180.29 241.31C180.36 242.82 182.29 242.83 183.2 242.04C183.875 241.444 184.397 240.696 184.724 239.858C185.051 239.019 185.173 238.115 185.08 237.22C185.005 236.843 184.854 236.485 184.636 236.169C184.417 235.852 184.136 235.584 183.81 235.381C183.484 235.178 183.12 235.043 182.739 234.986C182.359 234.929 181.971 234.951 181.6 235.05C181.268 235.179 180.968 235.379 180.72 235.635C180.473 235.892 180.284 236.199 180.166 236.535C180.048 236.871 180.004 237.229 180.038 237.584C180.071 237.938 180.181 238.282 180.36 238.59C180.84 239.49 182.17 238.66 181.71 237.76Z" fill="#333333"/>
<path d="M187.75 238.19C187.75 237.64 187.94 235.65 189.08 236.75C189.33 237 189.3 237.75 189.33 238.12C189.37 238.599 189.37 239.081 189.33 239.56C189.33 240.13 188.65 241.87 188.13 240.65C188.078 240.474 187.97 240.32 187.824 240.21C187.677 240.101 187.498 240.041 187.315 240.041C187.132 240.041 186.953 240.101 186.806 240.21C186.66 240.32 186.552 240.474 186.5 240.65C186.439 240.977 186.471 241.314 186.593 241.624C186.714 241.933 186.919 242.203 187.186 242.402C187.452 242.6 187.769 242.721 188.1 242.749C188.431 242.777 188.764 242.711 189.06 242.56C190.79 241.79 190.85 239.39 190.72 237.8C190.61 236.53 190.21 234.7 188.56 234.8C186.91 234.9 186.47 236.8 186.49 238.18C186.49 238.99 187.68 238.93 187.73 238.18L187.75 238.19Z" fill="#333333"/>
<path d="M607.39 179.12L611.18 174.59L611.59 171.47H602.21L601.14 179.12H588.62L594.39 138.62H628.79L623.86 173.69C623.653 175.213 622.869 176.598 621.67 177.56C620.498 178.579 618.993 179.134 617.44 179.12H607.39ZM603.69 127.67L603.44 122.98L600.81 119.85H618.92L619.33 127.67H635.05L636.78 122.49L634.56 119.85H653.33L650.61 127.67H660L658.93 135.49H593.23L594.3 127.67H603.69ZM603.28 163.67H612.74L613.4 158.97H603.93L603.28 163.67ZM605.09 151.15H614.47L615.13 146.46H605.75L605.09 151.15ZM641 140.93L636.72 171.47H627.33L631.61 140.93H641ZM632.42 179L639.83 171.34L644.44 138.58H657L652.06 173.58C651.845 175.107 651.05 176.493 649.84 177.45C648.67 178.453 647.181 179.006 645.64 179.01L632.42 179Z" fill="#333333"/>
<path d="M685.76 166.77L688.06 166.44L687 174.26L662.55 177.56L663.7 169.74L667.32 169.24L668.64 138.7H678.1L677 163.56L682.77 138.7H692.23L685.76 166.77ZM675.88 128.5L676.62 123.31L674.62 120.1H689L687.85 128.5H693.45L692.45 135.5H668.45L669.45 128.5H675.88ZM718.61 179L721.61 175.62L724.33 156.28H722.18L719.18 177.35H710.37L713.37 156.28H711.2L708.2 177.35H699.89L702.89 156.28H700.75L697.53 179H687.74L691.74 150.6H703.74L704.74 147.88H692.26L693.33 140.31H736.39L735.32 147.88H720.09L719.09 150.6H734.81L731.6 173.32C731.428 174.78 730.857 176.164 729.95 177.32C729.617 177.813 729.171 178.22 728.649 178.507C728.128 178.794 727.545 178.953 726.95 178.97L718.61 179ZM705 131.3H709.12L710.35 122.65L708.35 120.1H723.82L722.26 131.3H725.63L727.03 121.3H737.57L735.26 137.69H693.66L695.97 121.39H706.42L705 131.3Z" fill="#333333"/>
<path d="M750.38 124.46L747.75 121.46H810.22L807.84 138.58H764L763.59 141.79H807.39L810.93 138.66L809.36 149.61H796.89L796.48 152.74H810.55L809.48 160.56H795.33L793.51 173.73C793.325 175.26 792.559 176.66 791.37 177.64C790.204 178.639 788.715 179.179 787.18 179.16H770.88L778.2 171.51L779.68 160.56H740.68L741.75 152.74H780.85L781.26 149.61H746.84L750.38 124.46ZM768.57 173H752.93L751.2 162.88H766.84L768.57 173ZM765.36 129.21L765.03 131.51H793.19L793.51 129.21H765.36Z" fill="#333333"/>
<path d="M819 153.52H817.44L818.59 145.45H820.4L823.12 129.57L822.46 124.38H829.95L831.27 121.38L830.44 119.98H842.79L840.73 124.43H851.3L848.3 145.5H850.19L849.04 153.57H847.15L844.02 176.21C843.919 177.013 843.541 177.756 842.95 178.31C842.422 178.766 841.747 179.014 841.05 179.01H829.32L834.59 173.33L837.39 153.57H828.33L824.05 179H814.59L819 153.52ZM828.63 155.74H835.14L834.56 168.34H827.81L828.63 155.74ZM829.78 145.45H838.59L840.59 131.54H832.19L829.78 145.45ZM832.17 133.85H838.67L838.51 143.31H831.76L832.17 133.85ZM865.3 179L869.82 147.22H864.47L857 179H845.05L854.05 138.5H883.19L878.74 169.7H881L884.37 166.57L882.58 179H865.3ZM864.06 126.73L864.64 123.02L862.58 119.89H879.29L878.22 126.73H888.51L887.36 134.63H851.22L852.37 126.73H864.06Z" fill="#333333"/>
<path d="M594.23 207.38C593.549 209.103 592.744 210.774 591.82 212.38V227.96H590.33V214.66C589.578 215.745 588.749 216.774 587.85 217.74C587.607 217.205 587.305 216.698 586.95 216.23C589.524 213.579 591.508 210.413 592.77 206.94L594.23 207.38ZM602.23 212.8V226.06C602.23 226.97 602.04 227.43 601.46 227.68C600.489 227.976 599.472 228.088 598.46 228.01C598.335 227.464 598.147 226.933 597.9 226.43C599.01 226.43 600.03 226.43 600.33 226.43C600.63 226.43 600.73 226.33 600.73 226.03V212.8H597.04C596.445 214.238 595.694 215.606 594.8 216.88C594.398 216.525 593.977 216.191 593.54 215.88C595.428 213.202 596.717 210.15 597.32 206.93L598.83 207.28C598.494 208.655 598.083 210.01 597.6 211.34H607.29L607.54 211.27L608.54 211.52C608.26 213.19 607.85 215.16 607.54 216.37L606.24 216.11C606.43 215.25 606.66 213.98 606.87 212.77L602.23 212.8ZM598.49 217C597.854 219.825 596.697 222.508 595.08 224.91C594.78 224.7 594.08 224.26 593.76 224.05C595.344 221.853 596.451 219.35 597.01 216.7L598.49 217ZM605.49 216.54C606.851 218.983 607.861 221.605 608.49 224.33L607.03 224.81C606.422 222.085 605.457 219.452 604.16 216.98L605.49 216.54Z" fill="#333333"/>
<path d="M638.33 207.13C637.96 208.26 637.52 209.56 637.1 210.56H641V225.56H634.51V227.41H633.1V210.56H635.67C636.096 209.333 636.431 208.076 636.67 206.8L638.33 207.13ZM639.61 211.95H634.53V217H639.61V211.95ZM639.61 224.14V218.39H634.53V224.14H639.61ZM652.38 211.32C652.01 221.96 651.68 225.51 650.75 226.62C650.547 226.896 650.282 227.119 649.976 227.272C649.67 227.425 649.332 227.503 648.99 227.5C647.857 227.55 646.721 227.534 645.59 227.45C645.528 226.92 645.354 226.408 645.08 225.95C646.58 226.09 647.97 226.09 648.48 226.09C648.99 226.09 649.23 226.04 649.48 225.74C650.24 224.93 650.61 221.36 650.91 211.95H644.84C644.266 213.399 643.535 214.78 642.66 216.07C642.246 215.758 641.812 215.474 641.36 215.22C643.099 212.667 644.307 209.79 644.91 206.76L646.4 207.08C646.09 208.24 645.77 209.4 645.4 210.51H652.4L652.38 211.32ZM647.44 221.75C646.386 219.865 645.186 218.066 643.85 216.37L645.03 215.68C646.41 217.328 647.651 219.087 648.74 220.94L647.44 221.75Z" fill="#333333"/>
<path d="M697.32 221.33H687.81V226C687.81 227 687.54 227.43 686.75 227.66C685.355 227.935 683.93 228.029 682.51 227.94C682.344 227.42 682.126 226.917 681.86 226.44C683.67 226.51 685.22 226.51 685.66 226.44C686.1 226.37 686.26 226.3 686.26 225.98V221.29H676.94V219.9H686.26V218.18C687.767 217.629 689.201 216.897 690.53 216H680.77V214.61H692.29L692.61 214.54L693.61 215.31C691.857 216.773 689.895 217.966 687.79 218.85V219.9H697.3L697.32 221.33ZM678.91 215.22H677.45V210.74H681.32C680.742 209.651 680.052 208.625 679.26 207.68L680.54 207.1C681.432 208.045 682.18 209.117 682.76 210.28L681.88 210.74H687.19C686.745 209.476 686.136 208.276 685.38 207.17L686.72 206.69C687.542 207.777 688.184 208.989 688.62 210.28L687.49 210.74H691.36C692.278 209.571 693.091 208.322 693.79 207.01L695.32 207.57C694.63 208.63 693.75 209.79 692.98 210.74H696.88V215.22H695.37V212.13H678.91V215.22Z" fill="#333333"/>
<path d="M736.62 220C731.83 221.69 726.62 223.5 723.02 224.7L722.46 223.15C725.8 222.15 731.29 220.3 736.32 218.56L736.62 220ZM740.43 209.47C740.26 221.67 740.08 225.56 739.24 226.72C739.038 227.026 738.763 227.277 738.44 227.452C738.118 227.626 737.757 227.718 737.39 227.72C736.185 227.813 734.975 227.813 733.77 227.72C733.722 227.199 733.546 226.698 733.26 226.26C734.86 226.37 736.26 226.37 736.86 226.37C737.032 226.394 737.208 226.372 737.369 226.307C737.53 226.242 737.672 226.136 737.78 226C738.53 225.19 738.71 221 738.87 210.1H722.81V208.62H740.43V209.47ZM726.43 212.09C728.605 213.506 730.68 215.069 732.64 216.77L731.6 218C729.657 216.238 727.596 214.61 725.43 213.13L726.43 212.09Z" fill="#333333"/>
<path d="M771 212.94C770.21 216.33 768.79 220.52 766.59 223.14C766.174 222.791 765.725 222.482 765.25 222.22C767.38 219.76 768.7 215.75 769.25 212.62L771 212.94ZM777 207.22V225.72C777 226.92 776.65 227.41 775.88 227.72C774.457 228.014 773.001 228.118 771.55 228.03C771.395 227.454 771.184 226.895 770.92 226.36C772.66 226.43 774.26 226.36 774.73 226.36C775.2 226.36 775.37 226.2 775.37 225.72V207.22H777ZM782.33 212.41C784.36 215.537 785.908 218.952 786.92 222.54L785.32 223.28C784.358 219.654 782.865 216.189 780.89 213L782.33 212.41Z" fill="#333333"/>
<path d="M820.43 223.35L810.16 225.72L809.89 224.16L811.56 223.81V208H819V222.25L820.32 221.95L820.43 223.35ZM813 209.42V213H817.59V209.41L813 209.42ZM817.59 214.42H813V218H817.59V214.42ZM813 223.54C814.41 223.26 816 222.91 817.59 222.54V219.3H813V223.54ZM830.47 212.94C830.22 222.7 829.99 225.94 829.22 226.99C829.033 227.243 828.788 227.448 828.507 227.589C828.225 227.73 827.915 227.802 827.6 227.8C826.54 227.85 825.478 227.834 824.42 227.75C824.393 227.232 824.235 226.73 823.96 226.29C825.3 226.39 826.55 226.41 827.02 226.41C827.185 226.439 827.354 226.422 827.51 226.36C827.665 226.298 827.8 226.194 827.9 226.06C828.5 225.37 828.76 222.26 828.97 213.62H825.16C824.82 219.62 823.54 224.95 818.81 228.03C818.509 227.574 818.113 227.189 817.65 226.9C822.17 224.14 823.33 219.22 823.65 213.62H819.82V212.16H823.72C823.79 210.42 823.79 208.68 823.79 206.87H825.29C825.29 208.68 825.29 210.42 825.22 212.16H830.46L830.47 212.94Z" fill="#333333"/>
<path d="M875.48 220.34H865.88V225.74C865.88 226.9 865.51 227.36 864.7 227.62C863.132 227.893 861.538 227.977 859.95 227.87C859.785 227.343 859.561 226.836 859.28 226.36C861.28 226.36 863.08 226.36 863.59 226.36C864.1 226.36 864.31 226.17 864.31 225.69V220.31H854.71V218.8H864.31V214.86H856.24V213.38H864.31V209.7C861.73 209.95 859.07 210.14 856.66 210.26C856.578 209.79 856.444 209.33 856.26 208.89C861.73 208.61 868.55 208.01 872 206.89L873.14 208.15C870.759 208.799 868.332 209.264 865.88 209.54V213.41H874.18V214.89H865.88V218.83H875.48V220.34Z" fill="#333333"/>
</svg>
