<svg xmlns="http://www.w3.org/2000/svg" height="24" width="24"><path d="M62.5 221.7v24.4c0 37.9 30.7 68.6 68.6 68.6h737.7c37.9 0 68.6-30.7 68.6-68.6v-24.4c0-37.9-30.7-68.6-68.6-68.6H131.1c-37.9 0-68.6 30.7-68.6 68.6zm68.6 359.4h737.7c37.9 0 68.6-30.7 68.6-68.6V488c0-37.9-30.7-68.6-68.6-68.6H131.1c-37.9 0-68.6 30.7-68.6 68.6v24.4c0 38 30.7 68.7 68.6 68.7zm0 266.3h737.7c37.9 0 68.6-30.7 68.6-68.6v-24.4c0-37.9-30.7-68.6-68.6-68.6H131.1c-37.9 0-68.6 30.7-68.6 68.6v24.4c0 37.9 30.7 68.6 68.6 68.6z"/></svg>