<svg xmlns="http://www.w3.org/2000/svg" width="32" height="32"><path d="M29 0H3C1.35 0 0 1.35 0 3v26c0 1.65 1.35 3 3 3h26c1.65 0 3-1.35 3-3V3c0-1.65-1.35-3-3-3zm-1 20.25c0 4.281-3.481 7.75-7.794 7.75h-8.4C7.493 28 4 24.531 4 20.25v-8.5C4 7.469 7.494 4 11.806 4h3.931c4.313 0 7.762 3.219 7.762 7.5.056.8.781 1.5 1.6 1.5h1.344c.863 0 1.55.906 1.55 1.762v5.488z"/><path d="M22 20c0 1.1-.9 2-2 2h-8c-1.1 0-2-.9-2-2s.9-2 2-2h8c1.1 0 2 .9 2 2zM18 12c0 1.1-.9 2-2 2h-4c-1.1 0-2-.9-2-2s.9-2 2-2h4c1.1 0 2 .9 2 2z"/></svg>