<svg width="16" height="16" fill="none" xmlns="http://www.w3.org/2000/svg"><path d="M11.21 3.69h-6.5l.34 3.89h4.96l-.18 2.18-1.81.63-1.8-.64-.13-1.66H5.1l.19 2.38 2.72.97 2.75-.95.33-3.9-5.13-.01-.17-1.9h5.36l.06-.99z" fill="#333"/><path d="M10.65 13.32l-2.68.83-4.68-1.44-.87-10.94h11.11l-.68 8.58h.99l.77-9.57H1.34l1.02 12.68 5.61 1.73 2.68-.83v-1.04z" fill="#333"/><path d="M12.94 14.63a1.82 1.82 0 111.82-1.82 1.83 1.83 0 01-1.82 1.82zm0-2.65a.83.83 0 10.83.83.83.83 0 00-.83-.81v-.02z" fill="#FF842C"/></svg>