<svg width="16" height="16" fill="none" xmlns="http://www.w3.org/2000/svg"><path d="M9.32 4.92h2.61l.09-.99H8.33v4.14h2.21l-.11 1.61-2.06.54v1.03l2.99-.8.25-3.37H9.32V4.92zM6.59 3.97v5.97L5.45 9.6l-.17-1.9h-.99l.22 2.65 3.07.92v-7.3h-.99z" fill="#333"/><path d="M10.64 13.36l-2.68.83-4.68-1.45L2.41 1.8h11.11l-.7 8.7h1l.77-9.69H1.33l1.02 12.68 5.61 1.73 2.68-.82v-1.04z" fill="#333"/><path d="M12.93 14.78A1.82 1.82 0 1114.75 13a1.83 1.83 0 01-1.82 1.78zm0-2.65a.83.83 0 100 1.66.83.83 0 000-1.66z" fill="#FF842C"/></svg>