<svg width="102" height="18" fill="none" xmlns="http://www.w3.org/2000/svg"><path d="M37.16 15.411l.863-1.041.092-.719h-2.127l-.242 1.76h-2.828l1.302-9.313h7.77l-1.116 8.063a1.4 1.4 0 01-.496.89 1.422 1.422 0 01-.957.36H37.16zM36.323 3.58L36.267 2.5l-.595-.72h4.091l.095 1.799h3.552l.399-1.193-.496-.606h4.242L46.94 3.58h2.121l-.258 1.803H33.962l.241-1.798 2.121-.005zm-.094 8.273h2.14l.15-1.087h-2.141l-.15 1.087zm.41-2.878h2.12l.15-1.079h-2.121l-.15 1.079zm8.11-2.355l-.967 7.023H41.66l.967-7.023h2.122zm-1.932 8.773l1.673-1.767 1.041-7.533h2.827l-1.116 8.045c-.046.35-.224.67-.496.89a1.436 1.436 0 01-.954.364h-2.975zM54.87 12.571l.52-.075-.242 1.803-5.525.757.261-1.798.819-.113L51 6.122h2.14l-.242 5.72 1.3-5.72h2.142l-1.47 6.45zM52.637 3.77l.165-1.193-.448-.738h3.237l-.26 1.93h1.265l-.223 1.614h-5.43l.224-1.608 1.47-.005zm9.654 11.623l.671-.776.614-4.45h-.485l-.67 4.847h-1.983l.67-4.846h-.483l-.67 4.846H58.07l.67-4.846h-.483l-.726 5.225h-2.214l.892-6.53h2.716l.224-.62h-2.81l.242-1.741h9.728l-.24 1.741h-3.441l-.224.626h3.558l-.726 5.223c-.038.338-.166.66-.372.929a.858.858 0 01-.67.378l-1.902-.006zm-3.068-10.98h.929l.28-1.987-.465-.587h3.496l-.352 2.574h.762l.316-2.29h2.382l-.52 3.765h-9.395l.52-3.748h2.363l-.316 2.273zM69.472 2.841l-.595-.7h14.12l-.54 3.939H72.56l-.093.736h9.896l.8-.718-.354 2.523h-2.827l-.092.72h3.18l-.248 1.792H79.63l-.41 3.028a1.387 1.387 0 01-.482.9c-.264.23-.602.355-.95.35h-3.682l1.653-1.76.33-2.523h-8.804l.241-1.798h8.838l.092-.72h-7.77l.787-5.769zm4.112 11.169h-3.535l-.39-2.329h3.535l.39 2.329zm-.726-10.07l-.074.53h6.361l.074-.53h-6.36zM84.972 9.525h-.353l.26-1.85h.41L85.9 4.02l-.148-1.193h1.693l.297-.7-.185-.323h2.787l-.466 1.023h2.4l-.67 4.846h.43l-.262 1.85h-.428l-.706 5.206a.797.797 0 01-.243.482.632.632 0 01-.427.169h-2.661l1.192-1.307.631-4.542h-2.047l-.958 5.842h-2.15l.992-5.85zm2.176.505h1.461l-.13 2.896h-1.523l.192-2.896zm.261-2.366h1.984l.446-3.196h-1.89l-.54 3.196zM87.95 5h1.469l-.038 2.176h-1.524L87.948 5zm7.493 10.393l1.023-7.308h-1.21l-1.686 7.307h-2.703l2.027-9.312h6.586l-1.005 7.173h.52l.763-.719-.402 2.858h-3.913zm-.28-12.029l.131-.85-.464-.72h3.775l-.24 1.57h2.323l-.259 1.819h-8.167l.26-1.819h2.641z" fill="#333"/><path d="M15.331 1.01L11.21 16.317h3.56l4.122-15.309h-3.56z" fill="#FF842C"/><path d="M9.09 13.243L5.95 8.67l3.197-4.654h-4.19l-3.2 4.654L4.9 13.243h4.19zM23.774 8.67l-3.143 4.573h4.193l3.14-4.573-3.198-4.654h-4.19l3.198 4.654z" fill="#333"/></svg>