<svg width="16" height="16" fill="none" xmlns="http://www.w3.org/2000/svg"><path d="M8 9.83a1.92 1.92 0 11-.02-3.84A1.92 1.92 0 018 9.83zM8 7a.92.92 0 100 1.84A.92.92 0 008 7z" fill="#FF842C"/><path d="M8 3.4A4.51 4.51 0 006.14 12v-1.09a3.54 3.54 0 113.92-.14v1.16A4.51 4.51 0 008 3.4z" fill="#333"/><path d="M13.05 2.87A7.14 7.14 0 103 13a7.07 7.07 0 003.19 1.85v-1a6.14 6.14 0 113.92-.07v1.05a7 7 0 003-1.79 7.13 7.13 0 000-10.09l-.06-.08z" fill="#333"/><path d="M8.59 10.99H7.6v4.23h.99v-4.23z" fill="#FF842C"/></svg>