<svg xmlns="http://www.w3.org/2000/svg" xmlns:xlink="http://www.w3.org/1999/xlink" viewBox="0 0 1260 400"><defs><style>.cls-1{fill:none;}.cls-2,.cls-4{fill:#efefef;}.cls-3{fill:#fff;}.cls-4{stroke:#fff;stroke-miterlimit:10;stroke-width:6px;}.cls-10,.cls-5,.cls-9{fill:#333;}.cls-6{fill:#ff842c;}.cls-7{opacity:0.39;}.cls-8{clip-path:url(#clip-path);}.cls-9{font-size:91.55px;font-family:YouSheBiaoTiHei;}.cls-10{font-size:25.78px;font-family:SourceHanSansCN-Normal-GBpc-EUC-H, Source Han Sans CN;letter-spacing:0.92em;}</style><clipPath id="clip-path"><path class="cls-1" d="M432.24,324.75,407,231.39s10-14.91,19.92-26.39c19.14-22.25,38.54-26,38.54-26s-8.23,17.91.57,18.63c13.53,1.11,32.2-19.14,32.2-19.14,18,5.53,30.75,23,39,60.14,5.91,26.59,11.57,53.68,10.4,70.78-.74,10.88-9.9,15.3-20.82,15.33H432.24"/></clipPath></defs><title>导航</title><g id="图层_3" data-name="图层 3"><path class="cls-2" d="M449.77,231.05c-5.8,5.18-306.61,7.24-311.41,0s-5.77-153.33,0-162.53,306-7.7,311.41,0S455.57,225.88,449.77,231.05Z"/><path class="cls-3" d="M150.89,90.3q49.41.26,98.81.33,66.94,0,133.91-.08c14.57,0,29.15.06,43.71-.27a.94.94,0,0,0,0-1.88c-32.92-.74-65.89-.35-98.81-.39q-67-.09-133.91.15l-43.72.22a1,1,0,0,0,0,1.92Z"/><circle class="cls-3" cx="161.55" cy="78.33" r="4.09"/><circle class="cls-3" cx="177" cy="78.33" r="4.09"/><circle class="cls-3" cx="192.11" cy="78.33" r="4.09"/><path class="cls-4" d="M627.74,301.18c-5.69,4.91-301.14,6.86-305.85,0s-5.67-145.36,0-154.07,300.53-7.3,305.85,0S633.44,296.28,627.74,301.18Z"/><path class="cls-3" d="M334.2,167.8q48.49.25,97,.34,65.74,0,131.48-.09c14.34,0,28.69.06,43-.27a.94.94,0,0,0-.05-1.87c-32.31-.75-64.68-.35-97-.4q-65.75-.09-131.49.15l-43,.23a1,1,0,0,0,.05,1.91Z"/><ellipse class="cls-3" cx="344.67" cy="156.4" rx="4.02" ry="3.88"/><ellipse class="cls-3" cx="359.84" cy="156.4" rx="4.02" ry="3.88"/><ellipse class="cls-3" cx="374.68" cy="156.4" rx="4.02" ry="3.88"/></g><g id="图层_2" data-name="图层 2"><path class="cls-3" d="M435.14,123.47s1.43,20.94,1.56,22.53.9,20.21,11.12,24.18a49.07,49.07,0,0,0,19,3.38l1.61,4.5a8.87,8.87,0,0,0-4.81,5.47c-1.14,4-6.19,15.66,2.33,14.11s23.32-10.32,23.32-10.32l8.88-6.2s-.25-8.34-.77-12-1.61-16.75-1.59-17.2S497,140.33,497,140.33s4.75-6.44,4.3-9.56-2.84-6.91-3.1-8.69-32.32-16.57-33.3-16.9-29.49,5.17-29.49,5.17Z"/><path class="cls-5" d="M482.62,126.08c-2.61-5.36-5.31-7.63-5.9-11s13.82-.56,15.86-.46S487,134,484.1,133.42C484.1,133.42,483.26,127.4,482.62,126.08Z"/><path class="cls-5" d="M435.41,135.57s-7.82-2.09-10.21-16.49,4-23.72,9-29.12c10.18-10.79,30.14-13.73,40.69-8.42,3,1.53,4.3,2.67,6.24,3,2.4.42,3.79-1.48,7.3-.09,15.8,6.28,17,26.86,15.76,31.14-2.17,7.59-5,8.78-5,8.78s-.58-4.77-8.71-4.18c-2.87.2-1.9.86-4.2,1.16s0,2.43-3.33,3.63c-2.16.79-10.68-7.22-11.75-6.88s-1.14,5-4.39,2.08c-1.65-1.46,4.15,3.46,0,3.46-2.49,0-4.84-1.87-6-1.63-.84.17-.09,3.41-.93,3.46-2.54.14-6.92-2.33-7.86-2.87-3.62-2.11-3.28-2.85-4.27-2.42-3,1.27-1.54,4.11-4.85,3.88-8.57-.58-3.8-1.88-5.07,2C436.28,131,439.53,136.19,435.41,135.57Z"/><path class="cls-5" d="M445.64,116.13a3,3,0,0,1,3.62,1.1c1.84,2.71,4.68,7.29,3,7.25-2.41,0-8.36-5.43-9.27-6.35C442.46,117.62,444.11,116.76,445.64,116.13Z"/><path class="cls-6" d="M432.24,324.75,407,231.39s10-14.91,19.92-26.39c19.14-22.25,38.54-26,38.54-26s-8.23,17.91.57,18.63c13.53,1.11,32.2-19.14,32.2-19.14,18,5.53,30.75,23,39,60.14,5.91,26.59,11.57,53.68,10.4,70.78-.74,10.88-9.9,15.3-20.82,15.33H432.24"/><path class="cls-5" d="M223.24,218.76c0,4.56,37.14,114.27,37.14,114.27l175.07.09S409.86,220,404.18,216.24c-2.43-1.61-72.41,0-124.73.29C251.68,216.7,223.21,212.62,223.24,218.76Z"/><polygon class="cls-5" points="427.86 324.34 537.07 324.89 537.07 331.6 432.24 333.03 427.86 324.34"/><g class="cls-7"><g class="cls-8"><path class="cls-3" d="M449.52,188.69c19.87.47,40.29,1.52,60.13,0a.94.94,0,0,0,0-1.88c-19.83-1.53-40.25-.49-60.13,0a1,1,0,0,0,0,1.92Z"/><path class="cls-3" d="M427.89,208.41c14.68.24,29.35.33,44,.36s29.46.66,44-.38a.94.94,0,0,0,0-1.87c-14.58-1-29.44-.4-44-.38s-29.35.12-44,.36a1,1,0,0,0,.05,1.91Z"/><path class="cls-3" d="M418.16,228.13q28,.36,56,.36c18.61,0,37.43.66,56-.38a.94.94,0,0,0-.05-1.87c-18.59-1-37.42-.4-56-.38s-37.34.12-56,.36a1,1,0,0,0,0,1.91Z"/><path class="cls-3" d="M381.44,247.86q63.09.58,126.18.25c8.21,0,16.43.06,24.62-.28a.94.94,0,0,0,0-1.87c-18.05-.75-36.2-.37-54.26-.4-24,0-47.95-.08-71.92.15l-24.62.23a1,1,0,0,0,0,1.92Z"/><path class="cls-3" d="M381.44,267.58q65,.59,130,.25c8.54,0,17.11.07,25.65-.27a.94.94,0,0,0-.05-1.88c-18.69-.75-37.49-.37-56.2-.39-24.59,0-49.2-.09-73.79.14l-25.65.23a1,1,0,0,0,0,1.92Z"/><path class="cls-3" d="M381.44,287.3q66.3.6,132.6.25c8.54,0,17.09.07,25.62-.27a.94.94,0,0,0,0-1.88c-18.77-.74-37.64-.35-56.42-.39-25.39-.05-50.79-.08-76.18.14l-25.61.23a1,1,0,0,0,0,1.92Z"/><path class="cls-3" d="M381.44,307q56.3.6,112.59.26c7.59,0,15.19.07,22.77-.28a.94.94,0,0,0,0-1.87c-16.29-.75-32.7-.38-49-.4-21.19,0-42.4-.09-63.59.14l-22.76.24a1,1,0,0,0,0,1.91Z"/><path class="cls-3" d="M381.44,326.74q73.94.6,147.86.25c9.18,0,18.38.06,27.55-.27a.94.94,0,0,0,0-1.87c-20.85-.74-41.79-.36-62.64-.4-28.41-.05-56.82-.08-85.22.15l-27.55.23a1,1,0,0,0,0,1.91Z"/></g></g></g><g id="图层_1" data-name="图层 1"><text class="cls-9" transform="translate(830.98 199.69)">前端导航</text><text class="cls-10" transform="translate(830.98 252.9)">你的学习小助手</text><path class="cls-5" d="M226.36,218.3c29.51.78,59.05.69,88.58.62s59.05.26,88.54-.78a.9.9,0,0,0,0-1.79c-29.51-1-59.06-.71-88.59-.78s-59-.17-88.54.61a1.06,1.06,0,0,0,.05,2.12Z"/><path class="cls-3" d="M291.35,227.33c3.19.8,6.57.67,9.84.64s6.71.24,9.76-.82a.9.9,0,0,0,0-1.72c-3.06-1.06-6.61-.78-9.8-.81s-6.62-.15-9.81.66a1.07,1.07,0,0,0,.05,2.05Z"/><path class="cls-3" d="M242.77,227.33a78.16,78.16,0,0,0,13.85.64c4.56,0,9.32.24,13.78-.82a.9.9,0,0,0,0-1.72c-4.46-1.06-9.25-.78-13.81-.81a76.9,76.9,0,0,0-13.82.66c-1,.18-.94,1.87.05,2.05Z"/><path class="cls-5" d="M144.53,318.72c11.76.74,23.59.69,35.37.62,2.17,0,2.09-3.38-.08-3.37l-3.95,0c-2.15,0-2.06,3.34.08,3.33,11.77-.07,23.6.22,35.34-.77a.9.9,0,0,0,0-1.79c-11.76-1-23.6-.7-35.38-.77-2.15,0-2.06,3.32.08,3.33l4,0c2.17,0,2.09-3.36-.08-3.37-11.78-.06-23.59-.11-35.34.63a1.06,1.06,0,0,0,.05,2.12Z"/><path class="cls-5" d="M174.66,317.35c-2.32-10.45-5.5-20.71-8.63-30.94s-6.91-20.33-10-30.55a.9.9,0,0,0-1.72.52c3.06,10.22,5.46,20.73,8.48,31s6,20.58,9.81,30.58a1.06,1.06,0,0,0,2-.61Z"/><path class="cls-5" d="M402.39,220.34q7.62,28.4,15.35,56.75c2.55,9.28,5.21,18.54,7.82,27.81,2.68,9.51,4.8,19.48,8.61,28.61.52,1.25,2.86,1.19,2.61-.42-1.46-9.26-4.59-18.33-7.14-27.34-2.71-9.59-5.39-19.18-8.15-28.75-5.51-19.15-11.2-38.23-16.86-57.33a1.17,1.17,0,0,0-2.24.67Z"/><path class="cls-5" d="M271.94,194.29q-41-.66-81.95-.68c-3.53,0-8.93.51-11.56.51-1.72,0-1.65,2.67.06,2.67-1.11,0,1.53.22,2.25.27q3.21.23,6.44.25c7.47.07,15,0,22.44,0,16.82,0,33.64-.11,50.46-.47,4-.09,7.94-.14,11.91-.21a1.17,1.17,0,0,0-.05-2.33Z"/><path class="cls-5" d="M271.94,186.78q-41-.66-81.95-.68c-3.53,0-8.93.52-11.56.52a1.33,1.33,0,0,0,.06,2.66c-1.11,0,1.53.22,2.25.27q3.21.22,6.44.25c7.47.08,15,0,22.44,0,16.82,0,33.64-.11,50.46-.47,4-.09,7.94-.14,11.91-.21a1.17,1.17,0,0,0-.05-2.33Z"/><path class="cls-5" d="M224.21,223.72c5.32,17.37,10.58,34.75,16,52.1,2.73,8.76,5.42,17.55,8.22,26.3,2.72,8.49,5,17.35,8.54,25.55a1.11,1.11,0,0,0,2.12-.64c-1.81-8.74-5-17.32-7.59-25.84-2.69-8.79-5.48-17.54-8.23-26.3-5.44-17.33-11-34.62-16.61-51.9a1.27,1.27,0,0,0-2.43.73Z"/><path class="cls-5" d="M145.77,333.27c.12-2.23,1.88-16.79-1.29-16.72s-1.37,14.51-1.25,16.78a1.27,1.27,0,0,0,2.54-.06Z"/><path class="cls-5" d="M212.54,333.27c.11-2.23,1.87-16.79-1.3-16.72s-1.36,14.51-1.24,16.78a1.27,1.27,0,0,0,2.54-.06Z"/><path class="cls-5" d="M97.61,334.56q60.42.29,120.84.46,87.74.11,175.47-.13c13.52,0,28.89-.38,41.56-.29,1.91,0,1.83-2.94-.07-3-36.27-.28-75.16-.39-112.26-.45-59.3-.09-118.6-.11-177.9.24l-47.71.25c-1.85,0-1.77,2.86.07,2.87Z"/><path class="cls-5" d="M655.5,334.26c3.24.21,6.46.32,9.7.34,1.68,0,1.62-2.59-.06-2.6h-.29c-1.68,0-1.61,2.59.07,2.61a87.15,87.15,0,0,0,11.88-.37c1-.13,1.35-1.7.21-1.85a86.52,86.52,0,0,0-12.16-.39,1.31,1.31,0,0,0,.07,2.61h.28a1.3,1.3,0,0,0-.06-2.6c-3.24,0-6.45.13-9.69.34a1,1,0,0,0,0,1.92Z"/><path class="cls-5" d="M423.49,334.26l3.44,0a1,1,0,0,0,0-1.95l-11-.06-17.42-.08-4,0c-1.46,0-1.4,2.26.06,2.26,9.47.05,18.94.12,28.41.14,37.31.1,74.62,0,111.93.06,38.5,0,77.07.43,115.56-.39a.94.94,0,0,0,0-1.88c-59-1.26-118.07-.39-177.06-.36-23.56,0-47.12,0-70.67.13l-8.19,0a1.13,1.13,0,0,0,.06,2.26l10.93-.05,17.41-.08,4,0a1,1,0,0,0,0-1.95h-3.45a1,1,0,0,0,.05,1.92Z"/><path class="cls-5" d="M432.26,325.71q27.87.35,55.74.35c18.51,0,37.23.66,55.72-.37a.94.94,0,0,0,0-1.88c-18.5-1-37.23-.4-55.74-.37s-37.15.12-55.73.35a1,1,0,0,0,.05,1.92Z"/><path class="cls-5" d="M434.1,125.85c2.2,16.63-2.33,40.44,17.3,48.19,11.8,4.66,30.23,0,35.76-12.4.41-.93-.74-1.94-1.5-1.1-8.81,9.68-23,16.44-35.65,9.39-15.33-8.53-10.84-30.12-13.34-44.49-.25-1.44-2.76-1.06-2.57.41Z"/><path class="cls-5" d="M487.37,122c6.54-2,13.31,2.63,12.48,9.76-.82,7-7,8-12.8,7.77-1.31-.05-1.56,1.74-.57,2.34,7.23,4.44,16-3.07,16.16-10.55.2-8.52-8.06-14.07-15.95-11.6a1.19,1.19,0,0,0,.68,2.28Z"/><path class="cls-5" d="M462.83,128.81c-.08,3,.06,6.75,1.12,9.59.37,1,2.05,1.17,2.25-.05.51-3.12-.08-6.9-.76-10-.34-1.53-2.58-1-2.61.42Z"/><path class="cls-5" d="M440.36,130a20.63,20.63,0,0,0-.37,4.64c0,1.51-.27,3.22.31,4.63.32.77,1.62,1.18,2,.21a11.31,11.31,0,0,0,.45-4.57,21.64,21.64,0,0,0-.33-5,1.1,1.1,0,0,0-2.09,0Z"/><path class="cls-5" d="M450.42,134.05c-.16,5.43-7.11,12.41-2.39,17.67,2.49,2.77,8.51,2.25,8.39-2.23,0-1.06-1.61-1.89-2.34-.9-1.34,1.82-3.53,2-4.52-.4-.92-2.2,0-4.37.86-6.42,1.05-2.58,2-4.94,1.83-7.77a.92.92,0,0,0-1.83.05Z"/><path class="cls-5" d="M458,161.55a6.93,6.93,0,0,0,5.77-1.25c1.51-1.14,2.93-3.18,2.36-5.16a1,1,0,0,0-1.83-.19c-.64,1.16-.93,2.35-2,3.29a4.55,4.55,0,0,1-3.81,1.21c-1.36-.22-1.91,1.79-.53,2.1Z"/><path class="cls-5" d="M446.7,144.55c9.06-8.33,0-27.92-12.52-21.33-5.89,3.11-8.2,12.5-4.9,18.13,3.47,5.91,12.27,8.49,17.22,3a.9.9,0,0,0-1.12-1.38c-4.95,2.38-12,1.22-14.13-4.5-1.68-4.44.36-11.91,5.21-13.64,10.37-3.72,15.41,12,8.55,18.09C443.89,143.94,445.6,145.57,446.7,144.55Z"/><path class="cls-5" d="M472.78,143.26c11-9-.19-27.7-13.36-21.14-6.28,3.13-9.78,12.75-5.62,18.76s13.55,7.41,18.79,2.19c.59-.59-.07-1.85-.91-1.47-4.8,2.14-11.25,2.4-15-2-4-4.67-.84-13.29,4.45-15.64,10.86-4.83,19,10.41,10.19,17.47A1.16,1.16,0,1,0,472.78,143.26Z"/><path class="cls-5" d="M168.37,123.46c11.36-8.85,17.13-22.8,14.34-37.08a36.66,36.66,0,0,0-27.06-28.65c-13.71-3.34-30.46-.09-39.3,11.59-10.11,13.33-11.67,35.33-.67,48.47,13.11,15.67,36.94,18.18,52.73,5.29.79-.65-.28-1.92-1.12-1.38-14.36,9.23-33.39,8.91-46.31-2.84-12.59-11.44-12.55-31.85-4-45.81,7.25-11.77,21.79-15.74,34.93-13.79a34.2,34.2,0,0,1,27.53,23.26,35.31,35.31,0,0,1-12.35,39C166,122.38,167.19,124.38,168.37,123.46Z"/><path class="cls-5" d="M483.14,86.89a16,16,0,0,0,2.68-2.46c1.11-1.13,2.49-1.27,3.9-1.85a1.42,1.42,0,0,0-.44-2.77,7,7,0,0,0-5.1,1.85,29.9,29.9,0,0,1-2.64,2.64c-1.6,1.1-.05,3.66,1.6,2.59Z"/><path class="cls-5" d="M465.54,174c.24.56.42,1.16.66,1.72.14.32,0-.19,0,0a2.62,2.62,0,0,0,0,.28,4.19,4.19,0,0,0,1.68,3.08c.81.56,1.66-.28,1.73-1.05a4.73,4.73,0,0,0-.41-1.92c-.05-.14-.08-.29-.13-.42.08.22,0,.28,0,0a8.83,8.83,0,0,0-1.07-2.87c-.69-1.38-3.11-.32-2.49,1.12Z"/><path class="cls-5" d="M491.07,129.55a2.25,2.25,0,0,1,1.29,2.21c-.09,1.07-.89,1.44-1.51,2.17a1,1,0,0,0,.71,1.62c1.79-.1,3.06-2.06,3.24-3.71a4.74,4.74,0,0,0-2.47-4.59,1.31,1.31,0,0,0-1.26,2.3Z"/><path class="cls-5" d="M496,143.63a45.86,45.86,0,0,0-1,18.11c.63,5.49.63,11.81,2.16,17.08a1.12,1.12,0,0,0,2.13,0c1.23-4.87-.53-10.61-1.23-15.49a62.62,62.62,0,0,1-.17-19.18,1,1,0,0,0-1.86-.47Z"/><path class="cls-5" d="M464.24,178.35c-2,4.66-6.31,13.77-2,18.42,3.17,3.42,9,1.58,12.63.17A72.56,72.56,0,0,0,492,187.23c2.27-1.69,8-5.32,7.77-8.77-.16-2.05-3.37-2-3.2.08.13,1.56-5.42,5.45-6.73,6.48a72.74,72.74,0,0,1-12.79,8.19c-2.92,1.42-8.76,4.4-12,2.42-4.6-2.78.2-12.72,1.57-16,.67-1.59-1.7-2.91-2.37-1.31Z"/><path class="cls-5" d="M463.67,101.64c-4.65,7.52-4.3,17,4.09,21.9.88.51,2.07-.62,1.42-1.49-2.24-3-5.18-5.31-6.17-9.13s.22-7.27,1.87-10.61a.69.69,0,0,0-1.21-.67Z"/><path class="cls-5" d="M467.93,102.05c-3,6.72-1.9,18,6.13,20.84a.54.54,0,0,0,.5-.91c-6.26-4.88-9-12-6-19.68.14-.37-.47-.61-.63-.25Z"/><path class="cls-5" d="M468.21,146.1a15,15,0,0,0,1.22,3.4c.39.65,1.51.18,1.24-.56a14.88,14.88,0,0,0-1.84-3.12.35.35,0,0,0-.62.28Z"/><path class="cls-5" d="M436.69,104.85c-3.62,6.09-4.32,19.39,4.34,22,.84.25,1.74-.85,1.16-1.59-2.06-2.65-4.26-4.41-5.25-7.84a16.71,16.71,0,0,1,.95-11.9.69.69,0,0,0-1.2-.67Z"/><path class="cls-5" d="M475,79.31c1.75,0,3.35,2,4.14,3.27a5.1,5.1,0,0,1,.62,3.56,3.22,3.22,0,0,0,.06,1.69,1.08,1.08,0,0,0,1.58.6c2.39-1.41,1-5.91-.38-7.53S477,77.5,474.73,78c-.77.16-.54,1.36.22,1.35Z"/><path class="cls-5" d="M476.22,131c2.7-1.66,5.45-3.26,8.11-5,2.17-1.42,5.7-3,7.16-5.27a1.09,1.09,0,0,0-1-1.61c-2.66.42-5.56,2.9-7.78,4.31-2.68,1.7-5.27,3.54-7.9,5.32a1.32,1.32,0,0,0,1.38,2.24Z"/><path class="cls-5" d="M449.18,134.39c.73.13,1.47.3,2.21.38.91.09,2.32.12,3-.52a1.24,1.24,0,0,0,0-1.71c-.53-.63-2.12-.76-2.86-.79s-1.38,0-2.06.06c-1.43,0-1.78,2.32-.28,2.58Z"/><path class="cls-6" d="M333.73,168.16c-3.83,2.4-72.85,3-74.51,0s-1.57-38.92,0-41.95,71.88-2.5,74.51,0S337.56,165.75,333.73,168.16Z"/><path class="cls-5" d="M299.52,171.5l-.1,8.17,2-1.21c-1.9-1.39-3.78-2.79-5.68-4.16-1.28-.92-2.61-1.76-3.95-2.59-.46-.29-.92-.61-1.4-.87-.15-.09-.91-.49-.57-.25-1.05-.75-2,1-1,1.75-.75-.53,0,.1.21.32.4.37.85.69,1.27,1,1.26,1,2.52,2,3.84,3,2,1.4,4,2.76,5.94,4.14a1.36,1.36,0,0,0,2-1.22l-.1-8.16a1.25,1.25,0,0,0-2.49.06Z"/><path class="cls-5" d="M286.45,138.09c-2.57,2.74-5.21,5.41-7.67,8.24a1.31,1.31,0,0,0,0,1.8c1.92,2.05,4,5.33,6.64,6.45.75.32,1.9-.29,1.53-1.24-1.11-2.78-4.31-5-6.41-7.05l0,1.8c2.37-2.94,4.57-6,6.82-9.05.52-.69-.37-1.61-1-.95Z"/><path class="cls-5" d="M305.07,138.93c2.23,3,4.4,6,6.74,8.95l.17-1.55c-2,2-5.23,4.17-6.28,6.8-.29.74.28,2,1.24,1.53,2.75-1.18,4.85-4.41,6.88-6.57a1.31,1.31,0,0,0,0-1.8c-2.46-2.82-5.09-5.49-7.65-8.22-.53-.56-1.53.23-1.06.86Z"/><path class="cls-5" d="M297.9,133.93c-1.45,4.63-2.92,9.26-4.32,13.91-.89,2.94-1.77,5.89-2.67,8.83-.34,1.12-1.16,2.66-.82,3.85A1.16,1.16,0,0,0,292,161c.89-.78,1.05-2.64,1.35-3.7.85-2.95,1.73-5.9,2.59-8.85,1.37-4.65,2.66-9.33,4-14,.37-1.3-1.62-1.78-2-.51Z"/><path class="cls-5" d="M464.77,147.76l.4,1.1a9.47,9.47,0,0,0,.55,1.49.8.8,0,0,0,1,.31.82.82,0,0,0,.44-1,10.83,10.83,0,0,0-.48-1.35l-.36-1.06c-.34-1-1.92-.51-1.56.47Z"/><path class="cls-5" d="M439.59,149.65l.4,1.09a11.2,11.2,0,0,0,.55,1.5.79.79,0,0,0,1,.3.82.82,0,0,0,.44-1,8.71,8.71,0,0,0-.48-1.35l-.36-1c-.34-1-1.91-.51-1.56.47Z"/><path class="cls-5" d="M442.79,148.92l.26.68c.06.16.13.33.18.49a1.73,1.73,0,0,0,.19.51.8.8,0,0,0,1.49-.44,4.41,4.41,0,0,0-.33-1l-.23-.68a.81.81,0,1,0-1.56.47Z"/><path class="cls-5" d="M491.82,223.38c1.05,10.33,2.48,20.61,3.66,30.92.48,4.18.9,8.36,1.1,12.57.24,5-.3,10.2.44,15.1.18,1.17,2.06,1.68,2.3.25,1.46-8.62-.37-18.62-1.27-27.28-1.11-10.57-2.65-21.08-4-31.61-.18-1.39-2.35-1.38-2.2,0Z"/><path class="cls-5" d="M435.49,293.32c12.19-1.23,24.5-1.46,36.74-1.88,6.52-.23,13-.48,19.54-.8,4.66-.23,10.27-.07,14.73-1.53a1.15,1.15,0,0,0-.36-2.24c-5-.53-10.66.34-15.7.57-6.33.29-12.66.5-19,.74-12,.46-24.08.73-36,2-2,.21-2,3.37.08,3.17Z"/><path class="cls-5" d="M434.57,208.32a134.71,134.71,0,0,0-10.61,22c-2.94,8-6.72,17.31-7.09,25.86a1.28,1.28,0,0,0,2.38.59c3.75-7.39,4.92-16.44,7.53-24.33a180.58,180.58,0,0,1,9.54-23.13,1,1,0,0,0-1.75-1Z"/><path class="cls-3" d="M337.51,275.13c.9,7.57-2.95,13.7-8.61,13.7s-11.08-6.13-12.12-13.7,2.81-13.69,8.6-13.69S336.6,267.57,337.51,275.13Z"/><rect class="cls-3" x="537.07" y="317.09" width="75.48" height="14.51"/><path class="cls-5" d="M530.21,318.15c13.31.78,26.68.68,40,.61s26.7.26,40-.78a.9.9,0,0,0-.05-1.79c-13.29-1-26.68-.71-40-.78s-26.69-.17-40,.61a1.07,1.07,0,0,0,.05,2.13Z"/><path class="cls-5" d="M536,316.83a31.45,31.45,0,0,0-.65,8.05c0,2.16,3.34,2.08,3.37-.08,0-.65,0-1.29,0-1.93a1.66,1.66,0,0,0-3.31.09c.07,2.63-.16,5.47.8,8a.9.9,0,0,0,1.72-.05c1-2.5.72-5.36.79-8,0-2.12-3.26-2-3.31.09,0,.64,0,1.28,0,1.92,0,2.16,3.4,2.08,3.37-.08a31.23,31.23,0,0,0-.67-8,1.07,1.07,0,0,0-2.05.05Z"/><path class="cls-5" d="M611.51,317.76a31.45,31.45,0,0,0-.65,8.05c0,2.17,3.34,2.08,3.36-.08,0-.64,0-1.28,0-1.92a1.65,1.65,0,0,0-3.3.08c.06,2.63-.16,5.48.8,8a.9.9,0,0,0,1.72,0c1-2.5.72-5.37.78-8,.06-2.13-3.25-2-3.3.08,0,.64,0,1.28,0,1.92,0,2.17,3.39,2.09,3.36-.08a30.78,30.78,0,0,0-.66-8,1.07,1.07,0,0,0-2,.05Z"/><path class="cls-5" d="M530.22,333.8c13.72.32,27.44.56,41.17.58,8.1,0,16.2-.1,24.31-.15,4.4,0,9.53.65,13.84-.4a1.49,1.49,0,0,0-.07-2.85c-4.31-1.05-9.47-.35-13.86-.38-8.11-.06-16.21-.17-24.32-.17-13.72,0-27.43.27-41.14.5a1.44,1.44,0,0,0,.07,2.87Z"/><path class="cls-6" d="M542.48,322.27c-4,2.57-4.51,5.31,3.45,5.31s60.43,1.85,60.7,0,5.57-5-1.33-5.31S545.4,320.42,542.48,322.27Z"/><rect class="cls-3" x="526.74" y="294.77" width="75.48" height="20.29" transform="translate(1128.96 609.83) rotate(-180)"/><path class="cls-5" d="M609.08,293.71c-13.31-.78-26.69-.68-40-.62s-26.7-.26-40,.78a.9.9,0,0,0,0,1.79c13.29,1,26.69.71,40,.78s26.68.17,40-.61a1.06,1.06,0,0,0,0-2.12Z"/><path class="cls-5" d="M601.19,294.51a60.13,60.13,0,0,0-.65,11.14l3.36-.09c0-.89,0-1.79,0-2.68a1.65,1.65,0,0,0-3.3.08c.06,3.68-.16,7.48.79,11.05a.9.9,0,0,0,1.73,0c.95-3.58.72-7.41.78-11.09l-3.3.08c0,.9,0,1.79,0,2.69,0,2.16,3.38,2.08,3.36-.09a61.48,61.48,0,0,0-.66-11.1,1.07,1.07,0,0,0-2,.05Z"/><path class="cls-5" d="M525.71,295.82a60,60,0,0,0-.65,11.13l3.36-.08c0-.9,0-1.79,0-2.69,0-2.12-3.34-2-3.3.08.06,3.68-.16,7.48.79,11.06a.91.91,0,0,0,1.73,0c.95-3.59.72-7.41.78-11.1l-3.3.08c0,.9,0,1.8,0,2.69,0,2.17,3.38,2.08,3.36-.08a60.58,60.58,0,0,0-.66-11.1,1.07,1.07,0,0,0-2,.05Z"/><path class="cls-5" d="M609.07,314.69c-13.73-.21-27.45-.48-41.18-.48-8.1,0-16.2.11-24.3.17-4.41,0-9.53-.65-13.85.4a1.49,1.49,0,0,0,.07,2.85c4.31,1.06,9.47.35,13.87.38,8.1.05,16.21.16,24.31.15,13.72,0,27.43-.26,41.15-.6a1.44,1.44,0,0,0-.07-2.87Z"/><path class="cls-6" d="M596.8,302c4,3.59,4.51,7.42-3.44,7.42s-60.44,2.59-60.71,0-5.56-7.05,1.33-7.42S593.89,299.43,596.8,302Z"/><path class="cls-5" d="M152.21,271.69C167.77,250.42,182.06,228,196,205.57c2-3.17,3.67-6.56,5.71-9.68.64-1-.94-1.82-1.57-.87-5.27,8.06-11.81,16.82-17.35,25.2-9,13.54-18,27.07-26.63,40.8-2,3.17-3.9,6.4-5.79,9.64-.71,1.22,1.08,2.1,1.86,1Z"/><path class="cls-6" d="M151.28,322.76c-3.21,1.19-1.05,4.42,0,4.67s50.82.45,51.73,0,2.73-3,0-3.73S155.08,321.35,151.28,322.76Z"/><path class="cls-3" d="M431.79,101.41a27.45,27.45,0,0,0-2.67,9.64c-.14,1.74-.68,5.63,1.39,6.53a1,1,0,0,0,1.08-.17c1.37-1.14.56-3.67.44-5.18a15.84,15.84,0,0,1,1.81-9.69c.74-1.32-1.39-2.48-2-1.13Z"/><path class="cls-3" d="M437.37,92.45c-.81.67-1.57,1.43-2.34,2.14s-1.86,2-1.79,3.15a1.46,1.46,0,0,0,2.2,1.19c1-.52,1.26-1.72,1.65-2.68a3.56,3.56,0,0,1,1.74-2c1.4-.84-.12-2.91-1.46-1.8Z"/><path class="cls-5" d="M143.46,69.05c-.07,4.76-.16,9.53-.18,14.3,0,3,0,5.91,0,8.86,0,1.15-.39,3,.29,4a1.17,1.17,0,0,0,2,0c.61-1,.26-2.64.26-3.69,0-3.06,0-6.13-.05-9.19,0-4.77-.1-9.53-.18-14.29a1,1,0,0,0-2.08,0Z"/><path class="cls-5" d="M165.93,94.57c-4-.07-8-.16-12-.18-2.2,0-8.48-1.21-10.26.43a1.16,1.16,0,0,0,0,1.62c1.73,1.61,8.15.41,10.28.4,4,0,8-.11,12-.18a1,1,0,0,0,0-2.09Z"/></g></svg>