<svg width="1045" height="279" viewBox="0 0 1045 279" fill="none" xmlns="http://www.w3.org/2000/svg">
<g clip-path="url(#clip0)">
<path d="M353.58 174.56C347.78 179.74 46.9701 181.8 42.1701 174.56C37.3701 167.32 36.4001 21.23 42.1701 12.03C47.9401 2.82999 348.17 4.32999 353.58 12.03C358.99 19.73 359.38 169.39 353.58 174.56Z" fill="#EFEFEF"/>
<path d="M54.7001 33.81C87.6401 33.9833 120.577 34.0933 153.51 34.14C198.143 34.14 242.78 34.1133 287.42 34.06C301.99 34.06 316.57 34.12 331.13 33.79C331.379 33.79 331.618 33.691 331.795 33.5147C331.971 33.3384 332.07 33.0993 332.07 32.85C332.07 32.6007 331.971 32.3616 331.795 32.1853C331.618 32.009 331.379 31.91 331.13 31.91C298.21 31.17 265.24 31.56 232.32 31.52C187.653 31.46 143.017 31.51 98.4101 31.67L54.6901 31.89C54.4824 31.9506 54.2999 32.0769 54.1701 32.25C54.0403 32.4231 53.9701 32.6336 53.9701 32.85C53.9701 33.0664 54.0403 33.2769 54.1701 33.45C54.2999 33.6231 54.4824 33.7494 54.6901 33.81H54.7001Z" fill="white"/>
<path d="M65.36 25.93C67.6189 25.93 69.45 24.0988 69.45 21.84C69.45 19.5812 67.6189 17.75 65.36 17.75C63.1012 17.75 61.27 19.5812 61.27 21.84C61.27 24.0988 63.1012 25.93 65.36 25.93Z" fill="white"/>
<path d="M80.8101 25.93C83.0689 25.93 84.9001 24.0988 84.9001 21.84C84.9001 19.5812 83.0689 17.75 80.8101 17.75C78.5512 17.75 76.7201 19.5812 76.7201 21.84C76.7201 24.0988 78.5512 25.93 80.8101 25.93Z" fill="white"/>
<path d="M95.9201 25.93C98.1789 25.93 100.01 24.0988 100.01 21.84C100.01 19.5812 98.1789 17.75 95.9201 17.75C93.6612 17.75 91.8301 19.5812 91.8301 21.84C91.8301 24.0988 93.6612 25.93 95.9201 25.93Z" fill="white"/>
<path d="M531.55 244.69C525.86 249.6 230.41 251.55 225.7 244.69C220.99 237.83 220.03 99.33 225.7 90.62C231.37 81.91 526.23 83.32 531.55 90.62C536.87 97.92 537.25 239.79 531.55 244.69Z" fill="#EFEFEF" stroke="white" stroke-width="6" stroke-miterlimit="10"/>
<path d="M238.03 111.31C270.363 111.477 302.697 111.59 335.03 111.65C378.863 111.65 422.69 111.62 466.51 111.56C480.85 111.56 495.2 111.62 509.51 111.29C509.756 111.258 509.98 111.129 510.132 110.932C510.284 110.735 510.351 110.487 510.32 110.24C510.295 110.024 510.195 109.824 510.038 109.675C509.881 109.525 509.677 109.435 509.46 109.42C477.15 108.67 444.78 109.07 412.46 109.02C368.633 108.96 324.803 109.01 280.97 109.17L237.97 109.4C237.768 109.468 237.593 109.6 237.47 109.775C237.348 109.95 237.285 110.16 237.291 110.373C237.296 110.587 237.37 110.793 237.501 110.962C237.633 111.13 237.814 111.252 238.02 111.31H238.03Z" fill="white"/>
<path d="M248.48 103.79C250.7 103.79 252.5 102.053 252.5 99.91C252.5 97.7671 250.7 96.03 248.48 96.03C246.26 96.03 244.46 97.7671 244.46 99.91C244.46 102.053 246.26 103.79 248.48 103.79Z" fill="white"/>
<path d="M263.65 103.79C265.87 103.79 267.67 102.053 267.67 99.91C267.67 97.7671 265.87 96.03 263.65 96.03C261.43 96.03 259.63 97.7671 259.63 99.91C259.63 102.053 261.43 103.79 263.65 103.79Z" fill="white"/>
<path d="M278.49 103.79C280.71 103.79 282.51 102.053 282.51 99.91C282.51 97.7671 280.71 96.03 278.49 96.03C276.27 96.03 274.47 97.7671 274.47 99.91C274.47 102.053 276.27 103.79 278.49 103.79Z" fill="white"/>
<path d="M338.95 66.98C338.95 66.98 340.38 87.92 340.51 89.51C340.64 91.1 341.41 109.72 351.63 113.69C357.678 116.06 364.136 117.209 370.63 117.07L372.24 121.57C371.097 122.09 370.078 122.846 369.248 123.789C368.419 124.732 367.8 125.84 367.43 127.04C366.29 131.04 361.24 142.7 369.76 141.15C378.28 139.6 393.08 130.83 393.08 130.83L401.96 124.63C401.96 124.63 401.71 116.29 401.19 112.63C400.67 108.97 399.58 95.88 399.6 95.43C399.62 94.98 400.81 83.84 400.81 83.84C400.81 83.84 405.56 77.4 405.11 74.28C404.66 71.16 402.27 67.37 402.01 65.59C401.75 63.81 369.69 49.02 368.71 48.69C367.73 48.36 339.22 53.86 339.22 53.86L338.95 66.98Z" fill="white"/>
<path d="M386.43 69.59C383.82 64.23 381.12 61.96 380.53 58.59C379.94 55.22 394.35 58.03 396.39 58.13C398.43 58.23 390.81 77.51 387.91 76.93C387.91 76.93 387.03 70.91 386.43 69.59Z" fill="#333333"/>
<path d="M339.22 79.08C339.22 79.08 331.4 76.99 329.01 62.59C326.62 48.19 333.01 38.87 338.01 33.47C348.19 22.68 368.15 19.74 378.7 25.05C381.7 26.58 383 27.72 384.94 28.05C387.34 28.47 388.73 26.57 392.24 27.96C408.04 34.24 409.24 54.82 408 59.1C405.83 66.69 403 67.88 403 67.88C403 67.88 402.42 63.11 394.29 63.7C391.42 63.9 392.39 64.56 390.09 64.86C387.79 65.16 390.09 67.29 386.76 68.49C384.6 69.28 376.08 61.27 375.01 61.61C373.94 61.95 373.87 66.61 370.62 63.69C368.97 62.23 374.77 67.15 370.62 67.15C368.13 67.15 365.78 65.28 364.62 65.52C363.78 65.69 364.53 68.93 363.69 68.98C361.15 69.12 356.77 66.65 355.83 66.11C352.21 64 352.55 63.26 351.56 63.69C348.56 64.96 350.02 67.8 346.71 67.57C338.14 66.99 342.91 65.69 341.64 69.57C340.09 74.51 343.34 79.7 339.22 79.08Z" fill="#333333"/>
<path d="M349.45 59.64C350.088 59.3798 350.796 59.3471 351.455 59.5474C352.114 59.7477 352.685 60.1688 353.07 60.74C354.91 63.45 357.75 68.03 356.07 67.99C353.66 67.99 347.71 62.56 346.8 61.64C346.27 61.13 347.92 60.27 349.45 59.64Z" fill="#333333"/>
<path d="M336.03 268.26L310.79 174.9C316.979 165.767 323.635 156.958 330.73 148.51C349.87 126.26 369.27 122.51 369.27 122.51C369.27 122.51 361.04 140.42 369.84 141.14C383.37 142.25 402.04 122 402.04 122C420.04 127.53 432.79 145 441.04 182.14C446.95 208.73 452.61 235.82 451.44 252.92C450.7 263.8 441.54 268.22 430.62 268.25H336.03" fill="#FF842C"/>
<path d="M127.03 162.27C127.03 166.83 164.19 276.51 164.19 276.51L339.26 276.6C339.26 276.6 313.67 163.51 308.03 159.75C305.6 158.14 235.62 159.75 183.3 160.04C155.49 160.21 127.03 156.13 127.03 162.27Z" fill="#333333"/>
<path d="M331.67 267.85L440.88 268.4V275.11L336.05 276.54L331.67 267.85Z" fill="#333333"/>
<g opacity="0.39">
<g opacity="0.39">
<path opacity="0.39" d="M353.33 132.2C373.2 132.67 393.62 133.72 413.46 132.2C413.709 132.2 413.948 132.101 414.125 131.925C414.301 131.748 414.4 131.509 414.4 131.26C414.4 131.011 414.301 130.772 414.125 130.595C413.948 130.419 413.709 130.32 413.46 130.32C393.63 128.79 373.21 129.83 353.33 130.32C353.204 130.357 353.086 130.418 352.984 130.5C352.882 130.582 352.796 130.684 352.733 130.799C352.67 130.914 352.63 131.041 352.616 131.171C352.602 131.302 352.613 131.434 352.65 131.56C352.697 131.721 352.784 131.868 352.903 131.987C353.022 132.106 353.169 132.193 353.33 132.24V132.2Z" fill="white"/>
<path opacity="0.39" d="M331.7 151.92C346.38 152.16 361.05 152.25 375.7 152.28C390.35 152.31 405.16 152.94 419.7 151.9C419.942 151.875 420.165 151.756 420.322 151.57C420.479 151.383 420.557 151.143 420.54 150.9C420.508 150.689 420.41 150.493 420.258 150.342C420.107 150.191 419.911 150.092 419.7 150.06C405.12 149.06 390.26 149.66 375.7 149.68C361.14 149.7 346.35 149.8 331.7 150.04C331.498 150.108 331.323 150.24 331.2 150.415C331.078 150.59 331.015 150.8 331.021 151.013C331.026 151.227 331.1 151.433 331.231 151.602C331.363 151.77 331.544 151.892 331.75 151.95L331.7 151.92Z" fill="white"/>
<path opacity="0.39" d="M321.97 171.64C340.637 171.88 359.303 172 377.97 172C396.58 172 415.4 172.66 433.97 171.62C434.201 171.591 434.413 171.476 434.565 171.299C434.717 171.122 434.797 170.895 434.791 170.662C434.785 170.429 434.692 170.207 434.531 170.038C434.37 169.87 434.153 169.767 433.92 169.75C415.33 168.75 396.5 169.35 377.92 169.37C359.34 169.39 340.58 169.49 321.92 169.73C321.669 169.81 321.459 169.987 321.338 170.221C321.216 170.455 321.191 170.728 321.27 170.98C321.317 171.134 321.401 171.275 321.514 171.39C321.627 171.505 321.767 171.591 321.92 171.64H321.97Z" fill="white"/>
<path opacity="0.39" d="M285.25 191.37C327.31 191.757 369.37 191.84 411.43 191.62C419.64 191.62 427.86 191.68 436.05 191.34C436.292 191.315 436.515 191.196 436.672 191.01C436.829 190.823 436.907 190.583 436.89 190.34C436.855 190.127 436.753 189.932 436.598 189.782C436.443 189.633 436.244 189.537 436.03 189.51C418.03 188.76 399.83 189.14 381.77 189.11C357.77 189.11 333.82 189.03 309.85 189.26L285.23 189.49C284.975 189.564 284.761 189.737 284.633 189.969C284.506 190.202 284.476 190.475 284.55 190.73C284.605 190.886 284.697 191.027 284.819 191.138C284.942 191.25 285.089 191.33 285.25 191.37Z" fill="white"/>
<path opacity="0.39" d="M285.25 211.09C328.583 211.483 371.917 211.567 415.25 211.34C423.79 211.34 432.36 211.41 440.9 211.07C441.149 211.07 441.388 210.971 441.565 210.795C441.741 210.618 441.84 210.379 441.84 210.13C441.84 209.881 441.741 209.642 441.565 209.465C441.388 209.289 441.149 209.19 440.9 209.19C422.21 208.44 403.41 208.82 384.7 208.8C360.11 208.8 335.5 208.71 310.91 208.94L285.26 209.17C285.052 209.231 284.87 209.357 284.74 209.53C284.61 209.703 284.54 209.914 284.54 210.13C284.54 210.346 284.61 210.557 284.74 210.73C284.87 210.903 285.052 211.029 285.26 211.09H285.25Z" fill="white"/>
<path opacity="0.39" d="M285.25 230.81C329.45 231.21 373.65 231.293 417.85 231.06C426.39 231.06 434.94 231.13 443.47 230.79C443.719 230.79 443.958 230.691 444.135 230.515C444.311 230.338 444.41 230.099 444.41 229.85C444.41 229.601 444.311 229.362 444.135 229.185C443.958 229.009 443.719 228.91 443.47 228.91C424.7 228.17 405.83 228.56 387.05 228.52C361.66 228.47 336.26 228.44 310.87 228.66L285.26 228.89C285.052 228.951 284.87 229.077 284.74 229.25C284.61 229.423 284.54 229.634 284.54 229.85C284.54 230.066 284.61 230.277 284.74 230.45C284.87 230.623 285.052 230.749 285.26 230.81H285.25Z" fill="white"/>
<path opacity="0.39" d="M285.25 250.51C322.79 250.91 360.32 250.997 397.84 250.77C405.43 250.77 413.03 250.84 420.61 250.49C420.852 250.465 421.075 250.346 421.232 250.16C421.389 249.973 421.467 249.733 421.45 249.49C421.418 249.279 421.319 249.083 421.168 248.932C421.017 248.781 420.821 248.682 420.61 248.65C404.32 247.9 387.91 248.27 371.61 248.25C350.42 248.25 329.21 248.16 308.02 248.39L285.26 248.63C285.009 248.71 284.799 248.887 284.677 249.121C284.556 249.355 284.531 249.628 284.61 249.88C284.657 250.034 284.741 250.175 284.854 250.29C284.967 250.405 285.106 250.491 285.26 250.54L285.25 250.51Z" fill="white"/>
<path opacity="0.39" d="M285.25 270.25C334.55 270.65 383.837 270.733 433.11 270.5C442.29 270.5 451.49 270.56 460.66 270.23C460.902 270.205 461.125 270.086 461.282 269.9C461.439 269.713 461.517 269.473 461.5 269.23C461.468 269.019 461.369 268.823 461.218 268.672C461.067 268.521 460.871 268.422 460.66 268.39C439.81 267.65 418.87 268.03 398.02 267.99C369.61 267.94 341.2 267.91 312.8 268.14L285.25 268.37C284.999 268.45 284.789 268.627 284.667 268.861C284.546 269.095 284.521 269.368 284.6 269.62C284.647 269.774 284.731 269.915 284.844 270.03C284.957 270.145 285.096 270.231 285.25 270.28V270.25Z" fill="white"/>
</g>
</g>
<path d="M731.56 144.02L735.77 139.02L736.23 135.54H725.79L724.6 144.05H710.69L717.09 99.05H755.36L749.87 138.05C749.639 139.741 748.77 141.28 747.44 142.35C746.135 143.486 744.46 144.105 742.73 144.09L731.56 144.02ZM727.44 86.81L727.16 81.59L724.23 78.11H744.38L744.83 86.81H762.32L764.24 81.04L761.77 78.11H782.64L779.64 86.81H790.03L788.87 95.51H715.81L717.03 86.81H727.44ZM726.98 126.81H737.51L738.24 121.59H727.71L726.98 126.81ZM728.98 112.9H739.43L740.16 107.68H729.73L728.98 112.9ZM768.91 101.51L764.15 135.51H753.71L758.47 101.51H768.91ZM759.39 143.9L767.63 135.39L772.76 98.95H786.67L781.18 137.86C780.939 139.557 780.055 141.097 778.71 142.16C777.411 143.28 775.755 143.897 774.04 143.9H759.39Z" fill="#333333"/>
<path d="M818.71 130.29L821.28 129.93L820.09 138.62L792.9 142.28L794.18 133.59L798.18 133.04L799.64 99.04H810.17L809.03 126.72L815.44 99.07H825.97L818.71 130.29ZM807.71 87.72L808.53 81.95L806.33 78.38H822.26L821.03 87.72H827.26L826.13 95.51H799.4L800.49 87.73L807.71 87.72ZM855.22 143.93L858.52 140.18L861.52 118.66H859.14L855.84 142.1H846.03L849.32 118.66H847.03L843.74 142.1H834.49L837.79 118.66H835.41L831.84 143.93H820.94L825.34 112.35H838.7L839.8 109.35H825.95L827.14 100.92H875.03L873.84 109.35H856.89L855.79 112.35H873.28L869.71 137.61C869.522 139.246 868.889 140.799 867.88 142.1C867.51 142.641 867.019 143.088 866.447 143.405C865.874 143.723 865.235 143.903 864.58 143.93H855.22ZM840.12 90.83H844.69L846.07 81.22L843.78 78.38H861.03L859.29 90.83H863.03L864.59 79.76H876.31L873.75 97.97H827.5L830.03 79.85H841.65L840.12 90.83Z" fill="#333333"/>
<path d="M890.58 83.24L887.65 79.85H957.14L954.48 98.85H905.78L905.32 102.42H954.03L957.97 98.94L956.23 111.12H942.32L941.86 114.6H957.51L956.32 123.29H940.58L938.58 137.94C938.371 139.641 937.52 141.197 936.2 142.29C934.902 143.405 933.241 144.006 931.53 143.98H913.41L921.55 135.47L923.2 123.29H879.78L880.97 114.6H924.45L924.91 111.12H886.64L890.58 83.24ZM910.81 137.24H893.42L891.5 125.98H908.89L910.81 137.24ZM907.24 88.51L906.88 91.08H938.19L938.55 88.51H907.24Z" fill="#333333"/>
<path d="M966.84 115.51H965.1L966.38 106.51H968.38L971.38 88.84L970.65 83.07H979.03L980.49 79.69L979.58 78.13H993.31L991.02 83.07H1002.83L999.54 106.51H1001.64L1000.36 115.51H998.25L994.77 140.69C994.661 141.583 994.239 142.408 993.58 143.02C993 143.53 992.252 143.808 991.48 143.8H978.39L984.25 137.48L987.36 115.48H977.29L972.53 143.77H962.03L966.84 115.51ZM977.55 117.98H984.79L984.14 131.98H976.64L977.55 117.98ZM978.83 106.51H988.63L990.83 91.04H981.49L978.83 106.51ZM981.49 93.6H988.72L988.54 104.13H981.03L981.49 93.6ZM1018.38 143.86L1023.38 108.52H1017.38L1009.03 143.89H995.75L1005.75 98.89H1038.16L1033.22 133.59H1035.78L1039.53 130.11L1037.53 143.93L1018.38 143.86ZM1017.03 85.8L1017.67 81.68L1015.38 78.2H1033.97L1032.78 85.8H1044.22L1042.94 94.59H1002.73L1004.01 85.8H1017.03Z" fill="#333333"/>
<path d="M722.59 175.45C721.839 177.362 720.943 179.214 719.91 180.99V198.32H718.26V183.51C717.421 184.717 716.499 185.863 715.5 186.94C715.227 186.349 714.892 185.789 714.5 185.27C717.364 182.32 719.569 178.796 720.97 174.93L722.59 175.45ZM731.52 181.45V196.2C731.52 197.2 731.31 197.72 730.67 198.01C729.58 198.329 728.443 198.451 727.31 198.37C727.179 197.759 726.97 197.168 726.69 196.61C727.93 196.66 729.07 196.61 729.4 196.61C729.73 196.61 729.84 196.5 729.84 196.17V181.51H725.74C725.07 183.108 724.232 184.629 723.24 186.05C722.797 185.662 722.333 185.298 721.85 184.96C723.78 182.54 725.2 178.83 726.05 175.01L727.73 175.4C727.354 176.927 726.897 178.432 726.36 179.91H737.14L737.42 179.83L738.56 180.12C738.25 181.97 737.78 184.12 737.42 185.51L735.98 185.22C736.18 184.22 736.44 182.85 736.67 181.51L731.52 181.45ZM727.34 186.07C726.628 189.208 725.343 192.188 723.55 194.86L722.08 193.86C723.841 191.419 725.071 188.636 725.69 185.69L727.34 186.07ZM735.03 185.51C736.533 188.228 737.647 191.143 738.34 194.17L736.71 194.72C736.034 191.684 734.958 188.752 733.51 186L735.03 185.51Z" fill="#333333"/>
<path d="M771.65 175.16C771.24 176.43 770.75 177.87 770.29 178.98H774.64V195.64H767.42V197.7H765.85V178.98H768.71C769.19 177.618 769.561 176.22 769.82 174.8L771.65 175.16ZM773.03 180.51H767.38V186.13H773.03V180.51ZM773.03 194.07V187.67H767.38V194.07H773.03ZM787.24 179.81C786.83 191.65 786.47 195.59 785.44 196.81C785.212 197.125 784.911 197.381 784.562 197.555C784.214 197.729 783.829 197.816 783.44 197.81C782.174 197.88 780.906 197.88 779.64 197.81C779.581 197.215 779.39 196.641 779.08 196.13C780.75 196.29 782.3 196.29 782.87 196.29C783.068 196.323 783.272 196.305 783.461 196.237C783.65 196.168 783.819 196.052 783.95 195.9C784.8 195 785.21 191.03 785.55 180.56H778.79C778.15 182.172 777.339 183.711 776.37 185.15C775.909 184.791 775.428 184.457 774.93 184.15C776.861 181.309 778.201 178.109 778.87 174.74L780.52 175.1C780.19 176.39 779.83 177.68 779.39 178.92H787.2L787.24 179.81ZM781.75 191.41C780.574 189.309 779.237 187.303 777.75 185.41L779.07 184.64C780.615 186.479 782.006 188.443 783.23 190.51L781.75 191.41Z" fill="#333333"/>
<path d="M837.27 190.97H826.7V196.18C826.7 197.29 826.39 197.78 825.51 198.04C823.956 198.34 822.37 198.441 820.79 198.34C820.61 197.759 820.369 197.199 820.07 196.67C821.483 196.737 822.893 196.737 824.3 196.67C824.84 196.67 824.97 196.52 824.97 196.16V190.95H814.6V189.35H824.97V187.51C826.643 186.899 828.235 186.087 829.71 185.09H818.86V183.51H831.67L832.03 183.43L833.17 184.28C831.22 185.909 829.04 187.24 826.7 188.23V189.39H837.27V190.97ZM816.79 184.16H815.17V179.16H819.47C818.828 177.949 818.061 176.81 817.18 175.76L818.6 175.12C819.589 176.172 820.421 177.361 821.07 178.65L820.07 179.16H826.07C825.576 177.747 824.904 176.403 824.07 175.16L825.56 174.62C826.474 175.833 827.189 177.183 827.68 178.62L826.41 179.13H830.72C831.742 177.828 832.649 176.44 833.43 174.98L835.13 175.6C834.324 176.82 833.457 177.999 832.53 179.13H836.86V184.13H835.18V180.7H816.79V184.16Z" fill="#333333"/>
<path d="M881.03 189.51C875.69 191.39 869.84 193.4 865.89 194.74L865.27 193.01C868.99 191.88 875.1 189.84 880.69 187.91L881.03 189.51ZM885.26 177.8C885.08 191.36 884.87 195.69 883.94 196.98C883.718 197.324 883.413 197.606 883.053 197.801C882.693 197.995 882.289 198.094 881.88 198.09C880.549 198.19 879.211 198.19 877.88 198.09C877.823 197.512 877.627 196.956 877.31 196.47C879.09 196.59 880.66 196.59 881.31 196.59C881.498 196.613 881.689 196.588 881.864 196.516C882.039 196.444 882.193 196.329 882.31 196.18C883.13 195.28 883.31 190.64 883.52 178.49H865.62V176.81H885.22L885.26 177.8ZM869.71 180.71C872.129 182.288 874.437 184.029 876.62 185.92L875.43 187.24C873.269 185.279 870.977 183.468 868.57 181.82L869.71 180.71Z" fill="#333333"/>
<path d="M919.22 181.63C918.34 185.4 916.77 190.07 914.32 192.98C913.851 192.602 913.349 192.267 912.82 191.98C915.2 189.25 916.66 184.78 917.33 181.3L919.22 181.63ZM925.87 175.26V195.84C925.87 197.18 925.48 197.73 924.63 198.04C923.044 198.355 921.424 198.466 919.81 198.37C919.632 197.731 919.398 197.108 919.11 196.51C921.05 196.59 922.83 196.56 923.34 196.56C923.85 196.56 924.07 196.39 924.07 195.84V175.26H925.87ZM931.8 181.04C934.058 184.519 935.781 188.319 936.91 192.31L935.13 193.13C934.07 189.102 932.418 185.254 930.23 181.71L931.8 181.04Z" fill="#333333"/>
<path d="M974.21 193.21C970.21 194.14 965.83 195.15 962.78 195.84L962.47 194.12L964.33 193.73V176.14H972.61V192L974.08 191.67L974.21 193.21ZM965.88 177.71V181.71H970.98V177.71H965.88ZM970.98 183.26H965.88V187.2H970.98V183.26ZM965.88 193.42C967.45 193.11 969.18 192.72 970.98 192.34V188.73H965.88V193.42ZM985.32 181.63C985.04 192.49 984.78 196.13 983.93 197.26C983.722 197.544 983.449 197.774 983.135 197.93C982.82 198.087 982.472 198.166 982.12 198.16C980.943 198.218 979.764 198.202 978.59 198.11C978.562 197.535 978.386 196.977 978.08 196.49C979.57 196.59 980.96 196.62 981.48 196.62C981.666 196.657 981.86 196.64 982.037 196.571C982.214 196.501 982.368 196.383 982.48 196.23C983.15 195.46 983.48 192 983.67 182.38H979.44C979.05 189.09 977.63 194.99 972.37 198.38C972.034 197.874 971.594 197.444 971.08 197.12C976.08 194.05 977.4 188.58 977.76 182.34H973.51V180.72H977.84C977.92 178.78 977.92 176.85 977.92 174.84H979.59C979.59 176.84 979.59 178.78 979.51 180.72H985.34L985.32 181.63Z" fill="#333333"/>
<path d="M1035.44 189.86H1024.76V195.86C1024.76 197.15 1024.35 197.66 1023.45 197.95C1021.7 198.258 1019.93 198.352 1018.16 198.23C1017.98 197.641 1017.73 197.077 1017.41 196.55C1019.63 196.61 1021.64 196.55 1022.21 196.55C1022.78 196.55 1023.01 196.35 1023.01 195.8V189.8H1012.33V188.12H1023.03V183.74H1014.03V182.09H1023.03V177.96C1020.17 178.25 1017.2 178.45 1014.52 178.58C1014.43 178.058 1014.29 177.548 1014.08 177.06C1020.17 176.75 1027.75 176.06 1031.59 174.84L1032.85 176.24C1030.2 176.963 1027.51 177.477 1024.78 177.78V182.09H1034.03V183.74H1024.8V188.12H1035.48L1035.44 189.86Z" fill="#333333"/>
<path d="M130.17 161.81C159.68 162.59 189.22 162.5 218.75 162.43C248.28 162.36 277.75 162.69 307.29 161.65C307.528 161.622 307.746 161.502 307.896 161.315C308.046 161.127 308.115 160.888 308.09 160.65C308.07 160.445 307.979 160.252 307.834 160.107C307.688 159.961 307.495 159.87 307.29 159.85C277.78 158.85 248.23 159.14 218.7 159.07C189.17 159 159.7 158.9 130.16 159.68C130.021 159.683 129.884 159.714 129.756 159.77C129.629 159.827 129.514 159.907 129.418 160.008C129.322 160.109 129.246 160.228 129.196 160.357C129.146 160.487 129.122 160.626 129.125 160.765C129.128 160.904 129.159 161.041 129.215 161.169C129.272 161.296 129.352 161.411 129.453 161.507C129.554 161.603 129.673 161.679 129.802 161.729C129.932 161.779 130.071 161.803 130.21 161.8L130.17 161.81Z" fill="#333333"/>
<path d="M195.16 170.84C198.35 171.64 201.73 171.51 205 171.48C208.27 171.45 211.71 171.72 214.76 170.66C214.873 170.625 214.978 170.567 215.069 170.492C215.16 170.416 215.235 170.322 215.29 170.217C215.344 170.112 215.378 169.998 215.388 169.88C215.399 169.762 215.386 169.643 215.35 169.53C215.307 169.391 215.231 169.264 215.128 169.162C215.026 169.059 214.899 168.983 214.76 168.94C211.7 167.88 208.15 168.16 204.96 168.13C201.77 168.1 198.34 167.98 195.15 168.79C194.881 168.879 194.657 169.071 194.528 169.324C194.399 169.576 194.375 169.869 194.46 170.14C194.515 170.309 194.611 170.462 194.74 170.585C194.87 170.707 195.028 170.795 195.2 170.84H195.16Z" fill="white"/>
<path d="M146.58 170.84C151.169 171.463 155.803 171.677 160.43 171.48C164.99 171.48 169.75 171.72 174.21 170.66C174.323 170.625 174.428 170.567 174.519 170.491C174.61 170.416 174.685 170.322 174.74 170.217C174.794 170.112 174.828 169.998 174.838 169.88C174.849 169.762 174.836 169.643 174.8 169.53C174.757 169.391 174.681 169.264 174.578 169.162C174.476 169.059 174.349 168.983 174.21 168.94C169.75 167.88 164.96 168.16 160.4 168.13C155.783 167.935 151.157 168.156 146.58 168.79C145.58 168.97 145.64 170.66 146.58 170.84Z" fill="white"/>
<path d="M48.34 262.23C60.1 262.97 71.93 262.92 83.71 262.85C85.88 262.85 85.8 259.47 83.63 259.48H79.68C77.53 259.48 77.62 262.82 79.76 262.81C91.53 262.74 103.36 263.03 115.1 262.04C115.338 262.012 115.556 261.892 115.706 261.705C115.855 261.517 115.925 261.278 115.9 261.04C115.88 260.835 115.789 260.642 115.644 260.497C115.498 260.351 115.305 260.26 115.1 260.24C103.34 259.24 91.5 259.54 79.72 259.47C77.57 259.47 77.66 262.79 79.8 262.8H83.8C85.97 262.8 85.89 259.44 83.72 259.43C71.94 259.37 60.13 259.32 48.38 260.06C48.0989 260.067 47.8319 260.185 47.6378 260.388C47.4437 260.592 47.3384 260.864 47.345 261.145C47.3517 261.426 47.4697 261.693 47.6732 261.887C47.8766 262.081 48.1489 262.187 48.43 262.18L48.34 262.23Z" fill="#333333"/>
<path d="M78.47 260.86C76.15 250.41 72.97 240.15 69.84 229.92C66.71 219.69 62.93 209.59 59.84 199.37C59.7629 199.15 59.6017 198.97 59.3917 198.868C59.1817 198.767 58.9401 198.753 58.72 198.83C58.5219 198.902 58.3559 199.042 58.2516 199.225C58.1472 199.409 58.1112 199.623 58.15 199.83C61.21 210.05 63.61 220.56 66.63 230.83C69.65 241.1 72.63 251.41 76.44 261.41C76.5705 261.659 76.7921 261.848 77.0585 261.937C77.325 262.027 77.6157 262.01 77.87 261.89C78.0665 261.79 78.2271 261.632 78.3292 261.436C78.4314 261.241 78.4701 261.018 78.44 260.8L78.47 260.86Z" fill="#333333"/>
<path d="M306.2 163.85C311.28 182.783 316.397 201.7 321.55 220.6C324.1 229.88 326.76 239.14 329.37 248.41C332.05 257.92 334.17 267.89 337.98 277.02C338.5 278.27 340.84 278.21 340.59 276.6C339.13 267.34 336 258.27 333.45 249.26C330.74 239.67 328.06 230.08 325.3 220.51C319.79 201.36 314.1 182.28 308.44 163.18C308.342 162.894 308.137 162.658 307.868 162.52C307.599 162.382 307.288 162.353 306.998 162.44C306.709 162.526 306.464 162.721 306.316 162.984C306.167 163.247 306.125 163.557 306.2 163.85Z" fill="#333333"/>
<path d="M175.75 137.8C148.417 137.36 121.083 137.133 93.7501 137.12C90.2201 137.12 84.8201 137.63 82.1901 137.63C80.4701 137.63 80.5401 140.3 82.2501 140.3C81.1401 140.3 83.7801 140.52 84.5001 140.57C86.6401 140.72 88.7901 140.81 90.9401 140.82C98.4101 140.89 105.94 140.82 113.38 140.82C130.2 140.82 147.02 140.71 163.84 140.35C167.84 140.26 171.78 140.21 175.75 140.14C176.036 140.104 176.298 139.963 176.485 139.743C176.671 139.523 176.768 139.242 176.757 138.954C176.746 138.666 176.627 138.392 176.424 138.188C176.22 137.984 175.948 137.863 175.66 137.85L175.75 137.8Z" fill="#333333"/>
<path d="M175.75 130.29C148.417 129.85 121.083 129.623 93.75 129.61C90.22 129.61 84.82 130.13 82.19 130.13C81.8373 130.138 81.5021 130.286 81.2583 130.541C81.0145 130.796 80.882 131.137 80.89 131.49C80.8979 131.843 81.0457 132.178 81.3008 132.422C81.5558 132.665 81.8972 132.798 82.25 132.79C81.14 132.79 83.78 133.01 84.5 133.06C86.64 133.207 88.7867 133.29 90.94 133.31C98.41 133.39 105.94 133.31 113.38 133.31C130.2 133.31 147.02 133.2 163.84 132.84C167.84 132.75 171.78 132.7 175.75 132.63C176.036 132.594 176.298 132.453 176.485 132.233C176.671 132.013 176.768 131.732 176.757 131.444C176.746 131.156 176.627 130.883 176.423 130.678C176.22 130.474 175.948 130.353 175.66 130.34L175.75 130.29Z" fill="#333333"/>
<path d="M128.03 167.23C133.35 184.6 138.61 201.98 144.03 219.33C146.76 228.09 149.45 236.88 152.25 245.63C154.97 254.12 157.25 262.98 160.79 271.18C160.897 271.455 161.109 271.676 161.378 271.796C161.648 271.916 161.954 271.925 162.23 271.82C162.481 271.727 162.688 271.545 162.814 271.309C162.939 271.073 162.973 270.8 162.91 270.54C161.1 261.8 157.91 253.22 155.32 244.7C152.63 235.91 149.84 227.16 147.09 218.4C141.65 201.067 136.113 183.767 130.48 166.5C130.372 166.192 130.149 165.937 129.858 165.789C129.566 165.641 129.229 165.611 128.917 165.705C128.604 165.799 128.339 166.01 128.178 166.294C128.016 166.578 127.971 166.913 128.05 167.23H128.03Z" fill="#333333"/>
<path d="M49.58 276.78C49.7 274.55 51.46 259.99 48.29 260.06C45.12 260.13 46.92 274.57 47.04 276.84C47.048 277.177 47.1894 277.497 47.4332 277.729C47.677 277.962 48.0032 278.088 48.34 278.08C48.6769 278.072 48.9967 277.931 49.2293 277.687C49.4618 277.443 49.588 277.117 49.58 276.78Z" fill="#333333"/>
<path d="M116.35 276.78C116.46 274.55 118.22 259.99 115.05 260.06C111.88 260.13 113.69 274.57 113.81 276.84C113.814 277.007 113.851 277.171 113.918 277.324C113.986 277.476 114.082 277.614 114.203 277.729C114.324 277.844 114.466 277.935 114.622 277.995C114.777 278.055 114.943 278.084 115.11 278.08C115.277 278.076 115.441 278.039 115.594 277.972C115.746 277.904 115.884 277.808 115.999 277.687C116.114 277.566 116.205 277.424 116.265 277.268C116.325 277.113 116.354 276.947 116.35 276.78Z" fill="#333333"/>
<path d="M1.42005 278.07C41.7001 278.263 81.98 278.417 122.26 278.53C180.76 278.603 239.25 278.56 297.73 278.4C311.25 278.4 326.62 278.02 339.29 278.11C341.2 278.11 341.12 275.17 339.22 275.11C302.95 274.83 264.06 274.72 226.96 274.66C167.66 274.57 108.36 274.55 49.0601 274.9L1.35005 275.15C-0.499946 275.15 -0.419946 278.01 1.42005 278.02V278.07Z" fill="#333333"/>
<path d="M559.31 277.77C562.55 277.98 565.77 278.09 569.01 278.11C569.355 278.102 569.682 277.957 569.92 277.708C570.159 277.459 570.288 277.125 570.28 276.78C570.272 276.435 570.127 276.108 569.878 275.87C569.629 275.631 569.295 275.502 568.95 275.51H568.66C566.98 275.51 567.05 278.1 568.73 278.12C572.694 278.267 576.663 278.143 580.61 277.75C581.61 277.62 581.96 276.05 580.82 275.9C576.781 275.48 572.717 275.35 568.66 275.51C568.333 275.546 568.032 275.704 567.816 275.951C567.6 276.199 567.486 276.519 567.494 276.847C567.503 277.176 567.635 277.489 567.864 277.725C568.093 277.96 568.402 278.101 568.73 278.12H569.03C569.375 278.112 569.702 277.967 569.94 277.718C570.179 277.469 570.308 277.135 570.3 276.79C570.292 276.445 570.147 276.118 569.898 275.88C569.649 275.641 569.315 275.512 568.97 275.52C565.73 275.52 562.52 275.65 559.28 275.86C559.072 275.921 558.89 276.047 558.76 276.22C558.63 276.393 558.56 276.604 558.56 276.82C558.56 277.036 558.63 277.247 558.76 277.42C558.89 277.593 559.072 277.719 559.28 277.78L559.31 277.77Z" fill="#333333"/>
<path d="M327.3 277.77H330.74C330.998 277.713 331.223 277.555 331.366 277.332C331.508 277.109 331.557 276.839 331.5 276.58C331.457 276.396 331.363 276.228 331.228 276.095C331.094 275.962 330.925 275.87 330.74 275.83L319.74 275.77L302.32 275.69H298.32C298.02 275.698 297.736 275.825 297.53 276.042C297.323 276.26 297.212 276.55 297.22 276.85C297.228 277.15 297.355 277.434 297.572 277.64C297.79 277.847 298.08 277.958 298.38 277.95C307.85 278 317.32 278.07 326.79 278.09C364.1 278.19 401.41 278.09 438.72 278.15C477.22 278.15 515.79 278.58 554.28 277.76C554.529 277.76 554.768 277.661 554.945 277.485C555.121 277.308 555.22 277.069 555.22 276.82C555.22 276.571 555.121 276.332 554.945 276.155C554.768 275.979 554.529 275.88 554.28 275.88C495.28 274.62 436.21 275.49 377.22 275.52C353.66 275.52 330.1 275.52 306.55 275.65H298.36C298.06 275.658 297.776 275.785 297.57 276.002C297.363 276.22 297.252 276.51 297.26 276.81C297.268 277.11 297.395 277.394 297.612 277.6C297.83 277.807 298.12 277.918 298.42 277.91L309.35 277.86L326.76 277.78H330.76C331.018 277.723 331.243 277.565 331.386 277.342C331.528 277.119 331.577 276.849 331.52 276.59C331.477 276.406 331.383 276.238 331.248 276.105C331.114 275.972 330.945 275.88 330.76 275.84H327.31C327.184 275.88 327.068 275.944 326.967 276.029C326.866 276.114 326.784 276.218 326.723 276.335C326.663 276.452 326.626 276.58 326.615 276.711C326.604 276.842 326.62 276.975 326.66 277.1C326.712 277.26 326.803 277.404 326.925 277.52C327.048 277.635 327.197 277.718 327.36 277.76L327.3 277.77Z" fill="#333333"/>
<path d="M336.03 269.22C354.61 269.453 373.19 269.57 391.77 269.57C410.28 269.57 429 270.23 447.49 269.2C447.739 269.2 447.978 269.101 448.155 268.925C448.331 268.748 448.43 268.509 448.43 268.26C448.43 268.011 448.331 267.772 448.155 267.595C447.978 267.419 447.739 267.32 447.49 267.32C428.99 266.32 410.26 266.92 391.75 266.95C373.24 266.98 354.6 267.07 336.02 267.3C335.894 267.34 335.778 267.404 335.677 267.489C335.576 267.574 335.493 267.678 335.433 267.795C335.373 267.912 335.336 268.04 335.325 268.171C335.314 268.302 335.33 268.435 335.37 268.56C335.422 268.72 335.513 268.864 335.635 268.98C335.758 269.095 335.907 269.178 336.07 269.22H336.03Z" fill="#333333"/>
<path d="M337.91 69.36C340.11 85.99 335.58 109.8 355.21 117.55C367.01 122.21 385.44 117.55 390.97 105.15C391.38 104.22 390.23 103.21 389.47 104.05C380.66 113.73 366.47 120.49 353.82 113.44C338.49 104.91 342.98 83.32 340.48 68.95C340.23 67.51 337.72 67.89 337.91 69.36Z" fill="#333333"/>
<path d="M391.18 65.51C397.72 63.51 404.49 68.14 403.66 75.27C402.83 82.4 396.66 83.27 390.86 83.04C389.55 82.99 389.3 84.78 390.29 85.38C397.52 89.82 406.29 82.31 406.45 74.83C406.65 66.31 398.39 60.76 390.5 63.23C390.205 63.3262 389.959 63.5339 389.815 63.8088C389.671 64.0837 389.64 64.4041 389.728 64.7015C389.817 64.999 390.019 65.25 390.29 65.4011C390.561 65.5521 390.88 65.5912 391.18 65.51Z" fill="#333333"/>
<path d="M366.64 72.32C366.56 75.32 366.7 79.07 367.76 81.91C367.841 82.1475 367.995 82.3531 368.201 82.4969C368.406 82.6407 368.653 82.7152 368.903 82.7096C369.154 82.704 369.397 82.6187 369.596 82.4659C369.795 82.3131 369.94 82.1009 370.01 81.86C370.52 78.74 369.93 74.96 369.25 71.86C368.91 70.33 366.67 70.86 366.64 72.28V72.32Z" fill="#333333"/>
<path d="M344.17 73.51C343.877 75.0384 343.753 76.5944 343.8 78.15C343.8 79.66 343.53 81.37 344.11 82.78C344.43 83.55 345.73 83.96 346.11 82.99C346.578 81.5149 346.731 79.958 346.56 78.42C346.65 76.7461 346.539 75.0675 346.23 73.42C346.185 73.2827 346.113 73.1557 346.018 73.0462C345.924 72.9368 345.809 72.847 345.68 72.7819C345.551 72.7169 345.41 72.678 345.266 72.6674C345.122 72.6568 344.977 72.6746 344.84 72.72C344.677 72.7746 344.529 72.8662 344.408 72.9877C344.286 73.1091 344.195 73.2571 344.14 73.42L344.17 73.51Z" fill="#333333"/>
<path d="M354.23 77.56C354.07 82.99 347.12 89.97 351.84 95.23C354.33 98 360.35 97.48 360.23 93C360.23 91.94 358.62 91.11 357.89 92.1C356.55 93.92 354.36 94.1 353.37 91.7C352.45 89.5 353.37 87.33 354.23 85.28C355.28 82.7 356.23 80.34 356.06 77.51C356.031 77.2839 355.919 77.0766 355.746 76.9284C355.572 76.7802 355.35 76.7015 355.122 76.7078C354.894 76.714 354.677 76.8046 354.512 76.9621C354.347 77.1195 354.247 77.3326 354.23 77.56Z" fill="#333333"/>
<path d="M361.81 105.06C362.805 105.289 363.837 105.296 364.835 105.08C365.832 104.864 366.77 104.43 367.58 103.81C369.09 102.67 370.51 100.63 369.94 98.65C369.882 98.4627 369.771 98.2965 369.619 98.1721C369.468 98.0477 369.283 97.9706 369.088 97.9504C368.893 97.9301 368.696 97.9676 368.522 98.0583C368.349 98.1489 368.205 98.2886 368.11 98.46C367.47 99.62 367.18 100.81 366.11 101.75C365.61 102.23 365.006 102.588 364.346 102.798C363.685 103.008 362.985 103.063 362.3 102.96C360.94 102.74 360.39 104.75 361.77 105.06H361.81Z" fill="#333333"/>
<path d="M350.51 88.06C359.57 79.73 350.51 60.14 337.99 66.73C332.1 69.84 329.79 79.23 333.09 84.86C336.56 90.77 345.36 93.35 350.31 87.86C350.389 87.7735 350.45 87.6721 350.49 87.5619C350.53 87.4516 350.547 87.3346 350.542 87.2175C350.536 87.1005 350.508 86.9856 350.458 86.8797C350.407 86.7737 350.337 86.6786 350.25 86.6C350.113 86.4854 349.944 86.4138 349.767 86.3942C349.589 86.3747 349.409 86.408 349.25 86.49C344.25 88.87 337.25 87.71 335.12 81.99C333.44 77.55 335.48 70.08 340.33 68.35C350.7 64.63 355.74 80.35 348.88 86.44C347.7 87.45 349.41 89.08 350.51 88.06Z" fill="#333333"/>
<path d="M376.59 86.77C387.59 77.77 376.4 59.07 363.23 65.63C356.95 68.76 353.45 78.38 357.61 84.39C361.77 90.4 371.16 91.8 376.4 86.58C376.99 85.99 376.33 84.73 375.49 85.11C370.69 87.25 364.24 87.51 360.49 83.11C356.49 78.44 359.65 69.82 364.94 67.47C375.8 62.64 383.94 77.88 375.13 84.94C374.887 85.1336 374.732 85.4157 374.697 85.7242C374.662 86.0327 374.751 86.3423 374.945 86.585C375.139 86.8277 375.421 86.9835 375.729 87.0182C376.038 87.0529 376.347 86.9636 376.59 86.77Z" fill="#333333"/>
<path d="M72.18 66.97C83.54 58.12 89.31 44.17 86.52 29.89C85.2056 23.0336 81.9608 16.695 77.1671 11.6197C72.3735 6.54436 66.2303 2.94331 59.46 1.24C45.75 -2.1 29 1.15 20.16 12.83C10.05 26.16 8.48998 48.16 19.49 61.3C32.6 76.97 56.43 79.48 72.22 66.59C73.01 65.94 71.94 64.67 71.1 65.21C56.74 74.44 37.71 74.12 24.79 62.37C12.2 50.93 12.24 30.52 20.79 16.56C28.04 4.79 42.58 0.820001 55.72 2.77C62.0188 3.701 67.9327 6.3714 72.7964 10.4807C77.6601 14.59 81.2804 19.9751 83.25 26.03C85.4943 33.0084 85.5112 40.5123 83.2982 47.5007C81.0852 54.4891 76.7521 60.6155 70.9 65.03C69.81 65.89 71.03 67.89 72.18 66.97Z" fill="#333333"/>
<path d="M386.95 30.4C387.938 29.6897 388.838 28.8639 389.63 27.94C390.74 26.81 392.12 26.67 393.53 26.09C393.851 25.9852 394.125 25.7693 394.301 25.481C394.477 25.1927 394.545 24.851 394.492 24.5172C394.439 24.1835 394.269 23.8796 394.012 23.6601C393.755 23.4407 393.428 23.3201 393.09 23.32C392.16 23.2735 391.229 23.4132 390.354 23.7308C389.478 24.0485 388.674 24.5378 387.99 25.17C387.171 26.109 386.289 26.991 385.35 27.81C383.75 28.91 385.3 31.47 386.95 30.4Z" fill="#333333"/>
<path d="M369.35 117.51C369.59 118.07 369.77 118.67 370.01 119.23C370.15 119.55 370.01 119.04 370.01 119.23V119.51C370.055 120.113 370.228 120.7 370.517 121.231C370.807 121.763 371.207 122.226 371.69 122.59C372.5 123.15 373.35 122.31 373.42 121.54C373.42 120.878 373.28 120.224 373.01 119.62C372.96 119.48 372.93 119.33 372.88 119.2C372.96 119.42 372.88 119.48 372.88 119.2C372.701 118.186 372.338 117.214 371.81 116.33C371.12 114.95 368.7 116.01 369.32 117.45L369.35 117.51Z" fill="#333333"/>
<path d="M394.88 73.06C395.294 73.2537 395.639 73.569 395.87 73.9638C396.1 74.3586 396.205 74.8142 396.17 75.27C396.08 76.34 395.28 76.71 394.66 77.44C394.547 77.5824 394.474 77.753 394.451 77.9335C394.427 78.1139 394.454 78.2974 394.527 78.464C394.6 78.6307 394.717 78.7743 394.865 78.8793C395.014 78.9843 395.188 79.0468 395.37 79.06C397.16 78.96 398.43 77 398.61 75.35C398.693 74.4271 398.503 73.5001 398.064 72.6841C397.625 71.8681 396.956 71.199 396.14 70.76C395.989 70.6771 395.823 70.6248 395.652 70.6061C395.481 70.5873 395.307 70.6026 395.142 70.6509C394.977 70.6992 394.823 70.7796 394.688 70.8875C394.554 70.9955 394.443 71.1289 394.36 71.28C394.195 71.5855 394.157 71.9436 394.255 72.2767C394.352 72.6098 394.577 72.8913 394.88 73.06Z" fill="#333333"/>
<path d="M399.81 87.14C398.28 93.0508 397.94 99.2067 398.81 105.25C399.44 110.74 399.44 117.06 400.97 122.33C401.064 122.613 401.266 122.848 401.532 122.983C401.798 123.117 402.106 123.142 402.39 123.05C402.557 122.995 402.708 122.901 402.832 122.776C402.955 122.65 403.047 122.498 403.1 122.33C404.33 117.46 402.57 111.72 401.87 106.84C400.834 100.493 400.776 94.0245 401.7 87.66C401.69 87.4497 401.614 87.2478 401.483 87.0831C401.352 86.9185 401.172 86.7994 400.969 86.7429C400.767 86.6864 400.551 86.6953 400.354 86.7684C400.156 86.8415 399.987 86.975 399.87 87.15L399.81 87.14Z" fill="#333333"/>
<path d="M368.03 121.86C366.03 126.52 361.72 135.63 366.03 140.28C369.2 143.7 375.03 141.86 378.66 140.45C384.786 138.01 390.549 134.743 395.79 130.74C398.06 129.05 403.79 125.42 403.56 121.97C403.4 119.92 400.19 119.97 400.36 122.05C400.49 123.61 394.94 127.5 393.63 128.53C389.663 131.697 385.376 134.442 380.84 136.72C377.92 138.14 372.08 141.12 368.84 139.14C364.24 136.36 369.04 126.42 370.41 123.14C371.08 121.55 368.71 120.23 368.04 121.83L368.03 121.86Z" fill="#333333"/>
<path d="M367.48 45.15C362.83 52.67 363.18 62.15 371.57 67.05C372.45 67.56 373.64 66.43 372.99 65.56C370.75 62.56 367.81 60.25 366.82 56.43C365.83 52.61 367.04 49.16 368.69 45.82C368.735 45.7425 368.764 45.657 368.775 45.5683C368.787 45.4796 368.781 45.3895 368.758 45.3031C368.735 45.2167 368.695 45.1358 368.64 45.0649C368.586 44.994 368.518 44.9346 368.44 44.89C368.361 44.8444 368.273 44.8152 368.183 44.8042C368.092 44.7931 368 44.8004 367.913 44.8256C367.825 44.8508 367.743 44.8934 367.672 44.9508C367.601 45.0083 367.543 45.0794 367.5 45.16L367.48 45.15Z" fill="#333333"/>
<path d="M371.74 45.56C368.74 52.28 369.84 63.56 377.87 66.4C378.009 66.4331 378.156 66.4095 378.278 66.3345C378.4 66.2595 378.487 66.1392 378.52 66C378.541 65.9108 378.539 65.8176 378.512 65.7298C378.486 65.642 378.437 65.5627 378.37 65.5C372.11 60.62 369.37 53.5 372.37 45.82C372.51 45.44 371.9 45.2 371.74 45.56Z" fill="#333333"/>
<path d="M372.03 89.61C372.3 90.7879 372.709 91.9293 373.25 93.01C373.64 93.66 374.76 93.19 374.49 92.45C374.008 91.3378 373.39 90.2898 372.65 89.33C372.593 89.2573 372.509 89.2102 372.417 89.1989C372.326 89.1877 372.233 89.2132 372.16 89.27C372.11 89.31 372.072 89.3626 372.049 89.4224C372.026 89.4821 372.02 89.5469 372.03 89.61Z" fill="#333333"/>
<path d="M340.5 48.36C336.88 54.45 336.18 67.75 344.84 70.36C345.68 70.61 346.58 69.51 346 68.77C343.94 66.12 341.74 64.36 340.75 60.93C339.591 56.9817 339.929 52.7444 341.7 49.03C341.77 48.8727 341.779 48.6948 341.724 48.5314C341.67 48.368 341.556 48.2308 341.406 48.1469C341.256 48.0629 341.079 48.0382 340.912 48.0777C340.744 48.1171 340.597 48.2178 340.5 48.36Z" fill="#333333"/>
<path d="M378.81 22.82C380.56 22.82 382.16 24.82 382.95 26.09C383.593 27.1579 383.814 28.4275 383.57 29.65C383.44 30.2087 383.46 30.792 383.63 31.34C383.719 31.6119 383.912 31.8376 384.167 31.9686C384.421 32.0996 384.717 32.1252 384.99 32.04C385.068 32.0169 385.142 31.9833 385.21 31.94C387.6 30.53 386.21 26.03 384.83 24.41C383.45 22.79 380.83 21.01 378.54 21.51C377.77 21.67 378 22.87 378.76 22.86L378.81 22.82Z" fill="#333333"/>
<path d="M380.03 74.51C382.73 72.85 385.48 71.25 388.14 69.51C390.31 68.09 393.84 66.51 395.3 64.24C395.439 63.9867 395.472 63.6885 395.391 63.411C395.311 63.1334 395.123 62.8993 394.87 62.76C394.695 62.6665 394.498 62.6216 394.3 62.63C391.64 63.05 388.74 65.53 386.52 66.94C383.84 68.64 381.25 70.48 378.62 72.26C378.461 72.347 378.321 72.4656 378.21 72.6085C378.098 72.7514 378.017 72.9156 377.971 73.0911C377.925 73.2665 377.916 73.4494 377.943 73.6287C377.971 73.8079 378.035 73.9796 378.131 74.1332C378.227 74.2869 378.354 74.4192 378.503 74.5221C378.653 74.625 378.821 74.6963 378.999 74.7316C379.177 74.7668 379.36 74.7654 379.537 74.7273C379.715 74.6892 379.882 74.6152 380.03 74.51Z" fill="#333333"/>
<path d="M353.03 77.9C353.76 78.03 354.5 78.2 355.24 78.28C356.15 78.37 357.56 78.4 358.24 77.76C358.462 77.5306 358.586 77.2241 358.586 76.905C358.586 76.5859 358.462 76.2794 358.24 76.05C357.71 75.42 356.12 75.29 355.38 75.26C354.693 75.2299 354.004 75.2499 353.32 75.32C351.89 75.32 351.54 77.64 353.04 77.9H353.03Z" fill="#333333"/>
<path d="M237.54 111.67C233.71 114.07 164.69 114.67 163.03 111.67C161.37 108.67 161.46 72.75 163.03 69.72C164.6 66.69 234.91 67.22 237.54 69.72C240.17 72.22 241.37 109.26 237.54 111.67Z" fill="#FF842C"/>
<path d="M203.33 115.01L203.23 123.18L205.23 121.97C203.33 120.58 201.45 119.18 199.55 117.81C198.27 116.89 196.94 116.05 195.6 115.22C195.14 114.93 194.68 114.61 194.2 114.35C194.05 114.26 193.29 113.86 193.63 114.1C192.58 113.35 191.63 115.1 192.63 115.85C191.88 115.32 192.63 115.95 192.84 116.17C193.243 116.528 193.667 116.862 194.11 117.17C195.37 118.17 196.63 119.17 197.95 120.17C199.95 121.57 201.95 122.93 203.89 124.31C204.209 124.477 204.58 124.512 204.925 124.407C205.269 124.302 205.558 124.066 205.73 123.75C205.842 123.549 205.898 123.32 205.89 123.09L205.79 114.93C205.756 114.619 205.606 114.332 205.37 114.126C205.135 113.92 204.83 113.81 204.517 113.818C204.205 113.825 203.906 113.95 203.681 114.167C203.455 114.384 203.319 114.678 203.3 114.99L203.33 115.01Z" fill="#333333"/>
<path d="M190.26 81.6C187.69 84.34 185.05 87.01 182.59 89.84C182.364 90.0854 182.239 90.4066 182.239 90.74C182.239 91.0734 182.364 91.3946 182.59 91.64C184.51 93.69 186.59 96.97 189.23 98.09C189.98 98.41 191.13 97.8 190.76 96.85C189.65 94.07 186.45 91.85 184.35 89.8V91.6C186.72 88.66 188.92 85.6 191.17 82.55C191.69 81.86 190.8 80.94 190.17 81.6H190.26Z" fill="#333333"/>
<path d="M208.88 82.44C211.11 85.44 213.28 88.44 215.62 91.39L215.79 89.84C213.79 91.84 210.56 94.01 209.51 96.64C209.22 97.38 209.79 98.64 210.75 98.17C213.5 96.99 215.6 93.76 217.63 91.6C217.86 91.3568 217.988 91.0347 217.988 90.7C217.988 90.3653 217.86 90.0432 217.63 89.8C215.17 86.98 212.54 84.31 209.98 81.58C209.45 81.02 208.45 81.81 208.92 82.44H208.88Z" fill="#333333"/>
<path d="M201.71 77.44C200.26 82.07 198.79 86.7 197.39 91.35C196.5 94.29 195.62 97.24 194.72 100.18C194.38 101.3 193.56 102.84 193.9 104.03C193.947 104.175 194.021 104.31 194.12 104.426C194.218 104.542 194.339 104.638 194.475 104.708C194.61 104.777 194.758 104.82 194.91 104.832C195.062 104.844 195.215 104.827 195.36 104.78C195.531 104.732 195.687 104.638 195.81 104.51C196.7 103.73 196.86 101.87 197.16 100.81C198.01 97.81 198.89 94.91 199.75 91.96C201.12 87.31 202.41 82.63 203.75 77.96C204.12 76.66 202.13 76.18 201.75 77.45L201.71 77.44Z" fill="#333333"/>
<path d="M368.58 91.27L368.98 92.37C369.128 92.8792 369.311 93.3772 369.53 93.86C369.632 94.0232 369.789 94.1444 369.972 94.2013C370.156 94.2582 370.354 94.2471 370.53 94.17C370.713 94.0865 370.86 93.9384 370.941 93.7539C371.022 93.5695 371.032 93.3616 370.97 93.17C370.84 92.7099 370.68 92.2589 370.49 91.82L370.13 90.76C369.79 89.76 368.21 90.25 368.57 91.23L368.58 91.27Z" fill="#333333"/>
<path d="M343.4 93.16L343.8 94.25C343.954 94.7605 344.137 95.2613 344.35 95.75C344.45 95.9148 344.608 96.0366 344.792 96.092C344.977 96.1474 345.176 96.1324 345.35 96.05C345.533 95.9665 345.68 95.8184 345.761 95.634C345.842 95.4495 345.852 95.2416 345.79 95.05C345.669 94.5871 345.508 94.1354 345.31 93.7L344.95 92.7C344.61 91.7 343.04 92.19 343.39 93.17L343.4 93.16Z" fill="#333333"/>
<path d="M346.6 92.43L346.86 93.11C346.92 93.27 346.99 93.44 347.04 93.6C347.078 93.7785 347.142 93.9504 347.23 94.11C347.339 94.2932 347.515 94.4263 347.721 94.4806C347.926 94.5349 348.145 94.5059 348.33 94.4C348.457 94.3272 348.561 94.2201 348.63 94.091C348.699 93.9619 348.73 93.816 348.72 93.67C348.651 93.3245 348.54 92.9887 348.39 92.67L348.16 91.99C348.098 91.7831 347.956 91.6095 347.765 91.5073C347.575 91.4051 347.352 91.3827 347.145 91.445C346.938 91.5073 346.765 91.6493 346.662 91.8396C346.56 92.03 346.538 92.2531 346.6 92.46V92.43Z" fill="#333333"/>
<path d="M395.63 166.89C396.63 177.22 398.11 187.5 399.29 197.81C399.77 201.99 400.19 206.17 400.39 210.38C400.63 215.38 400.09 220.58 400.83 225.48C401.01 226.65 402.89 227.16 403.13 225.73C404.59 217.11 402.76 207.11 401.86 198.45C400.75 187.88 399.21 177.37 397.86 166.84C397.68 165.45 395.51 165.46 395.66 166.84L395.63 166.89Z" fill="#333333"/>
<path d="M339.3 236.83C351.49 235.6 363.8 235.37 376.04 234.95C382.56 234.72 389.04 234.47 395.58 234.15C400.24 233.92 405.85 234.08 410.31 232.62C410.568 232.533 410.787 232.358 410.928 232.125C411.069 231.892 411.122 231.616 411.079 231.347C411.036 231.079 410.899 230.834 410.692 230.657C410.485 230.48 410.222 230.382 409.95 230.38C404.95 229.85 399.29 230.72 394.25 230.95C387.92 231.24 381.59 231.45 375.25 231.69C363.25 232.15 351.17 232.42 339.25 233.69C337.25 233.9 337.25 237.06 339.33 236.86L339.3 236.83Z" fill="#333333"/>
<path d="M338.38 151.83C334.19 158.83 330.639 166.193 327.77 173.83C324.83 181.83 321.05 191.14 320.68 199.69C320.698 200.03 320.85 200.35 321.103 200.579C321.356 200.807 321.689 200.926 322.03 200.91C322.235 200.895 322.434 200.829 322.608 200.72C322.783 200.61 322.927 200.459 323.03 200.28C326.78 192.89 327.95 183.84 330.56 175.95C333.206 168.03 336.393 160.302 340.1 152.82C340.235 152.592 340.274 152.319 340.209 152.063C340.143 151.806 339.978 151.585 339.75 151.45C339.636 151.383 339.511 151.34 339.38 151.322C339.25 151.304 339.117 151.312 338.99 151.346C338.863 151.379 338.744 151.437 338.639 151.517C338.534 151.597 338.446 151.696 338.38 151.81V151.83Z" fill="#333333"/>
<path d="M241.32 218.64C242.22 226.21 238.32 232.34 232.71 232.34C227.1 232.34 221.63 226.21 220.59 218.64C219.55 211.07 223.4 204.95 229.19 204.95C234.98 204.95 240.41 211.08 241.32 218.64Z" fill="white"/>
<path d="M516.36 260.6H440.88V275.11H516.36V260.6Z" fill="white"/>
<path d="M434.03 261.66C447.34 262.44 460.71 262.34 474.03 262.27C487.35 262.2 500.73 262.53 514.03 261.49C514.268 261.462 514.486 261.342 514.636 261.155C514.785 260.967 514.855 260.728 514.83 260.49C514.81 260.285 514.719 260.092 514.573 259.947C514.428 259.801 514.235 259.71 514.03 259.69C500.74 258.69 487.35 258.98 474.03 258.91C460.71 258.84 447.34 258.74 434.03 259.52C433.765 259.546 433.52 259.669 433.341 259.866C433.162 260.063 433.063 260.319 433.063 260.585C433.063 260.851 433.162 261.107 433.341 261.304C433.52 261.501 433.765 261.624 434.03 261.65V261.66Z" fill="#333333"/>
<path d="M439.81 260.34C439.249 262.984 439.031 265.69 439.16 268.39C439.16 270.55 442.5 270.47 442.53 268.31V266.38C442.487 265.943 442.272 265.54 441.933 265.261C441.594 264.982 441.158 264.848 440.72 264.89C440.323 264.932 439.954 265.114 439.679 265.404C439.404 265.693 439.242 266.071 439.22 266.47C439.29 269.1 439.06 271.94 440.02 274.47C440.097 274.695 440.261 274.88 440.474 274.985C440.688 275.09 440.935 275.106 441.16 275.03C441.299 274.985 441.424 274.906 441.524 274.799C441.624 274.692 441.695 274.562 441.73 274.42C442.73 271.92 442.45 269.06 442.52 266.42C442.52 264.3 439.26 264.42 439.21 266.51V268.43C439.21 270.59 442.61 270.51 442.58 268.35C442.707 265.666 442.482 262.976 441.91 260.35C441.823 260.081 441.633 259.858 441.382 259.729C441.131 259.6 440.839 259.575 440.57 259.66C440.4 259.716 440.247 259.813 440.124 259.942C440 260.071 439.909 260.228 439.86 260.4L439.81 260.34Z" fill="#333333"/>
<path d="M515.32 261.27C514.759 263.914 514.541 266.62 514.67 269.32C514.67 271.49 518.01 271.4 518.03 269.24V267.32C518.019 266.882 517.835 266.467 517.519 266.165C517.202 265.863 516.778 265.699 516.34 265.71C515.902 265.721 515.487 265.905 515.185 266.222C514.883 266.538 514.719 266.962 514.73 267.4C514.79 270.03 514.57 272.88 515.53 275.4C515.565 275.513 515.623 275.618 515.699 275.709C515.775 275.8 515.868 275.875 515.973 275.93C516.078 275.984 516.192 276.018 516.31 276.028C516.428 276.039 516.547 276.026 516.66 275.99C516.8 275.949 516.927 275.873 517.03 275.77C517.134 275.667 517.209 275.54 517.25 275.4C518.25 272.9 517.97 270.03 518.03 267.4C518.09 265.27 514.78 265.4 514.73 267.48V269.4C514.73 271.57 518.12 271.49 518.09 269.32C518.221 266.636 517.999 263.946 517.43 261.32C517.325 261.058 517.122 260.849 516.863 260.736C516.605 260.624 516.313 260.618 516.05 260.72C515.911 260.78 515.785 260.868 515.68 260.978C515.575 261.088 515.493 261.218 515.44 261.36L515.32 261.27Z" fill="#333333"/>
<path d="M434.03 277.31C447.75 277.63 461.47 277.87 475.2 277.89C483.3 277.89 491.4 277.79 499.51 277.74C503.91 277.74 509.04 278.39 513.35 277.34C513.539 277.285 513.715 277.193 513.867 277.069C514.02 276.946 514.147 276.793 514.24 276.62C514.333 276.447 514.391 276.257 514.41 276.061C514.429 275.865 514.408 275.668 514.35 275.48C514.277 275.245 514.148 275.031 513.973 274.857C513.799 274.682 513.585 274.553 513.35 274.48C509.04 273.43 503.88 274.13 499.49 274.1C491.38 274.04 483.28 273.93 475.17 273.93C461.45 273.93 447.74 274.2 434.03 274.43C433.67 274.468 433.337 274.64 433.098 274.911C432.859 275.183 432.731 275.535 432.74 275.897C432.749 276.259 432.894 276.605 433.146 276.865C433.398 277.125 433.738 277.28 434.1 277.3L434.03 277.31Z" fill="#333333"/>
<path d="M446.29 265.78C442.29 268.35 441.78 271.09 449.74 271.09C457.7 271.09 510.17 272.94 510.44 271.09C510.71 269.24 516.01 266.09 509.11 265.78C502.21 265.47 449.21 263.93 446.29 265.78Z" fill="#FF842C"/>
<path d="M506.03 238.28H430.55V258.57H506.03V238.28Z" fill="white"/>
<path d="M512.89 237.22C499.58 236.44 486.2 236.54 472.89 236.6C459.58 236.66 446.19 236.34 432.89 237.38C432.652 237.408 432.434 237.528 432.284 237.715C432.135 237.903 432.065 238.142 432.09 238.38C432.11 238.585 432.201 238.778 432.347 238.923C432.493 239.069 432.685 239.16 432.89 239.18C446.18 240.18 459.58 239.89 472.89 239.96C486.2 240.03 499.57 240.13 512.89 239.35C513.171 239.35 513.441 239.238 513.64 239.04C513.838 238.841 513.95 238.571 513.95 238.29C513.95 238.009 513.838 237.739 513.64 237.54C513.441 237.342 513.171 237.23 512.89 237.23V237.22Z" fill="#333333"/>
<path d="M505.03 238.02C504.474 241.706 504.256 245.435 504.38 249.16L507.74 249.07V246.39C507.735 246.173 507.687 245.96 507.599 245.762C507.511 245.563 507.385 245.384 507.228 245.235C507.072 245.085 506.887 244.968 506.685 244.89C506.482 244.812 506.267 244.775 506.05 244.78C505.833 244.785 505.62 244.833 505.422 244.921C505.223 245.009 505.045 245.135 504.895 245.292C504.746 245.448 504.628 245.633 504.55 245.836C504.472 246.038 504.435 246.253 504.44 246.47C504.5 250.15 504.28 253.95 505.23 257.52C505.297 257.75 505.453 257.944 505.663 258.06C505.872 258.176 506.119 258.205 506.35 258.14C506.496 258.097 506.629 258.018 506.736 257.91C506.843 257.801 506.92 257.667 506.96 257.52C507.96 253.94 507.68 250.11 507.74 246.43L504.44 246.51V249.2C504.44 251.36 507.82 251.28 507.8 249.11C507.921 245.398 507.7 241.682 507.14 238.01C507.035 237.748 506.832 237.539 506.573 237.426C506.315 237.314 506.023 237.308 505.76 237.41C505.621 237.47 505.495 237.558 505.39 237.668C505.285 237.778 505.203 237.908 505.15 238.05L505.03 238.02Z" fill="#333333"/>
<path d="M429.52 239.33C428.964 243.012 428.746 246.738 428.87 250.46L432.23 250.38V247.69C432.23 245.57 428.89 245.69 428.93 247.77C428.99 251.45 428.77 255.25 429.72 258.83C429.757 258.944 429.817 259.049 429.895 259.139C429.973 259.23 430.068 259.305 430.175 259.358C430.281 259.412 430.398 259.445 430.517 259.453C430.637 259.462 430.756 259.448 430.87 259.41C431.006 259.367 431.13 259.292 431.231 259.191C431.332 259.09 431.407 258.966 431.45 258.83C432.45 255.24 432.17 251.42 432.23 247.73L428.93 247.81V250.51C428.93 252.68 432.31 252.59 432.29 250.43C432.41 246.718 432.189 243.002 431.63 239.33C431.525 239.068 431.322 238.859 431.063 238.746C430.805 238.634 430.513 238.628 430.25 238.73C430.11 238.79 429.985 238.878 429.88 238.988C429.775 239.098 429.693 239.228 429.64 239.37L429.52 239.33Z" fill="#333333"/>
<path d="M512.88 258.2C499.15 257.99 485.43 257.72 471.7 257.72C463.6 257.72 455.5 257.83 447.4 257.89C442.99 257.89 437.87 257.24 433.55 258.29C433.247 258.39 432.984 258.586 432.8 258.847C432.616 259.108 432.521 259.422 432.529 259.741C432.537 260.06 432.647 260.369 432.844 260.621C433.04 260.872 433.312 261.055 433.62 261.14C437.93 262.2 443.09 261.49 447.49 261.52C455.59 261.57 463.7 261.68 471.8 261.67C485.52 261.67 499.23 261.41 512.95 261.07C513.31 261.032 513.643 260.86 513.882 260.589C514.121 260.317 514.249 259.965 514.24 259.603C514.231 259.241 514.086 258.895 513.834 258.635C513.582 258.375 513.242 258.22 512.88 258.2Z" fill="#333333"/>
<path d="M500.61 245.51C504.61 249.1 505.12 252.93 497.17 252.93C489.22 252.93 436.73 255.52 436.46 252.93C436.19 250.34 430.9 245.88 437.79 245.51C444.68 245.14 497.7 242.94 500.61 245.51Z" fill="#FF842C"/>
<path d="M56.03 215.2C71.59 193.93 85.88 171.51 99.82 149.08C101.82 145.91 103.49 142.52 105.53 139.4C106.17 138.4 104.59 137.58 103.96 138.53C98.69 146.59 92.15 155.35 86.61 163.73C77.61 177.27 68.61 190.8 59.98 204.53C57.98 207.7 56.08 210.93 54.19 214.17C53.48 215.39 55.27 216.27 56.05 215.17L56.03 215.2Z" fill="#333333"/>
<path d="M55.09 266.27C51.88 267.46 54.04 270.69 55.09 270.94C56.14 271.19 105.91 271.39 106.82 270.94C107.73 270.49 109.55 267.94 106.82 267.21C104.09 266.48 58.89 264.86 55.09 266.27Z" fill="#FF842C"/>
<path d="M335.6 44.92C334.132 47.9444 333.227 51.2111 332.93 54.56C332.79 56.3 332.25 60.19 334.32 61.09C334.497 61.1696 334.694 61.1959 334.885 61.1657C335.077 61.1355 335.256 61.0501 335.4 60.92C336.77 59.78 335.96 57.25 335.84 55.74C335.404 52.3999 336.037 49.0074 337.65 46.05C338.39 44.73 336.26 43.57 335.65 44.92H335.6Z" fill="white"/>
<path d="M341.18 35.96C340.37 36.63 339.61 37.39 338.84 38.1C338.07 38.81 336.98 40.1 337.05 41.25C337.059 41.4418 337.106 41.6299 337.187 41.8037C337.269 41.9774 337.384 42.1333 337.527 42.2624C337.669 42.3915 337.835 42.4913 338.016 42.5561C338.196 42.6209 338.388 42.6494 338.58 42.64C338.816 42.6302 339.047 42.5615 339.25 42.44C340.25 41.92 340.51 40.72 340.9 39.76C341.208 38.8983 341.829 38.1843 342.64 37.76C344.03 36.92 342.52 34.85 341.18 35.96Z" fill="white"/>
<path d="M47.27 12.56C47.2 17.32 47.1099 22.09 47.0899 26.86V35.72C47.0899 36.87 46.7 38.72 47.38 39.72C47.4599 39.8515 47.5651 39.9659 47.6893 40.0566C47.8136 40.1474 47.9545 40.2128 48.104 40.249C48.2536 40.2852 48.4088 40.2916 48.5608 40.2677C48.7129 40.2439 48.8587 40.1903 48.99 40.11C49.1539 40.0191 49.2891 39.884 49.38 39.72C49.99 38.72 49.6399 37.08 49.6399 36.03C49.6399 32.97 49.6399 29.9 49.5899 26.84C49.5899 22.07 49.49 17.31 49.41 12.55C49.41 12.2742 49.3004 12.0097 49.1053 11.8146C48.9103 11.6196 48.6458 11.51 48.3699 11.51C48.0941 11.51 47.8296 11.6196 47.6346 11.8146C47.4395 12.0097 47.33 12.2742 47.33 12.55L47.27 12.56Z" fill="#333333"/>
<path d="M69.74 38.08C65.74 38.01 61.74 37.92 57.74 37.9C55.54 37.9 49.26 36.69 47.48 38.33C47.2687 38.5467 47.1504 38.8373 47.1504 39.14C47.1504 39.4427 47.2687 39.7333 47.48 39.95C49.21 41.56 55.63 40.36 57.76 40.35C61.76 40.35 65.76 40.24 69.76 40.17C70.0372 40.17 70.303 40.0599 70.499 39.8639C70.6949 39.668 70.805 39.4022 70.805 39.125C70.805 38.8478 70.6949 38.5821 70.499 38.3861C70.303 38.1901 70.0372 38.08 69.76 38.08H69.74Z" fill="#333333"/>
</g>
<defs>
<clipPath id="clip0">
<rect width="1044.22" height="278.57" fill="white"/>
</clipPath>
</defs>
</svg>
