<svg width="16" height="16" viewBox="0 0 16 16" fill="none" xmlns="http://www.w3.org/2000/svg">
<path d="M11.21 3.69H4.70999L5.04999 7.58H10.01L9.82999 9.76L8.01999 10.39L6.21999 9.75L6.08999 8.09H5.09999L5.28999 10.47L8.00999 11.44L10.76 10.49L11.09 6.59L5.95999 6.58L5.78999 4.68H11.15L11.21 3.69Z" fill="#333"/>
<path d="M10.65 13.32L7.97 14.15L3.29 12.71L2.42 1.77H13.53L12.85 10.35H13.84L14.61 0.779999H1.34L2.36 13.46L7.97 15.19L10.65 14.36V13.32Z" fill="#333"/>
<path d="M12.94 14.63C12.58 14.63 12.2282 14.5233 11.9289 14.3233C11.6296 14.1233 11.3963 13.839 11.2585 13.5065C11.1208 13.1739 11.0847 12.808 11.155 12.4549C11.2252 12.1019 11.3985 11.7776 11.6531 11.5231C11.9076 11.2685 12.2319 11.0952 12.5849 11.025C12.938 10.9547 13.3039 10.9908 13.6365 11.1285C13.969 11.2663 14.2533 11.4996 14.4533 11.7989C14.6533 12.0982 14.76 12.45 14.76 12.81C14.7574 13.2919 14.5648 13.7533 14.224 14.094C13.8833 14.4348 13.4219 14.6274 12.94 14.63ZM12.94 11.98C12.7758 11.98 12.6154 12.0287 12.4789 12.1199C12.3424 12.2111 12.236 12.3407 12.1732 12.4924C12.1104 12.644 12.0939 12.8109 12.1259 12.9719C12.158 13.1329 12.237 13.2808 12.3531 13.3969C12.4692 13.513 12.6171 13.592 12.7781 13.6241C12.9391 13.6561 13.106 13.6396 13.2576 13.5768C13.4093 13.514 13.5389 13.4076 13.6301 13.2711C13.7213 13.1346 13.77 12.9742 13.77 12.81C13.7648 12.5934 13.675 12.3873 13.5199 12.236C13.3648 12.0846 13.1567 11.9999 12.94 12V11.98Z" fill="#FF842C"/>
</svg>
