<svg width="16" height="16" viewBox="0 0 16 16" fill="none" xmlns="http://www.w3.org/2000/svg">
<path d="M10.15 12.94H5.98999V13.93H10.15V12.94Z" fill="#333"/>
<path d="M9.71001 14.45H6.45001V15.44H9.71001V14.45Z" fill="#333"/>
<path d="M8.49 0.559998H7.5V1.97H8.49V0.559998Z" fill="#FF842C"/>
<path d="M12.7071 2.30467L11.7101 3.30169L12.4101 4.00172L13.4072 3.0047L12.7071 2.30467Z" fill="#FF842C"/>
<path d="M2.26001 7.21H0.850006V8.2H2.26001V7.21Z" fill="#FF842C"/>
<path d="M15.15 7.21H13.74V8.2H15.15V7.21Z" fill="#FF842C"/>
<path d="M3.29861 2.3072L2.59845 3.00711L3.5953 4.00431L4.29545 3.30439L3.29861 2.3072Z" fill="#FF842C"/>
<path d="M8.00001 12.36C7.08033 12.36 6.18129 12.0873 5.41661 11.5763C4.65192 11.0654 4.05592 10.3392 3.70397 9.48948C3.35202 8.6398 3.25994 7.70484 3.43936 6.80283C3.61878 5.90082 4.06165 5.07227 4.71196 4.42195C5.36228 3.77164 6.19083 3.32877 7.09284 3.14935C7.99485 2.96993 8.92981 3.06201 9.77949 3.41396C10.6292 3.76591 11.3554 4.36191 11.8663 5.1266C12.3773 5.89129 12.65 6.79032 12.65 7.71C12.6474 8.94244 12.1566 10.1237 11.2851 10.9951C10.4137 11.8666 9.23245 12.3574 8.00001 12.36ZM8.00001 4.05C7.27613 4.05 6.5685 4.26465 5.96662 4.66682C5.36474 5.06899 4.89563 5.6406 4.61861 6.30938C4.34159 6.97816 4.26911 7.71406 4.41033 8.42403C4.55156 9.134 4.90014 9.78615 5.412 10.298C5.92386 10.8099 6.57601 11.1585 7.28598 11.2997C7.99595 11.4409 8.73185 11.3684 9.40063 11.0914C10.0694 10.8144 10.641 10.3453 11.0432 9.74339C11.4454 9.1415 11.66 8.43388 11.66 7.71C11.66 6.73931 11.2744 5.80837 10.588 5.12199C9.90164 4.43561 8.9707 4.05 8.00001 4.05Z" fill="#333"/>
</svg>
