<svg width="16" height="16" viewBox="0 0 16 16" fill="none" xmlns="http://www.w3.org/2000/svg">
<path d="M9.31999 4.92H11.93L12.02 3.93H8.32999V8.07H10.54L10.43 9.68L8.36999 10.22V11.25L11.36 10.45L11.61 7.08H9.31999V4.92Z" fill="#333"/>
<path d="M6.59001 3.97V9.94L5.45001 9.6L5.28001 7.7H4.29001L4.51001 10.35L7.58001 11.27V3.97H6.59001Z" fill="#333"/>
<path d="M10.64 13.36L7.95999 14.19L3.27999 12.74L2.40999 1.8H13.52L12.82 10.5H13.82L14.59 0.809998H1.32999L2.34999 13.49L7.95999 15.22L10.64 14.4V13.36Z" fill="#333"/>
<path d="M12.93 14.78C12.5684 14.7799 12.2149 14.6721 11.9148 14.4703C11.6147 14.2685 11.3816 13.9818 11.2451 13.6469C11.1086 13.312 11.0749 12.9441 11.1485 12.59C11.222 12.2359 11.3993 11.9117 11.6579 11.6588C11.9164 11.406 12.2445 11.2359 12.6001 11.1702C12.9557 11.1046 13.3229 11.1464 13.6547 11.2903C13.9864 11.4342 14.2678 11.6737 14.4629 11.9782C14.658 12.2827 14.758 12.6384 14.75 13C14.737 13.4749 14.5399 13.9261 14.2002 14.2583C13.8606 14.5905 13.4051 14.7776 12.93 14.78ZM12.93 12.13C12.7658 12.13 12.6054 12.1787 12.4689 12.2699C12.3324 12.3611 12.226 12.4907 12.1632 12.6424C12.1004 12.794 12.0839 12.9609 12.116 13.1219C12.148 13.2829 12.227 13.4308 12.3431 13.5469C12.4592 13.663 12.6071 13.742 12.7681 13.7741C12.9291 13.8061 13.096 13.7896 13.2476 13.7268C13.3993 13.664 13.5289 13.5576 13.6201 13.4211C13.7113 13.2846 13.76 13.1242 13.76 12.96C13.76 12.7399 13.6726 12.5288 13.5169 12.3731C13.3612 12.2174 13.1501 12.13 12.93 12.13Z" fill="#FF842C"/>
</svg>
