<svg width="102" height="18" viewBox="0 0 102 18" fill="none" xmlns="http://www.w3.org/2000/svg">
<path d="M37.1597 15.411L38.0226 14.3697L38.1152 13.6514H35.9876L35.7462 15.411H32.9177L34.2204 6.09813H41.9902L40.8743 14.1611C40.8259 14.511 40.6486 14.8291 40.3784 15.051C40.1134 15.2862 39.7728 15.4143 39.4212 15.411H37.1597ZM36.3232 3.57981L36.267 2.50149L35.6718 1.78149H39.7634L39.8576 3.57981H43.4103L43.8087 2.3871L43.3127 1.78149H47.5547L46.9414 3.57981H49.0624L48.8045 5.38318H33.9608L34.2022 3.58486L36.3232 3.57981ZM36.2289 11.8531H38.3681L38.5186 10.7664H36.3777L36.2289 11.8531ZM36.6389 8.97477H38.7599L38.9087 7.89645H36.7877L36.6389 8.97477ZM44.7493 6.61963L43.7822 13.643H41.6596L42.6267 6.61963H44.7493ZM42.8168 15.3925L44.4898 13.6262L45.5313 6.09308H48.3582L47.2423 14.1376C47.196 14.4882 47.0183 14.8071 46.7464 15.0275C46.4823 15.2626 46.1434 15.3923 45.7925 15.3925H42.8168Z" fill="#333333"/>
<path d="M54.8701 12.5714L55.3908 12.4957L55.1478 14.2991L49.623 15.0561L49.8842 13.2578L50.7025 13.1451L51 6.12169H53.1392L52.8979 11.8413L54.1989 6.12169H56.3397L54.8701 12.5714ZM52.6367 3.76991L52.802 2.5772L52.354 1.8387H55.5909L55.3313 3.76991H56.596L56.3728 5.38319H50.9438L51.167 3.77496L52.6367 3.76991ZM62.2911 15.3925L62.9623 14.617L63.5756 10.1675H63.0913L62.4217 15.014H60.4379L61.1075 10.1675H60.6247L59.9552 15.014H58.069L58.7385 10.1675H58.2558L57.53 15.3925H55.3164L56.2075 8.86206H58.9236L59.1485 8.243H56.3381L56.5795 6.50188H66.3083L66.0686 8.243H62.6267L62.4035 8.86879H65.9611L65.2354 14.0922C65.1973 14.4305 65.0686 14.7517 64.8634 15.0208C64.7886 15.1326 64.689 15.2251 64.5728 15.2908C64.4565 15.3565 64.3268 15.3936 64.1939 15.3993L62.2911 15.3925ZM59.2229 4.41253H60.1519L60.4313 2.4258L59.9668 1.8387H63.4632L63.1111 4.41253H63.8732L64.189 2.123H66.5712L66.0504 5.88786H56.6555L57.1762 2.13982H59.5386L59.2229 4.41253Z" fill="#333333"/>
<path d="M69.4724 2.84131L68.8773 2.14149H82.9969L82.4563 6.07963H72.5605L72.4679 6.81645H82.3638L83.1639 6.09813L82.8101 8.6215H79.9832L79.8906 9.3415H83.0713L82.8233 11.1331H79.6294L79.2194 14.1611C79.178 14.513 79.0052 14.8353 78.7367 15.0611C78.4727 15.2912 78.1354 15.4156 77.7878 15.411H74.1046L75.7577 13.6514L76.0884 11.128H67.2836L67.525 9.32972H76.3628L76.4554 8.60972H68.6855L69.4724 2.84131ZM73.5838 14.0097H70.0494L69.6592 11.6815H73.1937L73.5838 14.0097ZM72.8581 3.93981L72.7837 4.46972H79.1451L79.2194 3.93981H72.8581Z" fill="#333333"/>
<path d="M84.9725 9.52486H84.6187L84.8782 7.6744H85.2882L85.9015 4.02056L85.7527 2.82785H87.4456L87.7432 2.12804L87.558 1.80505H90.3452L89.879 2.82785H92.2794L91.6099 7.6744H92.0381L91.7769 9.52486H91.3487L90.6428 14.7297C90.6201 14.9147 90.5341 15.0857 90.3998 15.2125C90.2829 15.3203 90.131 15.3802 89.9733 15.3808H87.3117L88.5036 14.0736L89.1351 9.53159H87.0885L86.1297 15.374H83.9806L84.9725 9.52486ZM87.148 10.0295H88.6094L88.4788 12.9264H86.9563L87.148 10.0295ZM87.4092 7.6643H89.393L89.8394 4.46804H87.9481L87.4092 7.6643ZM87.9481 4.99963H89.4178L89.3798 7.17645H87.8556L87.9481 4.99963ZM95.4419 15.3925L96.4652 8.08486H95.2551L93.5689 15.3925H90.866L92.8927 6.07963H99.4789L98.4738 13.2527H98.9946L99.7567 12.5344L99.355 15.3925H95.4419ZM95.1625 3.36449L95.2931 2.51327L94.8286 1.79327H98.6044L98.3631 3.36449H100.687L100.428 5.18299H92.2612L92.5208 3.36449H95.1625Z" fill="#333333"/>
<path d="M15.3314 1.00934L11.21 16.3178H14.7709L18.8923 1.00934H15.3314Z" fill="#FF842C"/>
<path d="M9.0908 13.2426L5.9498 8.67028L9.14701 4.01552H4.95625L1.75739 8.67028L4.90004 13.2426H9.0908Z" fill="#333333"/>
<path d="M23.7741 8.67029L20.6315 13.2426H24.8239L27.9649 8.67029L24.766 4.01552H20.5753L23.7741 8.67029Z" fill="#333333"/>
</svg>
