<svg width="16" height="16" viewBox="0 0 16 16" fill="none" xmlns="http://www.w3.org/2000/svg">
<path d="M1.14001 1.14V14.86H14.86V1.14H1.14001ZM2.14001 2.14H13.87V8.27L11.57 5.35L2.67001 13.87H2.13001L2.14001 2.14ZM4.14001 13.88L11.5 6.88L13.91 9.88V13.88H4.14001Z" fill="#333"/>
<path d="M5.79 7.76H5.61C5.34574 7.72947 5.09023 7.64652 4.85842 7.51602C4.62662 7.38553 4.42317 7.21009 4.26 7C3.92525 6.5946 3.76359 6.07369 3.81 5.55C3.84237 5.22222 3.95519 4.9075 4.13845 4.63381C4.3217 4.36012 4.56972 4.13593 4.86046 3.98114C5.1512 3.82636 5.47567 3.74578 5.80505 3.74656C6.13442 3.74734 6.45851 3.82945 6.74852 3.98561C7.03852 4.14177 7.28548 4.36713 7.46743 4.64169C7.64939 4.91624 7.76072 5.23149 7.79154 5.55942C7.82236 5.88735 7.77171 6.21782 7.64409 6.52147C7.51647 6.82512 7.31583 7.09255 7.06 7.3C6.70282 7.59597 6.25387 7.75859 5.79 7.76ZM5.79 4.76C5.59629 4.7541 5.40503 4.80461 5.2395 4.90539C5.07396 5.00618 4.94128 5.15289 4.85759 5.32769C4.77389 5.50249 4.7428 5.69785 4.76808 5.88999C4.79337 6.08214 4.87394 6.2628 5 6.41C5.16894 6.60983 5.40947 6.73549 5.67 6.76C5.79869 6.77493 5.92908 6.76309 6.05299 6.72523C6.17689 6.68737 6.29163 6.62431 6.39 6.54C6.59356 6.3728 6.72293 6.13203 6.75 5.87C6.76147 5.73918 6.74707 5.60738 6.7076 5.48212C6.66814 5.35687 6.60439 5.24062 6.52 5.14C6.35106 4.94017 6.11052 4.81451 5.85 4.79L5.79 4.76Z" fill="#FF842C"/>
</svg>
