<svg width="16" height="16" viewBox="0 0 16 16" fill="none" xmlns="http://www.w3.org/2000/svg">
<path d="M8.00001 9.83C7.61943 9.83198 7.24684 9.7208 6.92957 9.51059C6.6123 9.30038 6.36466 9.00063 6.2181 8.64939C6.07155 8.29815 6.03268 7.91127 6.10645 7.5379C6.18021 7.16453 6.36328 6.8215 6.63239 6.55238C6.90151 6.28327 7.24454 6.1002 7.61791 6.02644C7.99128 5.95267 8.37816 5.99154 8.7294 6.13809C9.08064 6.28465 9.38039 6.53229 9.5906 6.84956C9.80081 7.16683 9.91199 7.53942 9.91001 7.92C9.90739 8.42576 9.70531 8.91005 9.34768 9.26767C8.99006 9.6253 8.50577 9.82738 8.00001 9.83ZM8.00001 7C7.81805 7 7.64018 7.05396 7.48889 7.15505C7.33759 7.25614 7.21968 7.39983 7.15004 7.56793C7.08041 7.73604 7.06219 7.92102 7.09769 8.09949C7.13319 8.27795 7.22081 8.44188 7.34947 8.57054C7.47814 8.69921 7.64207 8.78683 7.82053 8.82233C7.99899 8.85782 8.18397 8.8396 8.35208 8.76997C8.52019 8.70034 8.66387 8.58242 8.76496 8.43113C8.86606 8.27983 8.92001 8.10196 8.92001 7.92C8.92001 7.676 8.82308 7.442 8.65055 7.26946C8.47802 7.09693 8.24401 7 8.00001 7Z" fill="#FF842C"/>
<path d="M8.00001 3.4C6.97642 3.40911 5.98636 3.76616 5.19257 4.41248C4.39878 5.0588 3.84846 5.95594 3.63208 6.95644C3.41569 7.95695 3.5461 9.00131 4.00187 9.91788C4.45764 10.8345 5.21166 11.5687 6.14001 12V10.91C5.49268 10.5118 4.99068 9.9158 4.70828 9.2102C4.42588 8.5046 4.37806 7.72684 4.5719 6.99196C4.76574 6.25708 5.19095 5.60409 5.78463 5.12957C6.37831 4.65506 7.10895 4.38421 7.86848 4.35708C8.62801 4.32996 9.37611 4.54799 10.0021 4.97895C10.6282 5.4099 11.0989 6.03089 11.3446 6.75008C11.5904 7.46926 11.5982 8.24844 11.3668 8.97239C11.1355 9.69634 10.6773 10.3266 10.06 10.77V11.93C10.9644 11.47 11.6874 10.7186 12.1119 9.79696C12.5364 8.87538 12.6378 7.83755 12.3996 6.85124C12.1614 5.86492 11.5976 4.98775 10.7992 4.36149C10.0009 3.73523 9.01468 3.39648 8.00001 3.4Z" fill="#333"/>
<path d="M13.05 2.87C12.3944 2.16779 11.6039 1.6051 10.7258 1.21561C9.84761 0.826125 8.89989 0.617852 7.93934 0.603263C6.9788 0.588675 6.02519 0.768072 5.13561 1.13071C4.24604 1.49335 3.43879 2.03178 2.7622 2.71375C2.08561 3.39572 1.55361 4.20722 1.19803 5.09964C0.842453 5.99207 0.670622 6.94707 0.692825 7.90747C0.715029 8.86786 0.93081 9.8139 1.32725 10.6889C1.72369 11.564 2.29263 12.35 3.00001 13C3.88097 13.888 4.98174 14.5264 6.19001 14.85V13.85C4.80189 13.4098 3.61543 12.4905 2.84246 11.2563C2.06949 10.0222 1.76035 8.55342 1.97022 7.11237C2.1801 5.67132 2.89533 4.35178 3.98821 3.38934C5.08109 2.42691 6.48048 1.88425 7.9365 1.85825C9.39252 1.83225 10.8104 2.3246 11.9369 3.2474C13.0635 4.1702 13.8254 5.46337 14.0866 6.89601C14.3477 8.32864 14.0912 9.80748 13.3628 11.0685C12.6344 12.3295 11.4815 13.2905 10.11 13.78V14.83C11.2452 14.4965 12.2774 13.8806 13.11 13.04C13.7731 12.3778 14.2991 11.5914 14.658 10.7257C15.0169 9.86004 15.2017 8.93212 15.2017 7.995C15.2017 7.05788 15.0169 6.12996 14.658 5.26429C14.2991 4.39863 13.7731 3.6122 13.11 2.95L13.05 2.87Z" fill="#333"/>
<path d="M8.59001 10.99H7.60001V15.22H8.59001V10.99Z" fill="#FF842C"/>
</svg>
